<svg width="73" height="74" viewBox="0 0 73 74" fill="none" xmlns="http://www.w3.org/2000/svg">
<g clip-path="url(#clip0_87_47)">
<path d="M35.9998 72.9997C55.8818 73.0972 72.0785 57.0586 72.176 37.1766C72.2735 17.2945 56.2349 1.09789 36.3529 1.00038C16.4708 0.902869 0.274197 16.9414 0.176685 36.8235C0.0791736 56.7055 16.1177 72.9022 35.9998 72.9997Z" fill="#0098FF" fill-opacity="0.1"/>
<path d="M36.0145 69.9997C54.2397 70.0891 69.0867 55.3871 69.176 37.1619C69.2654 18.9367 54.5634 4.08974 36.3382 4.00035C18.113 3.91097 3.26607 18.613 3.17669 36.8382C3.0873 55.0634 17.7893 69.9103 36.0145 69.9997Z" fill="#18364D"/>
<g clip-path="url(#clip1_87_47)">
<path fill-rule="evenodd" clip-rule="evenodd" d="M37.1196 42.6932C36.8226 42.9901 36.42 43.1568 36.0001 43.1568C35.5803 43.1568 35.1776 42.9901 34.8807 42.6932L25.9238 33.7363C25.7726 33.5902 25.652 33.4155 25.569 33.2224C25.486 33.0292 25.4423 32.8214 25.4405 32.6112C25.4387 32.401 25.4787 32.1925 25.5583 31.9979C25.6379 31.8033 25.7555 31.6265 25.9042 31.4778C26.0528 31.3292 26.2296 31.2116 26.4242 31.132C26.6188 31.0524 26.8273 31.0123 27.0375 31.0142C27.2478 31.016 27.4555 31.0597 27.6487 31.1426C27.8419 31.2256 28.0166 31.3462 28.1626 31.4975L36.0001 39.335L43.8376 31.4975C44.1363 31.2091 44.5362 31.0495 44.9514 31.0531C45.3665 31.0567 45.7636 31.2232 46.0572 31.5168C46.3507 31.8103 46.5173 32.2074 46.5209 32.6226C46.5245 33.0377 46.3649 33.4377 46.0765 33.7363L37.1196 42.6932Z" fill="#0098FF"/>
</g>
</g>
<defs>
<clipPath id="clip0_87_47">
<rect width="72.0002" height="72.0002" fill="white" transform="translate(72.3525 1.17694) rotate(90.281)"/>
</clipPath>
<clipPath id="clip1_87_47">
<rect width="38" height="38" fill="white" transform="matrix(1 0 0 -1 17 55.8238)"/>
</clipPath>
</defs>
</svg>
