<svg width="14" height="14" viewBox="0 0 14 14" fill="none" xmlns="http://www.w3.org/2000/svg">
<path d="M2.5 6.0625C2.5 5.84089 2.54365 5.62146 2.62845 5.41672C2.71326 5.21198 2.83756 5.02596 2.99426 4.86926C3.15096 4.71256 3.33698 4.58826 3.54172 4.50345C3.74646 4.41865 3.96589 4.375 4.1875 4.375C4.40911 4.375 4.62854 4.41865 4.83328 4.50345C5.03802 4.58826 5.22404 4.71256 5.38074 4.86926C5.53744 5.02596 5.66174 5.21198 5.74655 5.41672C5.83135 5.62146 5.875 5.84089 5.875 6.0625C5.875 6.51005 5.69721 6.93927 5.38074 7.25574C5.06427 7.57221 4.63505 7.75 4.1875 7.75C3.73995 7.75 3.31072 7.57221 2.99426 7.25574C2.67779 6.93927 2.5 6.51005 2.5 6.0625ZM4.1875 5.5C4.03832 5.5 3.89524 5.55926 3.78975 5.66475C3.68426 5.77024 3.625 5.91332 3.625 6.0625C3.625 6.21168 3.68426 6.35476 3.78975 6.46025C3.89524 6.56574 4.03832 6.625 4.1875 6.625C4.33668 6.625 4.47976 6.56574 4.58525 6.46025C4.69074 6.35476 4.75 6.21168 4.75 6.0625C4.75 5.91332 4.69074 5.77024 4.58525 5.66475C4.47976 5.55926 4.33668 5.5 4.1875 5.5ZM4.1875 8.5C3.73995 8.5 3.31072 8.67779 2.99426 8.99426C2.67779 9.31073 2.5 9.73995 2.5 10.1875C2.5 10.6351 2.67779 11.0643 2.99426 11.3807C3.31072 11.6972 3.73995 11.875 4.1875 11.875C4.63505 11.875 5.06427 11.6972 5.38074 11.3807C5.69721 11.0643 5.875 10.6351 5.875 10.1875C5.875 9.73995 5.69721 9.31073 5.38074 8.99426C5.06427 8.67779 4.63505 8.5 4.1875 8.5ZM3.625 10.1875C3.625 10.0383 3.68426 9.89524 3.78975 9.78975C3.89524 9.68426 4.03832 9.625 4.1875 9.625C4.33668 9.625 4.47976 9.68426 4.58525 9.78975C4.69074 9.89524 4.75 10.0383 4.75 10.1875C4.75 10.3367 4.69074 10.4798 4.58525 10.5852C4.47976 10.6907 4.33668 10.75 4.1875 10.75C4.03832 10.75 3.89524 10.6907 3.78975 10.5852C3.68426 10.4798 3.625 10.3367 3.625 10.1875ZM7 6.0625C7 5.91332 7.05926 5.77024 7.16475 5.66475C7.27024 5.55926 7.41332 5.5 7.5625 5.5H10.9375C11.0867 5.5 11.2298 5.55926 11.3352 5.66475C11.4407 5.77024 11.5 5.91332 11.5 6.0625C11.5 6.21168 11.4407 6.35476 11.3352 6.46025C11.2298 6.56574 11.0867 6.625 10.9375 6.625H7.5625C7.41332 6.625 7.27024 6.56574 7.16475 6.46025C7.05926 6.35476 7 6.21168 7 6.0625ZM7.5625 9.625C7.41332 9.625 7.27024 9.68426 7.16475 9.78975C7.05926 9.89524 7 10.0383 7 10.1875C7 10.3367 7.05926 10.4798 7.16475 10.5852C7.27024 10.6907 7.41332 10.75 7.5625 10.75H10.9375C11.0867 10.75 11.2298 10.6907 11.3352 10.5852C11.4407 10.4798 11.5 10.3367 11.5 10.1875C11.5 10.0383 11.4407 9.89524 11.3352 9.78975C11.2298 9.68426 11.0867 9.625 10.9375 9.625H7.5625ZM2.5 3.0625C2.5 2.91332 2.55926 2.77024 2.66475 2.66475C2.77024 2.55926 2.91332 2.5 3.0625 2.5H10.9375C11.0867 2.5 11.2298 2.55926 11.3352 2.66475C11.4407 2.77024 11.5 2.91332 11.5 3.0625C11.5 3.21168 11.4407 3.35476 11.3352 3.46025C11.2298 3.56574 11.0867 3.625 10.9375 3.625H3.0625C2.91332 3.625 2.77024 3.56574 2.66475 3.46025C2.55926 3.35476 2.5 3.21168 2.5 3.0625ZM2.6875 0.25C2.04103 0.25 1.42105 0.506807 0.963927 0.963927C0.506807 1.42105 0.25 2.04103 0.25 2.6875V11.3125C0.25 11.959 0.506807 12.579 0.963927 13.0361C1.42105 13.4932 2.04103 13.75 2.6875 13.75H11.3125C11.959 13.75 12.579 13.4932 13.0361 13.0361C13.4932 12.579 13.75 11.959 13.75 11.3125V2.6875C13.75 2.04103 13.4932 1.42105 13.0361 0.963927C12.579 0.506807 11.959 0.25 11.3125 0.25H2.6875ZM1.375 2.6875C1.375 1.963 1.963 1.375 2.6875 1.375H11.3125C12.037 1.375 12.625 1.963 12.625 2.6875V11.3125C12.625 11.6606 12.4867 11.9944 12.2406 12.2406C11.9944 12.4867 11.6606 12.625 11.3125 12.625H2.6875C2.3394 12.625 2.00556 12.4867 1.75942 12.2406C1.51328 11.9944 1.375 11.6606 1.375 11.3125V2.6875Z" fill="white" fill-opacity="0.7"/>
</svg>
