<svg width="380" height="355" viewBox="0 0 380 355" fill="none" xmlns="http://www.w3.org/2000/svg">
<g opacity="0.4">
<path d="M340.89 285.762L321.15 349.824" stroke="url(#paint0_linear_51_6656)" stroke-width="0.5" stroke-miterlimit="10" stroke-linecap="round" stroke-linejoin="round"/>
<path d="M340.891 285.762L376.82 251.211L340.891 200.825L305.352 256.97L262.472 269.926L223.161 267.047L291.059 349.824L305.352 256.97V349.824L340.891 285.762ZM340.891 285.762L305.352 256.97L376.82 276.404L340.891 285.762ZM340.891 285.762L376.82 349.824" stroke="url(#paint1_linear_51_6656)" stroke-width="0.5" stroke-miterlimit="10" stroke-linecap="round" stroke-linejoin="round"/>
<path d="M340.89 200.825L262.472 269.926L291.059 349.824L222.604 317.793L223.161 267.047L340.89 200.825Z" stroke="url(#paint2_linear_51_6656)" stroke-width="0.5" stroke-miterlimit="10" stroke-linecap="round" stroke-linejoin="round"/>
<path d="M340.891 200.825L376.82 154.758L358.855 104.371L340.891 200.825Z" stroke="url(#paint3_linear_51_6656)" stroke-width="0.5" stroke-miterlimit="10" stroke-linecap="round" stroke-linejoin="round"/>
<path d="M376.82 154.757L252.692 120.207L358.855 104.371L376.82 79.1782" stroke="url(#paint4_linear_51_6656)" stroke-width="0.5" stroke-miterlimit="10" stroke-linecap="round" stroke-linejoin="round"/>
<path d="M340.89 200.825L252.692 120.207L281.747 187.149L217.178 193.627L262.472 269.926L281.747 187.149L340.89 200.825ZM340.89 200.825L376.82 233.936" stroke="url(#paint5_linear_51_6656)" stroke-width="0.5" stroke-miterlimit="10" stroke-linecap="round" stroke-linejoin="round"/>
<path d="M217.179 193.627L171.172 228.177L223.162 267.047L176.769 323.911L222.604 317.793" stroke="url(#paint6_linear_51_6656)" stroke-width="0.5" stroke-miterlimit="10" stroke-linecap="round" stroke-linejoin="round"/>
<path d="M358.855 104.371L334.407 42.1084L310.71 91.7748L234.561 86.3763L252.692 120.207" stroke="url(#paint7_linear_51_6656)" stroke-width="0.5" stroke-miterlimit="10" stroke-linecap="round" stroke-linejoin="round"/>
<path d="M376.82 0L334.408 42.1085L376.82 48.2268L358.856 104.371L310.711 91.7748L252.693 120.207L217.178 193.627L223.161 267.047L124.803 275.325L176.768 323.911L104.492 332.968L124.803 275.325L171.171 228.177L84.1797 249.052L104.492 332.968" stroke="url(#paint8_linear_51_6656)" stroke-width="0.5" stroke-miterlimit="10" stroke-linecap="round" stroke-linejoin="round"/>
<path d="M124.804 275.325L84.1799 249.052L34.5288 317.793L104.492 332.968L43.7127 305.078L0.675781 323.911L34.5288 317.793L74.4001 349.824L104.492 332.968L122.547 349.824L124.804 275.325Z" stroke="url(#paint9_linear_51_6656)" stroke-width="0.5" stroke-miterlimit="10" stroke-linecap="round" stroke-linejoin="round"/>
<path d="M34.5288 317.793L0.675781 349.824" stroke="url(#paint10_linear_51_6656)" stroke-width="0.5" stroke-miterlimit="10" stroke-linecap="round" stroke-linejoin="round"/>
<path d="M146.268 184.989L167.866 208.023L171.171 161.236L146.268 184.989Z" stroke="url(#paint11_linear_51_6656)" stroke-width="0.5" stroke-miterlimit="10"/>
<path d="M17.6024 204.424L38.2904 244.733L13.4648 304.477L43.5564 285.762" stroke="url(#paint12_linear_51_6656)" stroke-width="0.5" stroke-miterlimit="10"/>
<path d="M53.3359 215.221L56.3451 258.769L78.9138 240.414L53.3359 215.221Z" stroke="url(#paint13_linear_51_6656)" stroke-width="0.5" stroke-miterlimit="10"/>
<path d="M84.1797 166.484L97.7209 184.629L102.987 166.484H84.1797Z" stroke="url(#paint14_linear_51_6656)" stroke-width="0.5" stroke-miterlimit="10"/>
<path d="M140.615 109.41L178.422 92.1346L207.467 154.757L241.408 123.446" stroke="url(#paint15_linear_51_6656)" stroke-width="0.5" stroke-miterlimit="10"/>
<path d="M305.352 74.1397L278.27 29.512L314.756 48.2268L305.352 74.1397Z" stroke="url(#paint16_linear_51_6656)" stroke-width="0.5" stroke-miterlimit="10"/>
<path d="M171.997 8.63757L146.268 51.8257L196.343 42.1084L171.997 8.63757Z" stroke="url(#paint17_linear_51_6656)" stroke-width="0.5" stroke-miterlimit="10"/>
<g opacity="0.8">
<path d="M227.086 190.334C228.538 190.334 228.541 188.175 227.086 188.175C225.634 188.175 225.631 190.334 227.086 190.334Z" fill="white"/>
<path d="M247.705 261.248C249.157 261.248 249.16 259.089 247.705 259.089C246.253 259.089 246.251 261.248 247.705 261.248Z" fill="white"/>
<path d="M325.162 203.664C326.614 203.664 326.617 201.504 325.162 201.504C323.71 201.504 323.708 203.664 325.162 203.664Z" fill="white"/>
<path d="M329.621 172.206C331.073 172.206 331.076 170.047 329.621 170.047C328.169 170.047 328.167 172.206 329.621 172.206Z" fill="white"/>
<path d="M337.979 176.472C339.431 176.472 339.434 174.312 337.979 174.312C336.528 174.312 336.525 176.472 337.979 176.472Z" fill="white"/>
<path d="M215.942 315.634C217.394 315.634 217.397 313.474 215.942 313.474C214.49 313.474 214.487 315.634 215.942 315.634Z" fill="white"/>
<path d="M208.697 315.634C210.149 315.634 210.152 313.474 208.697 313.474C207.245 313.474 207.243 315.634 208.697 315.634Z" fill="white"/>
<path d="M34.2778 327.363C35.7298 327.363 35.7328 325.204 34.2778 325.204C32.8252 325.204 32.8229 327.363 34.2778 327.363Z" fill="white"/>
<path d="M40.9653 333.762C42.4173 333.762 42.4195 331.602 40.9653 331.602C39.5127 331.602 39.5104 333.762 40.9653 333.762Z" fill="white"/>
<path d="M365.842 344.426C367.294 344.426 367.297 342.266 365.842 342.266C364.39 342.266 364.388 344.426 365.842 344.426Z" fill="white"/>
<path d="M357.483 337.494C358.935 337.494 358.938 335.334 357.483 335.334C356.031 335.334 356.029 337.494 357.483 337.494Z" fill="white"/>
<path d="M330.736 285.242C332.188 285.242 332.191 283.083 330.736 283.083C329.283 283.083 329.281 285.242 330.736 285.242Z" fill="white"/>
<path d="M341.881 296.438C343.333 296.438 343.336 294.279 341.881 294.279C340.429 294.279 340.426 296.438 341.881 296.438Z" fill="white"/>
<path d="M326.834 291.107C328.286 291.107 328.289 288.948 326.834 288.948C325.382 288.948 325.38 291.107 326.834 291.107Z" fill="white"/>
<path d="M163.56 223.392C165.011 223.392 165.014 221.233 163.56 221.233C162.108 221.233 162.105 223.392 163.56 223.392Z" fill="white"/>
<path d="M168.575 222.859C170.027 222.859 170.03 220.699 168.575 220.699C167.123 220.699 167.121 222.859 168.575 222.859Z" fill="white"/>
<path d="M78.8579 241.52C80.3098 241.52 80.3121 239.361 78.8579 239.361C77.4053 239.361 77.403 241.52 78.8579 241.52Z" fill="white"/>
<path d="M141.27 110.357C142.722 110.357 142.725 108.197 141.27 108.197C139.817 108.197 139.815 110.357 141.27 110.357Z" fill="white"/>
<path d="M305.658 75.6996C307.11 75.6996 307.113 73.5402 305.658 73.5402C304.206 73.5402 304.204 75.6996 305.658 75.6996Z" fill="white"/>
<path d="M196.995 43.1745C198.447 43.1745 198.45 41.0151 196.995 41.0151C195.543 41.0151 195.54 43.1745 196.995 43.1745Z" fill="white"/>
<path d="M365.842 147.146C367.294 147.146 367.297 144.987 365.842 144.987C364.39 144.987 364.388 147.146 365.842 147.146Z" fill="white"/>
<path d="M360.827 143.414C362.279 143.414 362.282 141.255 360.827 141.255C359.374 141.255 359.372 143.414 360.827 143.414Z" fill="white"/>
<path d="M173.701 291.16C175.153 291.16 175.156 289.001 173.701 289.001C172.249 289.001 172.246 291.16 173.701 291.16Z" fill="white"/>
<path d="M179.721 294.04C181.173 294.04 181.176 291.88 179.721 291.88C178.269 291.88 178.266 294.04 179.721 294.04Z" fill="white"/>
<path d="M243.665 194.707C245.117 194.707 245.12 192.547 243.665 192.547C242.213 192.547 242.21 194.707 243.665 194.707Z" fill="white"/>
<path d="M254.949 209.822C256.401 209.822 256.404 207.663 254.949 207.663C253.498 207.663 253.495 209.822 254.949 209.822Z" fill="white"/>
<path d="M281.28 188.228C282.731 188.228 282.734 186.069 281.28 186.069C279.828 186.069 279.825 188.228 281.28 188.228Z" fill="white"/>
<path d="M80.4182 230.697C81.8701 230.697 81.8731 228.537 80.4182 228.537C78.9663 228.537 78.9633 230.697 80.4182 230.697Z" fill="white"/>
<path d="M38.2903 246.532C39.7422 246.532 39.7452 244.373 38.2903 244.373C36.8383 244.373 36.8353 246.532 38.2903 246.532Z" fill="white"/>
<path d="M66.1252 286.122C67.5771 286.122 67.5802 283.962 66.1252 283.962C64.6733 283.962 64.6703 286.122 66.1252 286.122Z" fill="white"/>
<path d="M78.1623 286.841C79.6143 286.841 79.6173 284.682 78.1623 284.682C76.7104 284.682 76.7074 286.841 78.1623 286.841Z" fill="white"/>
<path d="M64.6203 300.518C66.0723 300.518 66.0753 298.358 64.6203 298.358C63.1684 298.358 63.1654 300.518 64.6203 300.518Z" fill="white"/>
<path d="M84.1799 250.131C85.6318 250.131 85.6348 247.972 84.1799 247.972C82.728 247.972 82.725 250.131 84.1799 250.131Z" fill="white"/>
<path d="M234.637 87.4559C236.089 87.4559 236.092 85.2965 234.637 85.2965C233.185 85.2965 233.182 87.4559 234.637 87.4559Z" fill="white"/>
</g>
<g opacity="0.8">
<path d="M218.81 188.628C220.262 188.628 220.265 186.469 218.81 186.469C217.359 186.469 217.356 188.628 218.81 188.628Z" fill="white"/>
<path d="M239.429 117.714C240.881 117.714 240.884 115.554 239.429 115.554C237.977 115.554 237.974 117.714 239.429 117.714Z" fill="white"/>
<path d="M316.887 175.298C318.339 175.298 318.342 173.139 316.887 173.139C315.435 173.139 315.432 175.298 316.887 175.298Z" fill="white"/>
<path d="M321.345 206.756C322.797 206.756 322.8 204.597 321.345 204.597C319.893 204.597 319.89 206.756 321.345 206.756Z" fill="white"/>
<path d="M329.704 202.491C331.156 202.491 331.159 200.331 329.704 200.331C328.251 200.331 328.249 202.491 329.704 202.491Z" fill="white"/>
<path d="M207.666 63.3291C209.118 63.3291 209.121 61.1697 207.666 61.1697C206.214 61.1697 206.212 63.3291 207.666 63.3291Z" fill="white"/>
<path d="M200.422 63.3291C201.874 63.3291 201.877 61.1697 200.422 61.1697C198.97 61.1697 198.967 63.3291 200.422 63.3291Z" fill="white"/>
<path d="M26.0022 51.5984C27.4541 51.5984 27.4571 49.439 26.0022 49.439C24.5503 49.439 24.5472 51.5984 26.0022 51.5984Z" fill="white"/>
<path d="M32.689 45.2007C34.1409 45.2007 34.1439 43.0413 32.689 43.0413C31.2363 43.0413 31.2341 45.2007 32.689 45.2007Z" fill="white"/>
<path d="M357.567 34.5368C359.019 34.5368 359.022 32.3774 357.567 32.3774C356.114 32.3774 356.112 34.5368 357.567 34.5368Z" fill="white"/>
<path d="M349.208 41.4678C350.659 41.4678 350.662 39.3083 349.208 39.3083C347.755 39.3083 347.753 41.4678 349.208 41.4678Z" fill="white"/>
<path d="M322.459 93.7204C323.911 93.7204 323.914 91.561 322.459 91.561C321.007 91.561 321.004 93.7204 322.459 93.7204Z" fill="white"/>
<path d="M333.605 82.5233C335.057 82.5233 335.06 80.3639 333.605 80.3639C332.152 80.3639 332.15 82.5233 333.605 82.5233Z" fill="white"/>
<path d="M318.559 87.8556C320.011 87.8556 320.014 85.6962 318.559 85.6962C317.106 85.6962 317.104 87.8556 318.559 87.8556Z" fill="white"/>
<path d="M155.284 155.57C156.736 155.57 156.739 153.411 155.284 153.411C153.831 153.411 153.829 155.57 155.284 155.57Z" fill="white"/>
<path d="M160.299 156.103C161.751 156.103 161.754 153.944 160.299 153.944C158.847 153.944 158.845 156.103 160.299 156.103Z" fill="white"/>
<path d="M70.582 137.442C72.0339 137.442 72.0369 135.283 70.582 135.283C69.1301 135.283 69.1278 137.442 70.582 137.442Z" fill="white"/>
<path d="M132.994 268.606C134.446 268.606 134.448 266.446 132.994 266.446C131.542 266.446 131.54 268.606 132.994 268.606Z" fill="white"/>
<path d="M292.117 303.263C293.569 303.263 293.572 301.104 292.117 301.104C290.665 301.104 290.663 303.263 292.117 303.263Z" fill="white"/>
<path d="M188.719 335.787C190.171 335.787 190.173 333.628 188.719 333.628C187.267 333.628 187.265 335.787 188.719 335.787Z" fill="white"/>
<path d="M357.567 231.816C359.019 231.816 359.022 229.657 357.567 229.657C356.114 229.657 356.112 231.816 357.567 231.816Z" fill="white"/>
<path d="M352.551 235.548C354.003 235.548 354.006 233.389 352.551 233.389C351.099 233.389 351.096 235.548 352.551 235.548Z" fill="white"/>
<path d="M165.426 87.8022C166.878 87.8022 166.88 85.6428 165.426 85.6428C163.974 85.6428 163.972 87.8022 165.426 87.8022Z" fill="white"/>
<path d="M171.444 84.9231C172.896 84.9231 172.898 82.7637 171.444 82.7637C169.992 82.7637 169.99 84.9231 171.444 84.9231Z" fill="white"/>
<path d="M235.389 184.256C236.841 184.256 236.844 182.096 235.389 182.096C233.937 182.096 233.934 184.256 235.389 184.256Z" fill="white"/>
<path d="M246.674 169.14C248.126 169.14 248.129 166.981 246.674 166.981C245.222 166.981 245.22 169.14 246.674 169.14Z" fill="white"/>
<path d="M273.004 190.734C274.456 190.734 274.459 188.575 273.004 188.575C271.552 188.575 271.55 190.734 273.004 190.734Z" fill="white"/>
<path d="M72.1425 148.266C73.5944 148.266 73.5974 146.106 72.1425 146.106C70.6906 146.106 70.6883 148.266 72.1425 148.266Z" fill="white"/>
<path d="M30.0136 132.43C31.4655 132.43 31.4685 130.271 30.0136 130.271C28.5617 130.271 28.5594 132.43 30.0136 132.43Z" fill="white"/>
<path d="M57.8486 92.8409C59.3005 92.8409 59.3027 90.6815 57.8486 90.6815C56.3967 90.6815 56.3944 92.8409 57.8486 92.8409Z" fill="white"/>
<path d="M69.8847 92.1211C71.3366 92.1211 71.3396 89.9617 69.8847 89.9617C68.4328 89.9617 68.4305 92.1211 69.8847 92.1211Z" fill="white"/>
<path d="M56.3437 78.4448C57.7956 78.4448 57.7979 76.2854 56.3437 76.2854C54.8918 76.2854 54.8895 78.4448 56.3437 78.4448Z" fill="white"/>
<path d="M75.9042 128.831C77.3562 128.831 77.3592 126.672 75.9042 126.672C74.4523 126.672 74.4501 128.831 75.9042 128.831Z" fill="white"/>
<path d="M226.361 291.506C227.813 291.506 227.816 289.347 226.361 289.347C224.909 289.347 224.907 291.506 226.361 291.506Z" fill="white"/>
</g>
<g opacity="0.5">
<path d="M332.965 160.289C333.449 160.289 333.45 159.569 332.965 159.569C332.481 159.569 332.48 160.289 332.965 160.289Z" fill="white"/>
<path d="M334.637 167.754C335.121 167.754 335.122 167.034 334.637 167.034C334.153 167.034 334.152 167.754 334.637 167.754Z" fill="white"/>
<path d="M336.866 164.021C337.349 164.021 337.351 163.302 336.866 163.302C336.381 163.302 336.38 164.021 336.866 164.021Z" fill="white"/>
<path d="M227.087 183.216C227.571 183.216 227.572 182.497 227.087 182.497C226.603 182.497 226.602 183.216 227.087 183.216Z" fill="white"/>
<path d="M232.66 182.683C233.144 182.683 233.145 181.963 232.66 181.963C232.176 181.963 232.175 182.683 232.66 182.683Z" fill="white"/>
<path d="M173.591 214.675C174.075 214.675 174.076 213.955 173.591 213.955C173.107 213.955 173.106 214.675 173.591 214.675Z" fill="white"/>
<path d="M183.064 230.67C183.548 230.67 183.549 229.95 183.064 229.95C182.581 229.95 182.58 230.67 183.064 230.67Z" fill="white"/>
<path d="M185.851 225.871C186.335 225.871 186.337 225.151 185.851 225.151C185.368 225.151 185.367 225.871 185.851 225.871Z" fill="white"/>
<path d="M190.866 228.537C191.349 228.537 191.351 227.818 190.866 227.818C190.381 227.818 190.38 228.537 190.866 228.537Z" fill="white"/>
<path d="M33.1639 333.575C33.6476 333.575 33.6491 332.855 33.1639 332.855C32.6801 332.855 32.6794 333.575 33.1639 333.575Z" fill="white"/>
<path d="M23.1332 334.109C23.6169 334.109 23.6176 333.389 23.1332 333.389C22.6487 333.389 22.6479 334.109 23.1332 334.109Z" fill="white"/>
<path d="M175.821 301.584C176.304 301.584 176.306 300.865 175.821 300.865C175.336 300.865 175.335 301.584 175.821 301.584Z" fill="white"/>
<path d="M166.905 289.32C167.388 289.32 167.39 288.601 166.905 288.601C166.42 288.601 166.419 289.32 166.905 289.32Z" fill="white"/>
<path d="M188.637 288.254C189.121 288.254 189.122 287.534 188.637 287.534C188.153 287.534 188.152 288.254 188.637 288.254Z" fill="white"/>
<path d="M183.622 260.528C184.106 260.528 184.107 259.808 183.622 259.808C183.138 259.808 183.137 260.528 183.622 260.528Z" fill="white"/>
<path d="M163.003 257.329C163.487 257.329 163.489 256.61 163.003 256.61C162.519 256.61 162.518 257.329 163.003 257.329Z" fill="white"/>
<path d="M175.821 251.998C176.304 251.998 176.306 251.278 175.821 251.278C175.336 251.278 175.335 251.998 175.821 251.998Z" fill="white"/>
<path d="M111.179 253.597C111.663 253.597 111.664 252.878 111.179 252.878C110.695 252.878 110.694 253.597 111.179 253.597Z" fill="white"/>
<path d="M113.965 259.996C114.449 259.996 114.45 259.276 113.965 259.276C113.481 259.276 113.48 259.996 113.965 259.996Z" fill="white"/>
<path d="M120.652 249.865C121.136 249.865 121.137 249.145 120.652 249.145C120.168 249.145 120.168 249.865 120.652 249.865Z" fill="white"/>
<path d="M61.5834 231.736C62.0671 231.736 62.0678 231.016 61.5834 231.016C61.0989 231.016 61.0981 231.736 61.5834 231.736Z" fill="white"/>
<path d="M68.8285 237.602C69.3122 237.602 69.3137 236.882 68.8285 236.882C68.344 236.882 68.3433 237.602 68.8285 237.602Z" fill="white"/>
<path d="M71.6141 225.871C72.0978 225.871 72.0993 225.151 71.6141 225.151C71.1303 225.151 71.1296 225.871 71.6141 225.871Z" fill="white"/>
<path d="M257.179 99.5062C257.663 99.5062 257.664 98.7864 257.179 98.7864C256.695 98.7864 256.694 99.5062 257.179 99.5062Z" fill="white"/>
<path d="M260.521 200.279C261.005 200.279 261.007 199.559 260.521 199.559C260.038 199.559 260.037 200.279 260.521 200.279Z" fill="white"/>
<path d="M330.737 248.798C331.22 248.798 331.222 248.079 330.737 248.079C330.252 248.079 330.251 248.798 330.737 248.798Z" fill="white"/>
<path d="M335.194 238.135C335.677 238.135 335.679 237.415 335.194 237.415C334.709 237.415 334.708 238.135 335.194 238.135Z" fill="white"/>
<path d="M347.453 243.467C347.937 243.467 347.938 242.747 347.453 242.747C346.969 242.747 346.968 243.467 347.453 243.467Z" fill="white"/>
<path d="M337.423 244.533C337.907 244.533 337.908 243.813 337.423 243.813C336.939 243.813 336.938 244.533 337.423 244.533Z" fill="white"/>
<path d="M370.301 200.279C370.784 200.279 370.786 199.559 370.301 199.559C369.817 199.559 369.816 200.279 370.301 200.279Z" fill="white"/>
<path d="M362.499 201.345C362.983 201.345 362.984 200.625 362.499 200.625C362.015 200.625 362.014 201.345 362.499 201.345Z" fill="white"/>
<path d="M300.087 148.026C300.571 148.026 300.572 147.306 300.087 147.306C299.603 147.306 299.602 148.026 300.087 148.026Z" fill="white"/>
<path d="M307.888 148.559C308.372 148.559 308.374 147.84 307.888 147.84C307.405 147.84 307.404 148.559 307.888 148.559Z" fill="white"/>
<path d="M291.729 138.962C292.213 138.962 292.214 138.242 291.729 138.242C291.244 138.242 291.244 138.962 291.729 138.962Z" fill="white"/>
<path d="M338.537 116.568C339.021 116.568 339.022 115.848 338.537 115.848C338.053 115.848 338.052 116.568 338.537 116.568Z" fill="white"/>
<path d="M343.553 116.035C344.037 116.035 344.038 115.315 343.553 115.315C343.069 115.315 343.068 116.035 343.553 116.035Z" fill="white"/>
<path d="M345.225 110.703C345.709 110.703 345.709 109.983 345.225 109.983C344.74 109.983 344.74 110.703 345.225 110.703Z" fill="white"/>
<path d="M348.568 124.566C349.052 124.566 349.053 123.846 348.568 123.846C348.084 123.846 348.084 124.566 348.568 124.566Z" fill="white"/>
<path d="M355.812 71.7802C356.296 71.7802 356.298 71.0604 355.812 71.0604C355.329 71.0604 355.328 71.7802 355.812 71.7802Z" fill="white"/>
<path d="M346.896 53.1185C347.38 53.1185 347.382 52.3987 346.896 52.3987C346.413 52.3987 346.412 53.1185 346.896 53.1185Z" fill="white"/>
<path d="M232.381 238.615C232.865 238.615 232.866 237.895 232.381 237.895C231.897 237.895 231.896 238.615 232.381 238.615Z" fill="white"/>
<path d="M240.657 238.615C241.14 238.615 241.142 237.895 240.657 237.895C240.172 237.895 240.171 238.615 240.657 238.615Z" fill="white"/>
<path d="M295.574 184.629C296.057 184.629 296.059 183.91 295.574 183.91C295.089 183.91 295.088 184.629 295.574 184.629Z" fill="white"/>
<path d="M306.858 186.069C307.342 186.069 307.343 185.349 306.858 185.349C306.373 185.349 306.373 186.069 306.858 186.069Z" fill="white"/>
<path d="M289.555 174.552C290.039 174.552 290.04 173.832 289.555 173.832C289.071 173.832 289.07 174.552 289.555 174.552Z" fill="white"/>
<path d="M338.453 78.8184C338.937 78.8184 338.938 78.0986 338.453 78.0986C337.969 78.0986 337.968 78.8184 338.453 78.8184Z" fill="white"/>
<path d="M263.977 291.16C264.461 291.16 264.462 290.441 263.977 290.441C263.492 290.441 263.492 291.16 263.977 291.16Z" fill="white"/>
<path d="M279.023 299.078C279.507 299.078 279.508 298.358 279.023 298.358C278.538 298.358 278.538 299.078 279.023 299.078Z" fill="white"/>
<path d="M277.518 279.643C278.002 279.643 278.003 278.924 277.518 278.924C277.033 278.924 277.033 279.643 277.518 279.643Z" fill="white"/>
<path d="M274.509 291.16C274.993 291.16 274.994 290.441 274.509 290.441C274.025 290.441 274.024 291.16 274.509 291.16Z" fill="white"/>
<path d="M244.418 323.551C244.902 323.551 244.904 322.832 244.418 322.832C243.934 322.832 243.933 323.551 244.418 323.551Z" fill="white"/>
<path d="M258.711 340.826C259.195 340.826 259.197 340.107 258.711 340.107C258.227 340.107 258.226 340.826 258.711 340.826Z" fill="white"/>
<path d="M312.876 302.677C313.36 302.677 313.362 301.957 312.876 301.957C312.392 301.957 312.391 302.677 312.876 302.677Z" fill="white"/>
<path d="M151.134 133.523C151.618 133.523 151.619 132.804 151.134 132.804C150.65 132.804 150.649 133.523 151.134 133.523Z" fill="white"/>
<path d="M168.436 134.963C168.92 134.963 168.92 134.243 168.436 134.243C167.951 134.243 167.951 134.963 168.436 134.963Z" fill="white"/>
<path d="M112.767 93.2146C113.251 93.2146 113.251 92.4948 112.767 92.4948C112.282 92.4948 112.282 93.2146 112.767 93.2146Z" fill="white"/>
<path d="M105.244 40.6688C105.728 40.6688 105.729 39.949 105.244 39.949C104.76 39.949 104.759 40.6688 105.244 40.6688Z" fill="white"/>
<path d="M122.547 63.7026C123.031 63.7026 123.032 62.9828 122.547 62.9828C122.063 62.9828 122.062 63.7026 122.547 63.7026Z" fill="white"/>
<path d="M104.493 33.4708C104.976 33.4708 104.977 32.751 104.493 32.751C104.008 32.751 104.007 33.4708 104.493 33.4708Z" fill="white"/>
<path d="M110.51 32.7511C110.994 32.7511 110.995 32.0312 110.51 32.0312C110.026 32.0312 110.025 32.7511 110.51 32.7511Z" fill="white"/>
<path d="M63.8685 55.7847C64.3522 55.7847 64.353 55.0649 63.8685 55.0649C63.384 55.0649 63.3833 55.7847 63.8685 55.7847Z" fill="white"/>
<path d="M87.9418 84.5769C88.4255 84.5769 88.4262 83.8571 87.9418 83.8571C87.4573 83.8571 87.4565 84.5769 87.9418 84.5769Z" fill="white"/>
<path d="M44.309 75.2193C44.7927 75.2193 44.7934 74.4995 44.309 74.4995C43.8245 74.4995 43.8237 75.2193 44.309 75.2193Z" fill="white"/>
<path d="M44.309 159.436C44.7927 159.436 44.7934 158.717 44.309 158.717C43.8245 158.717 43.8237 159.436 44.309 159.436Z" fill="white"/>
<path d="M63.1156 198.306C63.5993 198.306 63.6001 197.586 63.1156 197.586C62.6311 197.586 62.6304 198.306 63.1156 198.306Z" fill="white"/>
<path d="M257.959 173.113C258.443 173.113 258.445 172.393 257.959 172.393C257.475 172.393 257.474 173.113 257.959 173.113Z" fill="white"/>
<path d="M267.739 178.151C268.222 178.151 268.224 177.431 267.739 177.431C267.254 177.431 267.253 178.151 267.739 178.151Z" fill="white"/>
<path d="M260.215 183.909C260.699 183.909 260.7 183.19 260.215 183.19C259.731 183.19 259.73 183.909 260.215 183.909Z" fill="white"/>
<path d="M217.335 301.237C217.819 301.237 217.821 300.518 217.335 300.518C216.851 300.518 216.85 301.237 217.335 301.237Z" fill="white"/>
<path d="M243.665 309.875C244.149 309.875 244.151 309.155 243.665 309.155C243.181 309.155 243.18 309.875 243.665 309.875Z" fill="white"/>
<path d="M256.454 322.112C256.938 322.112 256.94 321.392 256.454 321.392C255.97 321.392 255.969 322.112 256.454 322.112Z" fill="white"/>
<path d="M142.106 310.595C142.59 310.595 142.59 309.875 142.106 309.875C141.621 309.875 141.621 310.595 142.106 310.595Z" fill="white"/>
</g>
<path d="M125.1 349.824C125.1 351.215 123.921 352.343 122.467 352.343C121.013 352.343 119.834 351.215 119.834 349.824C119.834 348.433 121.013 347.305 122.467 347.305C123.921 347.305 125.1 348.433 125.1 349.824Z" stroke="white" stroke-width="0.5" stroke-miterlimit="10"/>
<path d="M123.862 349.824C123.862 350.561 123.237 351.159 122.467 351.159C121.697 351.159 121.072 350.561 121.072 349.824C121.072 349.087 121.697 348.49 122.467 348.49C123.237 348.49 123.862 349.087 123.862 349.824Z" fill="white"/>
<path d="M173.368 228.237C173.368 229.398 172.384 230.34 171.17 230.34C169.957 230.34 168.974 229.398 168.974 228.237C168.974 227.076 169.958 226.135 171.17 226.135C172.383 226.135 173.368 227.076 173.368 228.237Z" stroke="white" stroke-width="0.5" stroke-miterlimit="10"/>
<path d="M172.335 228.237C172.335 228.852 171.814 229.351 171.172 229.351C170.528 229.351 170.008 228.852 170.008 228.237C170.008 227.623 170.529 227.124 171.172 227.124C171.814 227.124 172.335 227.623 172.335 228.237Z" fill="white"/>
<path d="M265.105 269.926C265.105 271.317 263.926 272.445 262.472 272.445C261.018 272.445 259.839 271.317 259.839 269.926C259.839 268.535 261.018 267.407 262.472 267.407C263.926 267.407 265.105 268.535 265.105 269.926Z" stroke="white" stroke-width="0.5" stroke-miterlimit="10"/>
<path d="M263.867 269.926C263.867 270.663 263.242 271.26 262.472 271.26C261.702 271.26 261.077 270.663 261.077 269.926C261.077 269.189 261.702 268.591 262.472 268.591C263.242 268.591 263.867 269.189 263.867 269.926Z" fill="white"/>
<path d="M127.436 275.325C127.436 276.716 126.257 277.844 124.803 277.844C123.349 277.844 122.17 276.716 122.17 275.325C122.17 273.933 123.349 272.805 124.803 272.805C126.257 272.805 127.436 273.933 127.436 275.325Z" stroke="white" stroke-width="0.5" stroke-miterlimit="10"/>
<path d="M124.803 276.659C125.573 276.659 126.198 276.061 126.198 275.324C126.198 274.587 125.573 273.99 124.803 273.99C124.033 273.99 123.408 274.587 123.408 275.324C123.408 276.061 124.033 276.659 124.803 276.659Z" fill="white"/>
<path d="M173.938 161.236C173.938 162.627 172.759 163.755 171.305 163.755C169.851 163.755 168.672 162.627 168.672 161.236C168.672 159.844 169.851 158.717 171.305 158.717C172.759 158.717 173.938 159.844 173.938 161.236Z" stroke="white" stroke-width="0.5" stroke-miterlimit="10"/>
<path d="M172.7 161.236C172.7 161.973 172.075 162.57 171.305 162.57C170.535 162.57 169.91 161.973 169.91 161.236C169.91 160.499 170.535 159.901 171.305 159.901C172.075 159.901 172.7 160.499 172.7 161.236Z" fill="white"/>
<path d="M379.454 154.757C379.454 156.149 378.275 157.277 376.821 157.277C375.366 157.277 374.188 156.149 374.188 154.757C374.188 153.366 375.366 152.238 376.821 152.238C378.275 152.238 379.454 153.366 379.454 154.757Z" stroke="white" stroke-width="0.5" stroke-miterlimit="10"/>
<path d="M378.215 154.757C378.215 155.495 377.591 156.092 376.821 156.092C376.05 156.092 375.426 155.495 375.426 154.757C375.426 154.02 376.05 153.423 376.821 153.423C377.591 153.423 378.215 154.02 378.215 154.757Z" fill="white"/>
<path d="M219.811 193.627C219.811 195.018 218.632 196.146 217.178 196.146C215.724 196.146 214.545 195.018 214.545 193.627C214.545 192.235 215.724 191.108 217.178 191.108C218.632 191.108 219.811 192.235 219.811 193.627Z" stroke="white" stroke-width="0.5" stroke-miterlimit="10"/>
<path d="M218.573 193.627C218.573 194.364 217.948 194.961 217.178 194.961C216.408 194.961 215.783 194.364 215.783 193.627C215.783 192.89 216.408 192.292 217.178 192.292C217.948 192.292 218.573 192.89 218.573 193.627Z" fill="white"/>
<path d="M107.923 332.968C107.923 334.773 106.393 336.236 104.507 336.236C102.621 336.236 101.092 334.772 101.092 332.968C101.092 331.163 102.621 329.7 104.507 329.7C106.393 329.7 107.923 331.163 107.923 332.968Z" stroke="white" stroke-width="0.5" stroke-miterlimit="10"/>
<path d="M106.316 332.968C106.316 333.924 105.506 334.699 104.507 334.699C103.507 334.699 102.697 333.924 102.697 332.968C102.697 332.012 103.507 331.237 104.507 331.237C105.506 331.237 106.316 332.012 106.316 332.968Z" fill="white"/>
<path d="M37.9441 317.793C37.9441 319.598 36.4147 321.061 34.5287 321.061C32.6427 321.061 31.1133 319.597 31.1133 317.793C31.1133 315.988 32.6427 314.525 34.5287 314.525C36.4147 314.525 37.9441 315.988 37.9441 317.793Z" stroke="white" stroke-width="0.5" stroke-miterlimit="10"/>
<path d="M36.3373 317.793C36.3373 318.749 35.527 319.524 34.528 319.524C33.529 319.524 32.7188 318.749 32.7188 317.793C32.7188 316.837 33.529 316.062 34.528 316.062C35.527 316.062 36.3373 316.837 36.3373 317.793Z" fill="white"/>
<path d="M256.108 120.207C256.108 122.012 254.579 123.475 252.693 123.475C250.807 123.475 249.277 122.012 249.277 120.207C249.277 118.402 250.807 116.939 252.693 116.939C254.579 116.939 256.108 118.402 256.108 120.207Z" stroke="white" stroke-width="0.5" stroke-miterlimit="10"/>
<path d="M254.501 120.207C254.501 121.163 253.691 121.938 252.692 121.938C251.693 121.938 250.883 121.163 250.883 120.207C250.883 119.251 251.693 118.476 252.692 118.476C253.691 118.476 254.501 119.251 254.501 120.207Z" fill="white"/>
<path d="M344.306 285.762C344.306 287.567 342.777 289.029 340.891 289.029C339.005 289.029 337.476 287.566 337.476 285.762C337.476 283.957 339.005 282.494 340.891 282.494C342.777 282.494 344.306 283.956 344.306 285.762Z" stroke="white" stroke-width="0.5" stroke-miterlimit="10"/>
<path d="M342.701 285.762C342.701 286.718 341.89 287.493 340.891 287.493C339.892 287.493 339.082 286.718 339.082 285.762C339.082 284.806 339.892 284.031 340.891 284.031C341.89 284.031 342.701 284.806 342.701 285.762Z" fill="white"/>
<path d="M345.788 200.825C345.788 203.413 343.595 205.511 340.891 205.511C338.186 205.511 335.993 203.413 335.993 200.825C335.993 198.237 338.185 196.139 340.891 196.139C343.595 196.139 345.788 198.237 345.788 200.825Z" stroke="white" stroke-width="0.5" stroke-miterlimit="10"/>
<path d="M343.485 200.825C343.485 202.196 342.324 203.308 340.891 203.308C339.457 203.308 338.296 202.196 338.296 200.825C338.296 199.454 339.457 198.342 340.891 198.342C342.324 198.342 343.485 199.454 343.485 200.825Z" fill="white"/>
<path d="M228.058 267.407C228.058 269.995 225.866 272.093 223.161 272.093C220.457 272.093 218.264 269.995 218.264 267.407C218.264 264.819 220.456 262.721 223.161 262.721C225.866 262.721 228.058 264.819 228.058 267.407Z" stroke="white" stroke-width="0.5" stroke-miterlimit="10"/>
<path d="M225.756 267.407C225.756 268.778 224.594 269.889 223.161 269.889C221.728 269.889 220.566 268.778 220.566 267.407C220.566 266.035 221.728 264.924 223.161 264.924C224.594 264.924 225.756 266.035 225.756 267.407Z" fill="white"/>
<path d="M363.753 104.371C363.753 106.959 361.56 109.057 358.855 109.057C356.151 109.057 353.958 106.959 353.958 104.371C353.958 101.784 356.151 99.6854 358.855 99.6854C361.56 99.6854 363.753 101.784 363.753 104.371Z" stroke="white" stroke-width="0.5" stroke-miterlimit="10"/>
<path d="M361.45 104.371C361.45 105.743 360.289 106.854 358.855 106.854C357.422 106.854 356.261 105.743 356.261 104.371C356.261 103 357.422 101.889 358.855 101.889C360.289 101.889 361.45 103 361.45 104.371Z" fill="white"/>
<path d="M296.514 349.824C296.514 352.412 294.321 354.51 291.616 354.51C288.912 354.51 286.719 352.412 286.719 349.824C286.719 347.236 288.911 345.138 291.616 345.138C294.321 345.138 296.514 347.236 296.514 349.824Z" stroke="white" stroke-width="0.5" stroke-miterlimit="10"/>
<path d="M294.211 349.824C294.211 351.195 293.049 352.307 291.616 352.307C290.183 352.307 289.021 351.195 289.021 349.824C289.021 348.453 290.183 347.342 291.616 347.342C293.049 347.342 294.211 348.453 294.211 349.824Z" fill="white"/>
</g>
<defs>
<linearGradient id="paint0_linear_51_6656" x1="320.962" y1="317.793" x2="341.079" y2="317.793" gradientUnits="userSpaceOnUse">
<stop stop-color="#0098FF"/>
<stop offset="0.1601" stop-color="#0098FF" stop-opacity="0.7"/>
<stop offset="0.5723" stop-color="#0098FF" stop-opacity="0.7"/>
<stop offset="0.8615" stop-color="#E3FAF5"/>
<stop offset="1" stop-color="#F9FBFC"/>
</linearGradient>
<linearGradient id="paint1_linear_51_6656" x1="221.697" y1="275.325" x2="378.285" y2="275.325" gradientUnits="userSpaceOnUse">
<stop stop-color="#0098FF"/>
<stop offset="0.1601" stop-color="#0098FF" stop-opacity="0.7"/>
<stop offset="0.5723" stop-color="#0098FF" stop-opacity="0.7"/>
<stop offset="0.8615" stop-color="#E3FAF5"/>
<stop offset="1" stop-color="#F9FBFC"/>
</linearGradient>
<linearGradient id="paint2_linear_51_6656" x1="221.477" y1="275.325" x2="342.018" y2="275.325" gradientUnits="userSpaceOnUse">
<stop stop-color="#0098FF"/>
<stop offset="0.1601" stop-color="#0098FF" stop-opacity="0.7"/>
<stop offset="0.5723" stop-color="#0098FF" stop-opacity="0.7"/>
<stop offset="0.8615" stop-color="#E3FAF5"/>
<stop offset="1" stop-color="#F9FBFC"/>
</linearGradient>
<linearGradient id="paint3_linear_51_6656" x1="340.548" y1="152.598" x2="377.162" y2="152.598" gradientUnits="userSpaceOnUse">
<stop stop-color="#0098FF"/>
<stop offset="0.1601" stop-color="#0098FF" stop-opacity="0.7"/>
<stop offset="0.5723" stop-color="#0098FF" stop-opacity="0.7"/>
<stop offset="0.8615" stop-color="#E3FAF5"/>
<stop offset="1" stop-color="#F9FBFC"/>
</linearGradient>
<linearGradient id="paint4_linear_51_6656" x1="251.51" y1="116.968" x2="378.003" y2="116.968" gradientUnits="userSpaceOnUse">
<stop stop-color="#0098FF"/>
<stop offset="0.1601" stop-color="#0098FF" stop-opacity="0.7"/>
<stop offset="0.5723" stop-color="#0098FF" stop-opacity="0.7"/>
<stop offset="0.8615" stop-color="#E3FAF5"/>
<stop offset="1" stop-color="#F9FBFC"/>
</linearGradient>
<linearGradient id="paint5_linear_51_6656" x1="215.657" y1="195.067" x2="378.341" y2="195.067" gradientUnits="userSpaceOnUse">
<stop stop-color="#0098FF"/>
<stop offset="0.1601" stop-color="#0098FF" stop-opacity="0.7"/>
<stop offset="0.5723" stop-color="#0098FF" stop-opacity="0.7"/>
<stop offset="0.8615" stop-color="#E3FAF5"/>
<stop offset="1" stop-color="#F9FBFC"/>
</linearGradient>
<linearGradient id="paint6_linear_51_6656" x1="170.677" y1="258.769" x2="223.657" y2="258.769" gradientUnits="userSpaceOnUse">
<stop stop-color="#0098FF"/>
<stop offset="0.1601" stop-color="#0098FF" stop-opacity="0.7"/>
<stop offset="0.5723" stop-color="#0098FF" stop-opacity="0.7"/>
<stop offset="0.8615" stop-color="#E3FAF5"/>
<stop offset="1" stop-color="#F9FBFC"/>
</linearGradient>
<linearGradient id="paint7_linear_51_6656" x1="233.376" y1="81.1577" x2="360.04" y2="81.1577" gradientUnits="userSpaceOnUse">
<stop stop-color="#0098FF"/>
<stop offset="0.1601" stop-color="#0098FF" stop-opacity="0.7"/>
<stop offset="0.5723" stop-color="#0098FF" stop-opacity="0.7"/>
<stop offset="0.8615" stop-color="#E3FAF5"/>
<stop offset="1" stop-color="#F9FBFC"/>
</linearGradient>
<linearGradient id="paint8_linear_51_6656" x1="81.3916" y1="166.484" x2="379.609" y2="166.484" gradientUnits="userSpaceOnUse">
<stop stop-color="#0098FF"/>
<stop offset="0.1601" stop-color="#0098FF" stop-opacity="0.7"/>
<stop offset="0.5723" stop-color="#0098FF" stop-opacity="0.7"/>
<stop offset="0.8615" stop-color="#E3FAF5"/>
<stop offset="1" stop-color="#F9FBFC"/>
</linearGradient>
<linearGradient id="paint9_linear_51_6656" x1="-0.506838" y1="299.438" x2="125.987" y2="299.438" gradientUnits="userSpaceOnUse">
<stop stop-color="#0098FF"/>
<stop offset="0.1601" stop-color="#0098FF" stop-opacity="0.7"/>
<stop offset="0.5723" stop-color="#0098FF" stop-opacity="0.7"/>
<stop offset="0.8615" stop-color="#E3FAF5"/>
<stop offset="1" stop-color="#F9FBFC"/>
</linearGradient>
<linearGradient id="paint10_linear_51_6656" x1="0.353249" y1="333.809" x2="34.8515" y2="333.809" gradientUnits="userSpaceOnUse">
<stop stop-color="#0098FF"/>
<stop offset="0.1601" stop-color="#0098FF" stop-opacity="0.7"/>
<stop offset="0.5723" stop-color="#0098FF" stop-opacity="0.7"/>
<stop offset="0.8615" stop-color="#E3FAF5"/>
<stop offset="1" stop-color="#F9FBFC"/>
</linearGradient>
<linearGradient id="paint11_linear_51_6656" x1="146.03" y1="184.629" x2="171.409" y2="184.629" gradientUnits="userSpaceOnUse">
<stop stop-color="#0098FF"/>
<stop offset="0.1601" stop-color="#0098FF" stop-opacity="0.7"/>
<stop offset="0.5723" stop-color="#0098FF" stop-opacity="0.7"/>
<stop offset="0.8615" stop-color="#E3FAF5"/>
<stop offset="1" stop-color="#F9FBFC"/>
</linearGradient>
<linearGradient id="paint12_linear_51_6656" x1="13.1781" y1="254.45" x2="43.8432" y2="254.45" gradientUnits="userSpaceOnUse">
<stop stop-color="#0098FF"/>
<stop offset="0.1601" stop-color="#0098FF" stop-opacity="0.7"/>
<stop offset="0.5723" stop-color="#0098FF" stop-opacity="0.7"/>
<stop offset="0.8615" stop-color="#E3FAF5"/>
<stop offset="1" stop-color="#F9FBFC"/>
</linearGradient>
<linearGradient id="paint13_linear_51_6656" x1="53.0922" y1="236.995" x2="79.1576" y2="236.995" gradientUnits="userSpaceOnUse">
<stop stop-color="#0098FF"/>
<stop offset="0.1601" stop-color="#0098FF" stop-opacity="0.7"/>
<stop offset="0.5723" stop-color="#0098FF" stop-opacity="0.7"/>
<stop offset="0.8615" stop-color="#E3FAF5"/>
<stop offset="1" stop-color="#F9FBFC"/>
</linearGradient>
<linearGradient id="paint14_linear_51_6656" x1="84.0005" y1="175.557" x2="103.166" y2="175.557" gradientUnits="userSpaceOnUse">
<stop stop-color="#0098FF"/>
<stop offset="0.1601" stop-color="#0098FF" stop-opacity="0.7"/>
<stop offset="0.5723" stop-color="#0098FF" stop-opacity="0.7"/>
<stop offset="0.8615" stop-color="#E3FAF5"/>
<stop offset="1" stop-color="#F9FBFC"/>
</linearGradient>
<linearGradient id="paint15_linear_51_6656" x1="139.655" y1="123.446" x2="242.369" y2="123.446" gradientUnits="userSpaceOnUse">
<stop stop-color="#0098FF"/>
<stop offset="0.1601" stop-color="#0098FF" stop-opacity="0.7"/>
<stop offset="0.5723" stop-color="#0098FF" stop-opacity="0.7"/>
<stop offset="0.8615" stop-color="#E3FAF5"/>
<stop offset="1" stop-color="#F9FBFC"/>
</linearGradient>
<linearGradient id="paint16_linear_51_6656" x1="277.922" y1="51.8258" x2="315.103" y2="51.8258" gradientUnits="userSpaceOnUse">
<stop stop-color="#0098FF"/>
<stop offset="0.1601" stop-color="#0098FF" stop-opacity="0.7"/>
<stop offset="0.5723" stop-color="#0098FF" stop-opacity="0.7"/>
<stop offset="0.8615" stop-color="#E3FAF5"/>
<stop offset="1" stop-color="#F9FBFC"/>
</linearGradient>
<linearGradient id="paint17_linear_51_6656" x1="145.79" y1="30.2317" x2="196.82" y2="30.2317" gradientUnits="userSpaceOnUse">
<stop stop-color="#0098FF"/>
<stop offset="0.1601" stop-color="#0098FF" stop-opacity="0.7"/>
<stop offset="0.5723" stop-color="#0098FF" stop-opacity="0.7"/>
<stop offset="0.8615" stop-color="#E3FAF5"/>
<stop offset="1" stop-color="#F9FBFC"/>
</linearGradient>
</defs>
</svg>
