<svg width="380" height="356" viewBox="0 0 380 356" fill="none" xmlns="http://www.w3.org/2000/svg">
<g opacity="0.4">
<path d="M39.2385 69.7483L58.9785 5.68585" stroke="url(#paint0_linear_51_7191)" stroke-width="0.5" stroke-miterlimit="10" stroke-linecap="round" stroke-linejoin="round"/>
<path d="M39.2383 69.7483L3.30893 104.299L39.2383 154.685L74.7764 98.5405L117.657 85.584L156.968 88.4632L89.0699 5.68592L74.7764 98.5405V5.68592L39.2383 69.7483ZM39.2383 69.7483L74.7764 98.5405L3.30893 79.1058L39.2383 69.7483ZM39.2383 69.7483L3.30893 5.68592" stroke="url(#paint1_linear_51_7191)" stroke-width="0.5" stroke-miterlimit="10" stroke-linecap="round" stroke-linejoin="round"/>
<path d="M39.2384 154.685L117.657 85.584L89.0701 5.68592L157.525 37.7171L156.968 88.4632L39.2384 154.685Z" stroke="url(#paint2_linear_51_7191)" stroke-width="0.5" stroke-miterlimit="10" stroke-linecap="round" stroke-linejoin="round"/>
<path d="M39.2383 154.685L3.30894 200.752L21.2736 251.139L39.2383 154.685Z" stroke="url(#paint3_linear_51_7191)" stroke-width="0.5" stroke-miterlimit="10" stroke-linecap="round" stroke-linejoin="round"/>
<path d="M3.30879 200.753L127.437 235.303L21.2735 251.139L3.30879 276.332" stroke="url(#paint4_linear_51_7191)" stroke-width="0.5" stroke-miterlimit="10" stroke-linecap="round" stroke-linejoin="round"/>
<path d="M39.2387 154.685L127.437 235.303L98.3822 168.361L162.951 161.883L117.657 85.584L98.3822 168.361L39.2387 154.685ZM39.2387 154.685L3.30936 121.574" stroke="url(#paint5_linear_51_7191)" stroke-width="0.5" stroke-miterlimit="10" stroke-linecap="round" stroke-linejoin="round"/>
<path d="M162.95 161.883L208.957 127.333L156.967 88.4633L203.36 31.5989L157.525 37.7172" stroke="url(#paint6_linear_51_7191)" stroke-width="0.5" stroke-miterlimit="10" stroke-linecap="round" stroke-linejoin="round"/>
<path d="M21.2736 251.139L45.7215 313.402L69.4186 263.735L145.568 269.134L127.437 235.303" stroke="url(#paint7_linear_51_7191)" stroke-width="0.5" stroke-miterlimit="10" stroke-linecap="round" stroke-linejoin="round"/>
<path d="M3.30866 355.51L45.7212 313.402L3.30866 307.283L21.2733 251.139L69.4183 263.735L127.436 235.303L162.95 161.883L156.968 88.4632L255.326 80.1855L203.36 31.5988L275.637 22.5423L255.326 80.1855L208.957 127.333L295.949 106.458L275.637 22.5423" stroke="url(#paint8_linear_51_7191)" stroke-width="0.5" stroke-miterlimit="10" stroke-linecap="round" stroke-linejoin="round"/>
<path d="M255.325 80.1855L295.949 106.458L345.6 37.7171L275.637 22.5422L336.416 50.4324L379.453 31.5988L345.6 37.7171L305.729 5.68588L275.637 22.5422L257.582 5.68588L255.325 80.1855Z" stroke="url(#paint9_linear_51_7191)" stroke-width="0.5" stroke-miterlimit="10" stroke-linecap="round" stroke-linejoin="round"/>
<path d="M345.6 37.717L379.453 5.68582" stroke="url(#paint10_linear_51_7191)" stroke-width="0.5" stroke-miterlimit="10" stroke-linecap="round" stroke-linejoin="round"/>
<path d="M233.861 170.521L212.263 147.487L208.958 194.274L233.861 170.521Z" stroke="url(#paint11_linear_51_7191)" stroke-width="0.5" stroke-miterlimit="10"/>
<path d="M362.526 151.086L341.839 110.777L366.664 51.0335L336.572 69.7484" stroke="url(#paint12_linear_51_7191)" stroke-width="0.5" stroke-miterlimit="10"/>
<path d="M326.793 140.289L323.784 96.7409L301.215 115.096L326.793 140.289Z" stroke="url(#paint13_linear_51_7191)" stroke-width="0.5" stroke-miterlimit="10"/>
<path d="M295.949 189.026L282.408 170.881L277.142 189.026H295.949Z" stroke="url(#paint14_linear_51_7191)" stroke-width="0.5" stroke-miterlimit="10"/>
<path d="M239.514 246.1L201.707 263.375L172.661 200.753L138.72 232.064" stroke="url(#paint15_linear_51_7191)" stroke-width="0.5" stroke-miterlimit="10"/>
<path d="M74.777 281.37L101.859 325.998L65.3733 307.283L74.777 281.37Z" stroke="url(#paint16_linear_51_7191)" stroke-width="0.5" stroke-miterlimit="10"/>
<path d="M208.132 346.872L233.861 303.684L183.786 313.402L208.132 346.872Z" stroke="url(#paint17_linear_51_7191)" stroke-width="0.5" stroke-miterlimit="10"/>
<g opacity="0.8">
<path d="M153.043 165.176C151.591 165.176 151.588 167.335 153.043 167.335C154.495 167.335 154.498 165.176 153.043 165.176Z" fill="white"/>
<path d="M132.424 94.2619C130.972 94.2619 130.969 96.4213 132.424 96.4213C133.876 96.4213 133.878 94.2619 132.424 94.2619Z" fill="white"/>
<path d="M54.9669 151.846C53.5149 151.846 53.5119 154.006 54.9669 154.006C56.4188 154.006 56.421 151.846 54.9669 151.846Z" fill="white"/>
<path d="M50.5079 183.304C49.056 183.304 49.0529 185.463 50.5079 185.463C51.9598 185.463 51.962 183.304 50.5079 183.304Z" fill="white"/>
<path d="M42.1495 179.038C40.6976 179.038 40.6945 181.198 42.1495 181.198C43.6014 181.198 43.6036 179.038 42.1495 179.038Z" fill="white"/>
<path d="M164.187 39.8765C162.735 39.8765 162.732 42.0359 164.187 42.0359C165.639 42.0359 165.642 39.8765 164.187 39.8765Z" fill="white"/>
<path d="M171.432 39.8765C169.98 39.8765 169.977 42.0359 171.432 42.0359C172.884 42.0359 172.886 39.8765 171.432 39.8765Z" fill="white"/>
<path d="M345.851 28.1466C344.399 28.1466 344.396 30.306 345.851 30.306C347.304 30.306 347.306 28.1466 345.851 28.1466Z" fill="white"/>
<path d="M339.164 21.7483C337.712 21.7483 337.709 23.9077 339.164 23.9077C340.616 23.9077 340.618 21.7483 339.164 21.7483Z" fill="white"/>
<path d="M14.2872 11.0844C12.8352 11.0844 12.8322 13.2438 14.2872 13.2438C15.7391 13.2438 15.7413 11.0844 14.2872 11.0844Z" fill="white"/>
<path d="M22.6456 18.0161C21.1936 18.0161 21.1906 20.1755 22.6456 20.1755C24.0975 20.1755 24.0997 18.0161 22.6456 18.0161Z" fill="white"/>
<path d="M49.393 70.268C47.9411 70.268 47.9381 72.4274 49.393 72.4274C50.8457 72.4274 50.848 70.268 49.393 70.268Z" fill="white"/>
<path d="M38.2475 59.0715C36.7956 59.0715 36.7926 61.231 38.2475 61.231C39.7002 61.231 39.7025 59.0715 38.2475 59.0715Z" fill="white"/>
<path d="M53.2944 64.4031C51.8425 64.4031 51.8395 66.5625 53.2944 66.5625C54.7471 66.5625 54.7493 64.4031 53.2944 64.4031Z" fill="white"/>
<path d="M216.569 132.118C215.117 132.118 215.114 134.277 216.569 134.277C218.021 134.277 218.024 132.118 216.569 132.118Z" fill="white"/>
<path d="M211.554 132.651C210.102 132.651 210.099 134.811 211.554 134.811C213.006 134.811 213.008 132.651 211.554 132.651Z" fill="white"/>
<path d="M301.271 113.99C299.819 113.99 299.817 116.149 301.271 116.149C302.724 116.149 302.726 113.99 301.271 113.99Z" fill="white"/>
<path d="M238.859 245.153C237.407 245.153 237.404 247.313 238.859 247.313C240.312 247.313 240.314 245.153 238.859 245.153Z" fill="white"/>
<path d="M74.4708 279.81C73.0188 279.81 73.0158 281.97 74.4708 281.97C75.9227 281.97 75.9249 279.81 74.4708 279.81Z" fill="white"/>
<path d="M183.134 312.335C181.682 312.335 181.679 314.495 183.134 314.495C184.585 314.495 184.588 312.335 183.134 312.335Z" fill="white"/>
<path d="M14.2872 208.364C12.8352 208.364 12.8322 210.523 14.2872 210.523C15.7391 210.523 15.7413 208.364 14.2872 208.364Z" fill="white"/>
<path d="M19.3022 212.096C17.8503 212.096 17.8473 214.255 19.3022 214.255C20.7549 214.255 20.7572 212.096 19.3022 212.096Z" fill="white"/>
<path d="M206.428 64.3499C204.976 64.3499 204.973 66.5093 206.428 66.5093C207.879 66.5093 207.882 64.3499 206.428 64.3499Z" fill="white"/>
<path d="M200.408 61.4705C198.956 61.4705 198.953 63.6299 200.408 63.6299C201.86 63.6299 201.863 61.4705 200.408 61.4705Z" fill="white"/>
<path d="M136.464 160.803C135.012 160.803 135.009 162.963 136.464 162.963C137.916 162.963 137.919 160.803 136.464 160.803Z" fill="white"/>
<path d="M125.179 145.688C123.728 145.688 123.725 147.847 125.179 147.847C126.631 147.847 126.634 145.688 125.179 145.688Z" fill="white"/>
<path d="M98.8494 167.282C97.3975 167.282 97.3945 169.441 98.8494 169.441C100.301 169.441 100.304 167.282 98.8494 167.282Z" fill="white"/>
<path d="M299.711 124.813C298.259 124.813 298.256 126.973 299.711 126.973C301.163 126.973 301.166 124.813 299.711 124.813Z" fill="white"/>
<path d="M341.839 108.978C340.387 108.978 340.384 111.137 341.839 111.137C343.291 111.137 343.294 108.978 341.839 108.978Z" fill="white"/>
<path d="M314.004 69.3883C312.552 69.3883 312.549 71.5477 314.004 71.5477C315.456 71.5477 315.459 69.3883 314.004 69.3883Z" fill="white"/>
<path d="M301.967 68.6687C300.515 68.6687 300.512 70.8281 301.967 70.8281C303.418 70.8281 303.422 68.6687 301.967 68.6687Z" fill="white"/>
<path d="M315.509 54.9924C314.057 54.9924 314.054 57.1519 315.509 57.1519C316.96 57.1519 316.963 54.9924 315.509 54.9924Z" fill="white"/>
<path d="M295.949 105.379C294.497 105.379 294.494 107.538 295.949 107.538C297.401 107.538 297.404 105.379 295.949 105.379Z" fill="white"/>
<path d="M145.492 268.054C144.04 268.054 144.037 270.214 145.492 270.214C146.944 270.214 146.947 268.054 145.492 268.054Z" fill="white"/>
</g>
<g opacity="0.8">
<path d="M161.318 166.882C159.866 166.882 159.863 169.041 161.318 169.041C162.77 169.041 162.773 166.882 161.318 166.882Z" fill="white"/>
<path d="M140.7 237.796C139.248 237.796 139.245 239.956 140.7 239.956C142.152 239.956 142.155 237.796 140.7 237.796Z" fill="white"/>
<path d="M63.2417 180.212C61.7898 180.212 61.7868 182.371 63.2417 182.371C64.6944 182.371 64.6966 180.212 63.2417 180.212Z" fill="white"/>
<path d="M58.7837 148.754C57.3318 148.754 57.3287 150.913 58.7837 150.913C60.2363 150.913 60.2386 148.754 58.7837 148.754Z" fill="white"/>
<path d="M50.4253 153.019C48.9734 153.019 48.9703 155.179 50.4253 155.179C51.8779 155.179 51.8802 153.019 50.4253 153.019Z" fill="white"/>
<path d="M172.463 292.181C171.011 292.181 171.008 294.34 172.463 294.34C173.915 294.34 173.917 292.181 172.463 292.181Z" fill="white"/>
<path d="M179.707 292.181C178.255 292.181 178.252 294.34 179.707 294.34C181.159 294.34 181.161 292.181 179.707 292.181Z" fill="white"/>
<path d="M354.127 303.912C352.675 303.912 352.672 306.071 354.127 306.071C355.579 306.071 355.582 303.912 354.127 303.912Z" fill="white"/>
<path d="M347.44 310.309C345.988 310.309 345.985 312.469 347.44 312.469C348.893 312.469 348.895 310.309 347.44 310.309Z" fill="white"/>
<path d="M22.562 320.973C21.1101 320.973 21.1071 323.133 22.562 323.133C24.0147 323.133 24.0169 320.973 22.562 320.973Z" fill="white"/>
<path d="M30.9214 314.042C29.4695 314.042 29.4664 316.202 30.9214 316.202C32.374 316.202 32.3763 314.042 30.9214 314.042Z" fill="white"/>
<path d="M57.6697 261.79C56.2178 261.79 56.2148 263.949 57.6697 263.949C59.1216 263.949 59.1246 261.79 57.6697 261.79Z" fill="white"/>
<path d="M46.5239 272.987C45.072 272.987 45.069 275.146 46.5239 275.146C47.9766 275.146 47.9788 272.987 46.5239 272.987Z" fill="white"/>
<path d="M61.5698 267.654C60.1179 267.654 60.1149 269.814 61.5698 269.814C63.0225 269.814 63.0247 267.654 61.5698 267.654Z" fill="white"/>
<path d="M224.845 199.94C223.393 199.94 223.39 202.099 224.845 202.099C226.298 202.099 226.3 199.94 224.845 199.94Z" fill="white"/>
<path d="M219.83 199.407C218.378 199.407 218.375 201.566 219.83 201.566C221.282 201.566 221.284 199.407 219.83 199.407Z" fill="white"/>
<path d="M309.547 218.068C308.095 218.068 308.092 220.227 309.547 220.227C310.999 220.227 311.001 218.068 309.547 218.068Z" fill="white"/>
<path d="M247.135 86.9042C245.683 86.9042 245.681 89.0636 247.135 89.0636C248.587 89.0636 248.589 86.9042 247.135 86.9042Z" fill="white"/>
<path d="M88.0118 52.2471C86.5599 52.2471 86.5568 54.4065 88.0118 54.4065C89.4637 54.4065 89.466 52.2471 88.0118 52.2471Z" fill="white"/>
<path d="M191.41 19.7227C189.958 19.7227 189.956 21.8821 191.41 21.8821C192.862 21.8821 192.864 19.7227 191.41 19.7227Z" fill="white"/>
<path d="M22.562 123.694C21.1101 123.694 21.1071 125.853 22.562 125.853C24.0147 125.853 24.0169 123.694 22.562 123.694Z" fill="white"/>
<path d="M27.5779 119.962C26.126 119.962 26.123 122.121 27.5779 122.121C29.0298 122.121 29.0328 119.962 27.5779 119.962Z" fill="white"/>
<path d="M214.703 267.708C213.251 267.708 213.249 269.867 214.703 269.867C216.155 269.867 216.157 267.708 214.703 267.708Z" fill="white"/>
<path d="M208.685 270.587C207.233 270.587 207.23 272.746 208.685 272.746C210.137 272.746 210.139 270.587 208.685 270.587Z" fill="white"/>
<path d="M144.74 171.254C143.288 171.254 143.285 173.414 144.74 173.414C146.192 173.414 146.194 171.254 144.74 171.254Z" fill="white"/>
<path d="M133.455 186.37C132.003 186.37 132 188.529 133.455 188.529C134.907 188.529 134.909 186.37 133.455 186.37Z" fill="white"/>
<path d="M107.125 164.776C105.673 164.776 105.67 166.935 107.125 166.935C108.577 166.935 108.579 164.776 107.125 164.776Z" fill="white"/>
<path d="M307.986 207.244C306.534 207.244 306.531 209.404 307.986 209.404C309.438 209.404 309.441 207.244 307.986 207.244Z" fill="white"/>
<path d="M350.115 223.08C348.663 223.08 348.66 225.239 350.115 225.239C351.567 225.239 351.569 223.08 350.115 223.08Z" fill="white"/>
<path d="M322.28 262.669C320.828 262.669 320.826 264.828 322.28 264.828C323.732 264.828 323.735 262.669 322.28 262.669Z" fill="white"/>
<path d="M310.244 263.389C308.792 263.389 308.789 265.548 310.244 265.548C311.696 265.548 311.698 263.389 310.244 263.389Z" fill="white"/>
<path d="M323.785 277.065C322.333 277.065 322.331 279.225 323.785 279.225C325.237 279.225 325.239 277.065 323.785 277.065Z" fill="white"/>
<path d="M304.225 226.679C302.773 226.679 302.77 228.838 304.225 228.838C305.677 228.838 305.679 226.679 304.225 226.679Z" fill="white"/>
<path d="M153.768 64.0037C152.316 64.0037 152.313 66.1631 153.768 66.1631C155.22 66.1631 155.222 64.0037 153.768 64.0037Z" fill="white"/>
</g>
<g opacity="0.5">
<path d="M47.1637 195.221C46.68 195.221 46.6785 195.941 47.1637 195.941C47.6482 195.941 47.6489 195.221 47.1637 195.221Z" fill="white"/>
<path d="M45.4918 187.756C45.0081 187.756 45.0066 188.476 45.4918 188.476C45.9763 188.476 45.9771 187.756 45.4918 187.756Z" fill="white"/>
<path d="M43.2633 191.489C42.7796 191.489 42.7781 192.208 43.2633 192.208C43.7478 192.208 43.7485 191.489 43.2633 191.489Z" fill="white"/>
<path d="M153.042 172.294C152.558 172.294 152.557 173.013 153.042 173.013C153.526 173.013 153.527 172.294 153.042 172.294Z" fill="white"/>
<path d="M147.469 172.827C146.985 172.827 146.984 173.547 147.469 173.547C147.953 173.547 147.953 172.827 147.469 172.827Z" fill="white"/>
<path d="M206.538 140.835C206.054 140.835 206.053 141.555 206.538 141.555C207.022 141.555 207.023 140.835 206.538 140.835Z" fill="white"/>
<path d="M197.065 124.84C196.581 124.84 196.58 125.56 197.065 125.56C197.548 125.56 197.549 124.84 197.065 124.84Z" fill="white"/>
<path d="M194.278 129.639C193.794 129.639 193.792 130.359 194.278 130.359C194.761 130.359 194.762 129.639 194.278 129.639Z" fill="white"/>
<path d="M189.263 126.973C188.78 126.973 188.778 127.692 189.263 127.692C189.748 127.692 189.749 126.973 189.263 126.973Z" fill="white"/>
<path d="M346.965 21.9347C346.481 21.9347 346.48 22.6545 346.965 22.6545C347.449 22.6545 347.45 21.9347 346.965 21.9347Z" fill="white"/>
<path d="M356.996 21.4014C356.512 21.4014 356.511 22.1212 356.996 22.1212C357.48 22.1212 357.481 21.4014 356.996 21.4014Z" fill="white"/>
<path d="M204.308 53.9257C203.825 53.9257 203.823 54.6455 204.308 54.6455C204.793 54.6455 204.793 53.9257 204.308 53.9257Z" fill="white"/>
<path d="M213.224 66.1896C212.741 66.1896 212.739 66.9094 213.224 66.9094C213.709 66.9094 213.709 66.1896 213.224 66.1896Z" fill="white"/>
<path d="M191.492 67.2558C191.008 67.2558 191.007 67.9756 191.492 67.9756C191.976 67.9756 191.977 67.2558 191.492 67.2558Z" fill="white"/>
<path d="M196.507 94.9819C196.023 94.9819 196.022 95.7017 196.507 95.7017C196.991 95.7017 196.992 94.9819 196.507 94.9819Z" fill="white"/>
<path d="M217.126 98.1806C216.642 98.1806 216.64 98.9004 217.126 98.9004C217.61 98.9004 217.611 98.1806 217.126 98.1806Z" fill="white"/>
<path d="M204.308 103.512C203.825 103.512 203.823 104.232 204.308 104.232C204.793 104.232 204.793 103.512 204.308 103.512Z" fill="white"/>
<path d="M268.95 101.913C268.466 101.913 268.465 102.632 268.95 102.632C269.434 102.632 269.435 101.913 268.95 101.913Z" fill="white"/>
<path d="M266.164 95.5145C265.68 95.5145 265.678 96.2343 266.164 96.2343C266.648 96.2343 266.649 95.5145 266.164 95.5145Z" fill="white"/>
<path d="M259.477 105.645C258.993 105.645 258.992 106.365 259.477 106.365C259.96 106.365 259.961 105.645 259.477 105.645Z" fill="white"/>
<path d="M318.546 123.774C318.062 123.774 318.061 124.494 318.546 124.494C319.03 124.494 319.031 123.774 318.546 123.774Z" fill="white"/>
<path d="M311.3 117.908C310.817 117.908 310.815 118.628 311.3 118.628C311.785 118.628 311.786 117.908 311.3 117.908Z" fill="white"/>
<path d="M308.515 129.639C308.031 129.639 308.03 130.359 308.515 130.359C308.999 130.359 308.999 129.639 308.515 129.639Z" fill="white"/>
<path d="M122.95 256.004C122.466 256.004 122.465 256.724 122.95 256.724C123.434 256.724 123.435 256.004 122.95 256.004Z" fill="white"/>
<path d="M119.608 155.231C119.124 155.231 119.122 155.951 119.608 155.951C120.091 155.951 120.092 155.231 119.608 155.231Z" fill="white"/>
<path d="M49.3922 106.712C48.9085 106.712 48.907 107.431 49.3922 107.431C49.8767 107.431 49.8774 106.712 49.3922 106.712Z" fill="white"/>
<path d="M44.9352 117.375C44.4515 117.375 44.45 118.095 44.9352 118.095C45.4197 118.095 45.4204 117.375 44.9352 117.375Z" fill="white"/>
<path d="M32.6754 112.043C32.1917 112.043 32.191 112.763 32.6754 112.763C33.1599 112.763 33.1607 112.043 32.6754 112.043Z" fill="white"/>
<path d="M42.7057 110.977C42.222 110.977 42.2205 111.697 42.7057 111.697C43.1902 111.697 43.1909 110.977 42.7057 110.977Z" fill="white"/>
<path d="M9.82833 155.231C9.34461 155.231 9.34311 155.951 9.82833 155.951C10.3121 155.951 10.3128 155.231 9.82833 155.231Z" fill="white"/>
<path d="M17.6295 154.165C17.1458 154.165 17.1451 154.885 17.6295 154.885C18.114 154.885 18.1148 154.165 17.6295 154.165Z" fill="white"/>
<path d="M80.0416 207.484C79.5579 207.484 79.5564 208.204 80.0416 208.204C80.5261 208.204 80.5269 207.484 80.0416 207.484Z" fill="white"/>
<path d="M72.2404 206.951C71.7567 206.951 71.7552 207.67 72.2404 207.67C72.7242 207.67 72.7249 206.951 72.2404 206.951Z" fill="white"/>
<path d="M88.4 216.548C87.9163 216.548 87.9148 217.268 88.4 217.268C88.8845 217.268 88.8853 216.548 88.4 216.548Z" fill="white"/>
<path d="M41.592 238.942C41.1083 238.942 41.1068 239.662 41.592 239.662C42.0757 239.662 42.0765 238.942 41.592 238.942Z" fill="white"/>
<path d="M36.5758 239.475C36.0921 239.475 36.0906 240.195 36.5758 240.195C37.0603 240.195 37.061 239.475 36.5758 239.475Z" fill="white"/>
<path d="M34.9039 244.807C34.4202 244.807 34.4195 245.527 34.9039 245.527C35.3884 245.527 35.3892 244.807 34.9039 244.807Z" fill="white"/>
<path d="M31.5608 230.944C31.077 230.944 31.0755 231.664 31.5608 231.664C32.0445 231.664 32.0452 230.944 31.5608 230.944Z" fill="white"/>
<path d="M24.3166 283.73C23.8329 283.73 23.8314 284.45 24.3166 284.45C24.8003 284.45 24.8011 283.73 24.3166 283.73Z" fill="white"/>
<path d="M33.2326 302.392C32.7489 302.392 32.7474 303.111 33.2326 303.111C33.7164 303.111 33.7171 302.392 33.2326 302.392Z" fill="white"/>
<path d="M147.748 116.895C147.264 116.895 147.262 117.615 147.748 117.615C148.232 117.615 148.233 116.895 147.748 116.895Z" fill="white"/>
<path d="M139.472 116.895C138.989 116.895 138.987 117.615 139.472 117.615C139.957 117.615 139.958 116.895 139.472 116.895Z" fill="white"/>
<path d="M84.5553 170.881C84.0716 170.881 84.0701 171.6 84.5553 171.6C85.0398 171.6 85.0405 170.881 84.5553 170.881Z" fill="white"/>
<path d="M73.2711 169.441C72.7874 169.441 72.7859 170.161 73.2711 170.161C73.7556 170.161 73.7564 169.441 73.2711 169.441Z" fill="white"/>
<path d="M90.5739 180.958C90.0901 180.958 90.0886 181.678 90.5739 181.678C91.0583 181.678 91.0591 180.958 90.5739 180.958Z" fill="white"/>
<path d="M41.6754 276.692C41.1917 276.692 41.191 277.411 41.6754 277.411C42.1599 277.411 42.1607 276.692 41.6754 276.692Z" fill="white"/>
<path d="M116.152 64.3497C115.668 64.3497 115.667 65.0695 116.152 65.0695C116.636 65.0695 116.637 64.3497 116.152 64.3497Z" fill="white"/>
<path d="M101.106 56.4321C100.622 56.4321 100.621 57.1519 101.106 57.1519C101.591 57.1519 101.591 56.4321 101.106 56.4321Z" fill="white"/>
<path d="M102.611 75.8666C102.127 75.8666 102.126 76.5864 102.611 76.5864C103.095 76.5864 103.096 75.8666 102.611 75.8666Z" fill="white"/>
<path d="M105.62 64.3497C105.136 64.3497 105.135 65.0695 105.62 65.0695C106.104 65.0695 106.105 64.3497 105.62 64.3497Z" fill="white"/>
<path d="M135.711 31.9585C135.227 31.9585 135.225 32.6783 135.711 32.6783C136.195 32.6783 136.196 31.9585 135.711 31.9585Z" fill="white"/>
<path d="M121.418 14.6835C120.934 14.6835 120.932 15.4033 121.418 15.4033C121.902 15.4033 121.903 14.6835 121.418 14.6835Z" fill="white"/>
<path d="M67.2526 52.8329C66.7689 52.8329 66.7673 53.5527 67.2526 53.5527C67.737 53.5527 67.7378 52.8329 67.2526 52.8329Z" fill="white"/>
<path d="M228.995 221.987C228.511 221.987 228.51 222.706 228.995 222.706C229.479 222.706 229.48 221.987 228.995 221.987Z" fill="white"/>
<path d="M211.693 220.547C211.209 220.547 211.209 221.267 211.693 221.267C212.177 221.267 212.178 220.547 211.693 220.547Z" fill="white"/>
<path d="M267.362 262.295C266.878 262.295 266.877 263.015 267.362 263.015C267.846 263.015 267.847 262.295 267.362 262.295Z" fill="white"/>
<path d="M274.884 314.841C274.401 314.841 274.4 315.561 274.884 315.561C275.369 315.561 275.37 314.841 274.884 314.841Z" fill="white"/>
<path d="M257.582 291.807C257.098 291.807 257.097 292.527 257.582 292.527C258.066 292.527 258.067 291.807 257.582 291.807Z" fill="white"/>
<path d="M275.636 322.039C275.153 322.039 275.152 322.759 275.636 322.759C276.121 322.759 276.122 322.039 275.636 322.039Z" fill="white"/>
<path d="M269.619 322.759C269.135 322.759 269.134 323.479 269.619 323.479C270.103 323.479 270.104 322.759 269.619 322.759Z" fill="white"/>
<path d="M316.26 299.725C315.777 299.725 315.776 300.445 316.26 300.445C316.745 300.445 316.746 299.725 316.26 299.725Z" fill="white"/>
<path d="M292.187 270.933C291.703 270.933 291.703 271.653 292.187 271.653C292.672 271.653 292.672 270.933 292.187 270.933Z" fill="white"/>
<path d="M335.82 280.291C335.336 280.291 335.335 281.01 335.82 281.01C336.304 281.01 336.305 280.291 335.82 280.291Z" fill="white"/>
<path d="M335.82 196.074C335.336 196.074 335.335 196.793 335.82 196.793C336.304 196.793 336.305 196.074 335.82 196.074Z" fill="white"/>
<path d="M317.013 157.204C316.53 157.204 316.529 157.924 317.013 157.924C317.498 157.924 317.499 157.204 317.013 157.204Z" fill="white"/>
<path d="M122.17 182.398C121.686 182.398 121.684 183.117 122.17 183.117C122.654 183.117 122.655 182.398 122.17 182.398Z" fill="white"/>
<path d="M112.39 177.359C111.907 177.359 111.905 178.079 112.39 178.079C112.875 178.079 112.875 177.359 112.39 177.359Z" fill="white"/>
<path d="M119.914 171.601C119.43 171.601 119.428 172.32 119.914 172.32C120.398 172.32 120.399 171.601 119.914 171.601Z" fill="white"/>
<path d="M162.794 54.2726C162.31 54.2726 162.308 54.9924 162.794 54.9924C163.278 54.9924 163.279 54.2726 162.794 54.2726Z" fill="white"/>
<path d="M136.464 45.6349C135.98 45.6349 135.978 46.3547 136.464 46.3547C136.948 46.3547 136.949 45.6349 136.464 45.6349Z" fill="white"/>
<path d="M123.674 33.3982C123.191 33.3982 123.189 34.118 123.674 34.118C124.159 34.118 124.16 33.3982 123.674 33.3982Z" fill="white"/>
<path d="M238.023 44.9151C237.539 44.9151 237.539 45.6349 238.023 45.6349C238.508 45.6349 238.508 44.9151 238.023 44.9151Z" fill="white"/>
</g>
<path d="M255.029 5.68589C255.029 4.29451 256.208 3.16658 257.662 3.16658C259.116 3.16658 260.295 4.29451 260.295 5.68589C260.295 7.07727 259.116 8.2052 257.662 8.2052C256.208 8.2052 255.029 7.07727 255.029 5.68589Z" stroke="white" stroke-width="0.5" stroke-miterlimit="10"/>
<path d="M256.267 5.68587C256.267 4.94879 256.892 4.35135 257.662 4.35135C258.432 4.35135 259.057 4.94879 259.057 5.68587C259.057 6.42295 258.432 7.02039 257.662 7.02039C256.892 7.02039 256.267 6.42295 256.267 5.68587Z" fill="white"/>
<path d="M206.761 127.273C206.761 126.112 207.745 125.17 208.959 125.17C210.172 125.17 211.155 126.112 211.155 127.273C211.155 128.434 210.171 129.375 208.959 129.375C207.746 129.375 206.761 128.434 206.761 127.273Z" stroke="white" stroke-width="0.5" stroke-miterlimit="10"/>
<path d="M207.794 127.273C207.794 126.658 208.315 126.159 208.957 126.159C209.601 126.159 210.121 126.658 210.121 127.273C210.121 127.887 209.6 128.386 208.957 128.386C208.315 128.386 207.794 127.887 207.794 127.273Z" fill="white"/>
<path d="M115.024 85.5841C115.024 84.1927 116.203 83.0648 117.657 83.0648C119.111 83.0648 120.29 84.1927 120.29 85.5841C120.29 86.9755 119.111 88.1034 117.657 88.1034C116.203 88.1034 115.024 86.9755 115.024 85.5841Z" stroke="white" stroke-width="0.5" stroke-miterlimit="10"/>
<path d="M116.262 85.5841C116.262 84.847 116.887 84.2495 117.657 84.2495C118.427 84.2495 119.052 84.847 119.052 85.5841C119.052 86.3211 118.427 86.9186 117.657 86.9186C116.887 86.9186 116.262 86.3211 116.262 85.5841Z" fill="white"/>
<path d="M252.693 80.1854C252.693 78.794 253.872 77.6661 255.326 77.6661C256.78 77.6661 257.959 78.794 257.959 80.1854C257.959 81.5768 256.78 82.7047 255.326 82.7047C253.872 82.7047 252.693 81.5768 252.693 80.1854Z" stroke="white" stroke-width="0.5" stroke-miterlimit="10"/>
<path d="M255.326 78.8511C254.556 78.8511 253.931 79.4486 253.931 80.1856C253.931 80.9227 254.556 81.5201 255.326 81.5201C256.096 81.5201 256.721 80.9227 256.721 80.1856C256.721 79.4486 256.096 78.8511 255.326 78.8511Z" fill="white"/>
<path d="M206.191 194.274C206.191 192.883 207.37 191.755 208.824 191.755C210.278 191.755 211.457 192.883 211.457 194.274C211.457 195.666 210.278 196.793 208.824 196.793C207.37 196.793 206.191 195.666 206.191 194.274Z" stroke="white" stroke-width="0.5" stroke-miterlimit="10"/>
<path d="M207.429 194.274C207.429 193.537 208.054 192.94 208.824 192.94C209.594 192.94 210.219 193.537 210.219 194.274C210.219 195.011 209.594 195.609 208.824 195.609C208.054 195.609 207.429 195.011 207.429 194.274Z" fill="white"/>
<path d="M0.675381 200.753C0.675381 199.361 1.85422 198.233 3.30839 198.233C4.76257 198.233 5.94141 199.361 5.94141 200.753C5.94141 202.144 4.76257 203.272 3.30839 203.272C1.85422 203.272 0.675381 202.144 0.675381 200.753Z" stroke="white" stroke-width="0.5" stroke-miterlimit="10"/>
<path d="M1.91363 200.753C1.91363 200.015 2.53803 199.418 3.30838 199.418C4.07872 199.418 4.70312 200.015 4.70312 200.753C4.70312 201.49 4.07872 202.087 3.30838 202.087C2.53803 202.087 1.91363 201.49 1.91363 200.753Z" fill="white"/>
<path d="M160.318 161.883C160.318 160.492 161.497 159.364 162.951 159.364C164.405 159.364 165.584 160.492 165.584 161.883C165.584 163.275 164.405 164.402 162.951 164.402C161.497 164.402 160.318 163.275 160.318 161.883Z" stroke="white" stroke-width="0.5" stroke-miterlimit="10"/>
<path d="M161.556 161.883C161.556 161.146 162.181 160.549 162.951 160.549C163.721 160.549 164.346 161.146 164.346 161.883C164.346 162.62 163.721 163.218 162.951 163.218C162.181 163.218 161.556 162.62 161.556 161.883Z" fill="white"/>
<path d="M272.206 22.5423C272.206 20.737 273.736 19.2744 275.622 19.2744C277.508 19.2744 279.037 20.7377 279.037 22.5423C279.037 24.3468 277.508 25.8102 275.622 25.8102C273.736 25.8102 272.206 24.3468 272.206 22.5423Z" stroke="white" stroke-width="0.5" stroke-miterlimit="10"/>
<path d="M273.813 22.5423C273.813 21.5864 274.623 20.8112 275.622 20.8112C276.621 20.8112 277.432 21.5864 277.432 22.5423C277.432 23.4982 276.621 24.2734 275.622 24.2734C274.623 24.2734 273.813 23.4982 273.813 22.5423Z" fill="white"/>
<path d="M342.185 37.7172C342.185 35.9119 343.714 34.4493 345.6 34.4493C347.486 34.4493 349.016 35.9127 349.016 37.7172C349.016 39.5217 347.486 40.9851 345.6 40.9851C343.714 40.9851 342.185 39.5225 342.185 37.7172Z" stroke="white" stroke-width="0.5" stroke-miterlimit="10"/>
<path d="M343.792 37.7172C343.792 36.7613 344.602 35.9861 345.601 35.9861C346.6 35.9861 347.41 36.7613 347.41 37.7172C347.41 38.6731 346.6 39.4484 345.601 39.4484C344.602 39.4484 343.792 38.6731 343.792 37.7172Z" fill="white"/>
<path d="M124.021 235.303C124.021 233.498 125.55 232.035 127.436 232.035C129.322 232.035 130.852 233.498 130.852 235.303C130.852 237.108 129.322 238.571 127.436 238.571C125.55 238.571 124.021 237.108 124.021 235.303Z" stroke="white" stroke-width="0.5" stroke-miterlimit="10"/>
<path d="M125.628 235.303C125.628 234.347 126.438 233.572 127.437 233.572C128.436 233.572 129.246 234.347 129.246 235.303C129.246 236.259 128.436 237.034 127.437 237.034C126.438 237.034 125.628 236.259 125.628 235.303Z" fill="white"/>
<path d="M35.8225 69.7484C35.8225 67.9432 37.352 66.4805 39.2379 66.4805C41.1239 66.4805 42.6533 67.9439 42.6533 69.7484C42.6533 71.553 41.1239 73.0164 39.2379 73.0164C37.352 73.0164 35.8225 71.5537 35.8225 69.7484Z" stroke="white" stroke-width="0.5" stroke-miterlimit="10"/>
<path d="M37.4284 69.7482C37.4284 68.7923 38.2386 68.0171 39.2376 68.0171C40.2367 68.0171 41.0469 68.7923 41.0469 69.7482C41.0469 70.7041 40.2367 71.4794 39.2376 71.4794C38.2386 71.4794 37.4284 70.7041 37.4284 69.7482Z" fill="white"/>
<path d="M34.3409 154.685C34.3409 152.097 36.5339 149.999 39.2384 149.999C41.9428 149.999 44.1357 152.097 44.1357 154.685C44.1357 157.273 41.9436 159.371 39.2384 159.371C36.5339 159.371 34.3409 157.273 34.3409 154.685Z" stroke="white" stroke-width="0.5" stroke-miterlimit="10"/>
<path d="M36.6437 154.685C36.6437 153.314 37.8052 152.202 39.2384 152.202C40.6715 152.202 41.833 153.314 41.833 154.685C41.833 156.056 40.6715 157.168 39.2384 157.168C37.8052 157.168 36.6437 156.056 36.6437 154.685Z" fill="white"/>
<path d="M152.07 88.1031C152.07 85.5154 154.263 83.4172 156.968 83.4172C159.672 83.4172 161.865 85.5154 161.865 88.1031C161.865 90.6908 159.673 92.7891 156.968 92.7891C154.263 92.7891 152.07 90.6908 152.07 88.1031Z" stroke="white" stroke-width="0.5" stroke-miterlimit="10"/>
<path d="M154.373 88.1033C154.373 86.7321 155.535 85.6207 156.968 85.6207C158.401 85.6207 159.562 86.7321 159.562 88.1033C159.562 89.4746 158.401 90.5859 156.968 90.5859C155.535 90.5859 154.373 89.4746 154.373 88.1033Z" fill="white"/>
<path d="M16.3761 251.139C16.3761 248.551 18.569 246.453 21.2735 246.453C23.978 246.453 26.1709 248.551 26.1709 251.139C26.1709 253.726 23.978 255.825 21.2735 255.825C18.569 255.825 16.3761 253.726 16.3761 251.139Z" stroke="white" stroke-width="0.5" stroke-miterlimit="10"/>
<path d="M18.6789 251.139C18.6789 249.767 19.8404 248.656 21.2735 248.656C22.7066 248.656 23.8682 249.767 23.8682 251.139C23.8682 252.51 22.7066 253.621 21.2735 253.621C19.8404 253.621 18.6789 252.51 18.6789 251.139Z" fill="white"/>
<path d="M83.6154 5.6859C83.6154 3.09821 85.8083 0.999981 88.5128 0.999981C91.2172 0.999981 93.4102 3.09821 93.4102 5.6859C93.4102 8.27359 91.218 10.3718 88.5128 10.3718C85.8083 10.3718 83.6154 8.27359 83.6154 5.6859Z" stroke="white" stroke-width="0.5" stroke-miterlimit="10"/>
<path d="M85.9181 5.68598C85.9181 4.31475 87.0797 3.20337 88.5128 3.20337C89.9459 3.20337 91.1074 4.31475 91.1074 5.68598C91.1074 7.0572 89.9459 8.16858 88.5128 8.16858C87.0797 8.16858 85.9181 7.0572 85.9181 5.68598Z" fill="white"/>
</g>
<defs>
<linearGradient id="paint0_linear_51_7191" x1="59.1666" y1="37.7171" x2="39.0503" y2="37.7171" gradientUnits="userSpaceOnUse">
<stop stop-color="#0098FF"/>
<stop offset="0.1601" stop-color="#0098FF" stop-opacity="0.7"/>
<stop offset="0.5723" stop-color="#0098FF" stop-opacity="0.7"/>
<stop offset="0.8615" stop-color="#E3FAF5"/>
<stop offset="1" stop-color="#F9FBFC"/>
</linearGradient>
<linearGradient id="paint1_linear_51_7191" x1="158.432" y1="80.1855" x2="1.84437" y2="80.1855" gradientUnits="userSpaceOnUse">
<stop stop-color="#0098FF"/>
<stop offset="0.1601" stop-color="#0098FF" stop-opacity="0.7"/>
<stop offset="0.5723" stop-color="#0098FF" stop-opacity="0.7"/>
<stop offset="0.8615" stop-color="#E3FAF5"/>
<stop offset="1" stop-color="#F9FBFC"/>
</linearGradient>
<linearGradient id="paint2_linear_51_7191" x1="158.652" y1="80.1855" x2="38.111" y2="80.1855" gradientUnits="userSpaceOnUse">
<stop stop-color="#0098FF"/>
<stop offset="0.1601" stop-color="#0098FF" stop-opacity="0.7"/>
<stop offset="0.5723" stop-color="#0098FF" stop-opacity="0.7"/>
<stop offset="0.8615" stop-color="#E3FAF5"/>
<stop offset="1" stop-color="#F9FBFC"/>
</linearGradient>
<linearGradient id="paint3_linear_51_7191" x1="39.5806" y1="202.912" x2="2.96648" y2="202.912" gradientUnits="userSpaceOnUse">
<stop stop-color="#0098FF"/>
<stop offset="0.1601" stop-color="#0098FF" stop-opacity="0.7"/>
<stop offset="0.5723" stop-color="#0098FF" stop-opacity="0.7"/>
<stop offset="0.8615" stop-color="#E3FAF5"/>
<stop offset="1" stop-color="#F9FBFC"/>
</linearGradient>
<linearGradient id="paint4_linear_51_7191" x1="128.619" y1="238.542" x2="2.1257" y2="238.542" gradientUnits="userSpaceOnUse">
<stop stop-color="#0098FF"/>
<stop offset="0.1601" stop-color="#0098FF" stop-opacity="0.7"/>
<stop offset="0.5723" stop-color="#0098FF" stop-opacity="0.7"/>
<stop offset="0.8615" stop-color="#E3FAF5"/>
<stop offset="1" stop-color="#F9FBFC"/>
</linearGradient>
<linearGradient id="paint5_linear_51_7191" x1="164.472" y1="160.444" x2="1.78777" y2="160.444" gradientUnits="userSpaceOnUse">
<stop stop-color="#0098FF"/>
<stop offset="0.1601" stop-color="#0098FF" stop-opacity="0.7"/>
<stop offset="0.5723" stop-color="#0098FF" stop-opacity="0.7"/>
<stop offset="0.8615" stop-color="#E3FAF5"/>
<stop offset="1" stop-color="#F9FBFC"/>
</linearGradient>
<linearGradient id="paint6_linear_51_7191" x1="209.452" y1="96.741" x2="156.472" y2="96.741" gradientUnits="userSpaceOnUse">
<stop stop-color="#0098FF"/>
<stop offset="0.1601" stop-color="#0098FF" stop-opacity="0.7"/>
<stop offset="0.5723" stop-color="#0098FF" stop-opacity="0.7"/>
<stop offset="0.8615" stop-color="#E3FAF5"/>
<stop offset="1" stop-color="#F9FBFC"/>
</linearGradient>
<linearGradient id="paint7_linear_51_7191" x1="146.753" y1="274.352" x2="20.0889" y2="274.352" gradientUnits="userSpaceOnUse">
<stop stop-color="#0098FF"/>
<stop offset="0.1601" stop-color="#0098FF" stop-opacity="0.7"/>
<stop offset="0.5723" stop-color="#0098FF" stop-opacity="0.7"/>
<stop offset="0.8615" stop-color="#E3FAF5"/>
<stop offset="1" stop-color="#F9FBFC"/>
</linearGradient>
<linearGradient id="paint8_linear_51_7191" x1="298.737" y1="189.026" x2="0.519419" y2="189.026" gradientUnits="userSpaceOnUse">
<stop stop-color="#0098FF"/>
<stop offset="0.1601" stop-color="#0098FF" stop-opacity="0.7"/>
<stop offset="0.5723" stop-color="#0098FF" stop-opacity="0.7"/>
<stop offset="0.8615" stop-color="#E3FAF5"/>
<stop offset="1" stop-color="#F9FBFC"/>
</linearGradient>
<linearGradient id="paint9_linear_51_7191" x1="380.636" y1="56.0721" x2="254.142" y2="56.0721" gradientUnits="userSpaceOnUse">
<stop stop-color="#0098FF"/>
<stop offset="0.1601" stop-color="#0098FF" stop-opacity="0.7"/>
<stop offset="0.5723" stop-color="#0098FF" stop-opacity="0.7"/>
<stop offset="0.8615" stop-color="#E3FAF5"/>
<stop offset="1" stop-color="#F9FBFC"/>
</linearGradient>
<linearGradient id="paint10_linear_51_7191" x1="379.776" y1="21.7014" x2="345.277" y2="21.7014" gradientUnits="userSpaceOnUse">
<stop stop-color="#0098FF"/>
<stop offset="0.1601" stop-color="#0098FF" stop-opacity="0.7"/>
<stop offset="0.5723" stop-color="#0098FF" stop-opacity="0.7"/>
<stop offset="0.8615" stop-color="#E3FAF5"/>
<stop offset="1" stop-color="#F9FBFC"/>
</linearGradient>
<linearGradient id="paint11_linear_51_7191" x1="234.099" y1="170.881" x2="208.72" y2="170.881" gradientUnits="userSpaceOnUse">
<stop stop-color="#0098FF"/>
<stop offset="0.1601" stop-color="#0098FF" stop-opacity="0.7"/>
<stop offset="0.5723" stop-color="#0098FF" stop-opacity="0.7"/>
<stop offset="0.8615" stop-color="#E3FAF5"/>
<stop offset="1" stop-color="#F9FBFC"/>
</linearGradient>
<linearGradient id="paint12_linear_51_7191" x1="366.951" y1="101.06" x2="336.286" y2="101.06" gradientUnits="userSpaceOnUse">
<stop stop-color="#0098FF"/>
<stop offset="0.1601" stop-color="#0098FF" stop-opacity="0.7"/>
<stop offset="0.5723" stop-color="#0098FF" stop-opacity="0.7"/>
<stop offset="0.8615" stop-color="#E3FAF5"/>
<stop offset="1" stop-color="#F9FBFC"/>
</linearGradient>
<linearGradient id="paint13_linear_51_7191" x1="327.037" y1="118.515" x2="300.971" y2="118.515" gradientUnits="userSpaceOnUse">
<stop stop-color="#0098FF"/>
<stop offset="0.1601" stop-color="#0098FF" stop-opacity="0.7"/>
<stop offset="0.5723" stop-color="#0098FF" stop-opacity="0.7"/>
<stop offset="0.8615" stop-color="#E3FAF5"/>
<stop offset="1" stop-color="#F9FBFC"/>
</linearGradient>
<linearGradient id="paint14_linear_51_7191" x1="296.128" y1="179.953" x2="276.963" y2="179.953" gradientUnits="userSpaceOnUse">
<stop stop-color="#0098FF"/>
<stop offset="0.1601" stop-color="#0098FF" stop-opacity="0.7"/>
<stop offset="0.5723" stop-color="#0098FF" stop-opacity="0.7"/>
<stop offset="0.8615" stop-color="#E3FAF5"/>
<stop offset="1" stop-color="#F9FBFC"/>
</linearGradient>
<linearGradient id="paint15_linear_51_7191" x1="240.474" y1="232.064" x2="137.76" y2="232.064" gradientUnits="userSpaceOnUse">
<stop stop-color="#0098FF"/>
<stop offset="0.1601" stop-color="#0098FF" stop-opacity="0.7"/>
<stop offset="0.5723" stop-color="#0098FF" stop-opacity="0.7"/>
<stop offset="0.8615" stop-color="#E3FAF5"/>
<stop offset="1" stop-color="#F9FBFC"/>
</linearGradient>
<linearGradient id="paint16_linear_51_7191" x1="102.207" y1="303.684" x2="65.0256" y2="303.684" gradientUnits="userSpaceOnUse">
<stop stop-color="#0098FF"/>
<stop offset="0.1601" stop-color="#0098FF" stop-opacity="0.7"/>
<stop offset="0.5723" stop-color="#0098FF" stop-opacity="0.7"/>
<stop offset="0.8615" stop-color="#E3FAF5"/>
<stop offset="1" stop-color="#F9FBFC"/>
</linearGradient>
<linearGradient id="paint17_linear_51_7191" x1="234.338" y1="325.278" x2="183.309" y2="325.278" gradientUnits="userSpaceOnUse">
<stop stop-color="#0098FF"/>
<stop offset="0.1601" stop-color="#0098FF" stop-opacity="0.7"/>
<stop offset="0.5723" stop-color="#0098FF" stop-opacity="0.7"/>
<stop offset="0.8615" stop-color="#E3FAF5"/>
<stop offset="1" stop-color="#F9FBFC"/>
</linearGradient>
</defs>
</svg>
