<svg width="20" height="12" viewBox="0 0 20 12" fill="none" xmlns="http://www.w3.org/2000/svg">
<path fill-rule="evenodd" clip-rule="evenodd" d="M11.0305 11.0605C10.757 11.3417 10.3862 11.4997 9.99948 11.4997C9.61279 11.4997 9.24192 11.3417 8.96844 11.0605L0.71865 2.57503C0.579364 2.43666 0.468265 2.27114 0.391835 2.08813C0.315405 1.90513 0.275175 1.7083 0.273493 1.50913C0.27181 1.30996 0.308709 1.11244 0.382035 0.928096C0.455361 0.743751 0.563647 0.576272 0.700574 0.435433C0.837501 0.294594 1.00033 0.183215 1.17955 0.107793C1.35877 0.0323719 1.55081 -0.00558034 1.74444 -0.00384961C1.93808 -0.00211889 2.12944 0.0392605 2.30736 0.117874C2.48529 0.196488 2.64621 0.31076 2.78073 0.454026L9.99948 7.87903L17.2182 0.454026C17.4933 0.180789 17.8617 0.029597 18.244 0.0330147C18.6264 0.0364323 18.9922 0.194185 19.2626 0.472298C19.5329 0.75041 19.6863 1.12663 19.6896 1.51992C19.693 1.91322 19.546 2.29212 19.2803 2.57503L11.0305 11.0605Z" fill="white"/>
</svg>
