<svg width="27" height="24" viewBox="0 0 27 24" fill="none" xmlns="http://www.w3.org/2000/svg">
<path d="M14.6373 24H2.0011C1.19664 24 0.544922 23.4068 0.544922 22.6753V1.32461C0.544922 0.592925 1.19674 0 2.0011 0H25.4725C26.2767 0 26.9286 0.592925 26.9286 1.32461V22.6753C26.9286 23.4069 26.2766 24 25.4725 24H18.7493V14.7059H22.1787L22.6923 11.0838H18.7493V8.77132C18.7493 7.72264 19.0694 7.00801 20.7226 7.00801L22.8311 7.00717V3.76755C22.4664 3.7234 21.2148 3.62478 19.7586 3.62478C16.7186 3.62478 14.6373 5.31276 14.6373 8.4126V11.0838H11.1991V14.7059H14.6373V24Z" fill="white"/>
</svg>
