<svg width="18" height="18" viewBox="0 0 18 18" fill="none" xmlns="http://www.w3.org/2000/svg">
<path fill-rule="evenodd" clip-rule="evenodd" d="M9 0.9375C8.469 0.9375 7.98675 1.08975 7.4625 1.344C6.957 1.59 6.372 1.953 5.64225 2.406L4.092 3.36825C3.402 3.79725 2.84775 4.14075 2.42175 4.467C1.98 4.8045 1.641 5.1495 1.39575 5.59725C1.15125 6.0435 1.04175 6.519 0.9885 7.08075C0.9375 7.6245 0.9375 8.2905 0.9375 9.12525V10.335C0.9375 11.763 0.9375 12.8902 1.05225 13.7715C1.16925 14.6753 1.41675 15.405 1.97475 15.9818C2.535 16.5615 3.2475 16.821 4.131 16.9432C4.986 17.0625 6.0795 17.0625 7.4565 17.0625H10.5435C11.9205 17.0625 13.014 17.0625 13.869 16.9432C14.7518 16.821 15.465 16.5615 16.026 15.9818C16.5833 15.405 16.8307 14.6753 16.9485 13.7715C17.0625 12.8902 17.0625 11.763 17.0625 10.335V9.12525C17.0625 8.2905 17.0625 7.62525 17.0115 7.08075C16.959 6.51825 16.8488 6.0435 16.6042 5.59725C16.359 5.1495 16.0192 4.80525 15.5782 4.467C15.1523 4.14 14.5988 3.79725 13.908 3.36825L12.3577 2.406C11.628 1.953 11.043 1.59 10.5367 1.344C10.014 1.089 9.53175 0.9375 9 0.9375ZM6.21 3.378C6.97125 2.9055 7.5075 2.574 7.95525 2.35575C8.391 2.1435 8.7 2.0625 9 2.0625C9.3 2.0625 9.609 2.1435 10.0448 2.35575C10.4932 2.57325 11.0288 2.9055 11.79 3.378L13.29 4.30875C14.0107 4.7565 14.517 5.07075 14.895 5.36025C15.2618 5.6415 15.4725 5.87325 15.6173 6.13725C15.762 6.402 15.8468 6.71175 15.891 7.18575C15.9367 7.67175 15.9375 8.2845 15.9375 9.153V10.2938C15.9375 11.7713 15.936 12.8257 15.8325 13.626C15.7305 14.412 15.5378 14.868 15.2175 15.2003C14.8988 15.5295 14.4652 15.7253 13.7145 15.8295C12.945 15.936 11.9303 15.9375 10.5 15.9375H7.5C6.069 15.9375 5.055 15.936 4.2855 15.8295C3.53475 15.7245 3.10125 15.5295 2.78325 15.1995C2.46225 14.868 2.2695 14.412 2.16825 13.626C2.06325 12.8257 2.0625 11.772 2.0625 10.2938V9.153C2.0625 8.2845 2.0625 7.67175 2.109 7.18575C2.15325 6.71175 2.238 6.402 2.38275 6.13725C2.5275 5.87325 2.73825 5.6415 3.10575 5.36025C3.483 5.07075 3.98925 4.7565 4.71 4.30875L6.21 3.378Z" fill="white"/>
</svg>
