<svg width="62" height="88" viewBox="0 0 62 88" fill="none" xmlns="http://www.w3.org/2000/svg">
<path d="M62 35.0861L61.9748 38.1917C61.9684 38.5742 61.9684 38.9499 61.9556 39.3263C61.5047 59.9231 53.6662 71.6584 47.0968 77.9106C39.6706 84.9817 32.1678 86.8206 31.8503 86.8983L31 87.1014L30.1433 86.8983C29.8258 86.8206 22.3235 84.9811 14.8968 77.9106C8.21277 71.5446 0.202936 59.4929 0.0251663 38.1911L0 35.5873L2.69118 34.9723C2.97069 34.9068 9.88927 33.1866 10.4665 27.4178C10.4665 27.4178 12.3074 30.5234 15.557 33.6762C13.3103 37.3729 9.59691 39.4272 7.0578 40.4602C8.20688 70.9644 26.6709 78.8414 31 80.2752C35.2654 78.8659 53.52 71.0966 54.9101 41.1174C49.1149 40.4186 36.928 38.3227 26.8294 32.4162C24.792 31.24 22.8435 29.8962 21.047 28.3792C19.0225 26.6712 17.3594 24.7901 16.0009 22.8729C10.8215 15.5932 10.0092 7.86555 9.97119 7.45921L9.45073 2.10225C11.3805 5.33882 15.1822 7.54244 19.5558 7.54244C24.4305 7.54244 28.6006 4.80704 30.2509 0.949341C31.9012 4.80704 36.0713 7.54244 40.946 7.54244C45.719 7.54244 49.8067 4.92087 51.5271 1.19412L51.5464 24.9027C47.9476 24.5441 44.5646 22.7768 44.5646 22.7768V12.3566C42.9272 12.9361 41.0167 13.3302 38.9284 13.2825C35.8946 13.2109 33.0444 12.2312 30.4356 10.3562C28.538 11.7416 25.7194 13.2464 22.2288 13.515C21.0229 13.6044 19.8294 13.545 18.6552 13.3296C19.9247 16.5607 22.089 20.43 25.7135 23.4879C29.4392 26.6351 34.0537 28.9281 38.643 30.5944C48.6715 34.2373 58.5608 34.8823 58.707 34.8884L62 35.0861Z" fill="#0098FF"/>
<path d="M32.4317 45.9554H27.0585L22.2533 52.0155V45.9554H17.4102V48.4418L23.3124 57.1865L27.0199 62.6707H32.7252L26.5798 53.3061L32.4317 45.9554Z" fill="#0098FF"/>
<path d="M17.4102 62.6707H22.2533L17.4102 54.5392V62.6707Z" fill="#0098FF"/>
<path d="M43.6221 60.1557L44.5897 54.4211H39.5312L43.6221 60.1557Z" fill="#0098FF"/>
<path d="M40.4803 45.9554H36.888H36.005C36.005 45.9554 30.2002 53.2627 30.2002 53.27C30.2002 53.2994 36.3456 62.7215 36.3456 62.7215L40.3658 62.6781L41.3547 62.6707L41.2144 62.4663L38.4515 58.4263L35.0883 53.5111L37.4593 50.2017L44.2649 50.2311V45.9554H40.4803Z" fill="#0098FF"/>
</svg>
