<svg width="24" height="22" viewBox="0 0 24 22" fill="none" xmlns="http://www.w3.org/2000/svg">
<path d="M17.6107 0.600586C19.1913 0.600586 20.7117 1.22527 21.8303 2.34616C22.95 3.46469 23.5758 4.97336 23.5758 6.55275V15.864C23.5758 19.1525 20.9003 21.8162 17.6107 21.8162H5.96688C2.67728 21.8162 0.00292969 19.1525 0.00292969 15.864V6.55275C0.00292969 3.26433 2.66549 0.600586 5.96688 0.600586H17.6107ZM18.9438 6.72954C18.6962 6.71658 18.4605 6.80026 18.2825 6.96527L12.968 11.2084C12.2844 11.7753 11.305 11.7753 10.6107 11.2084L5.30683 6.96527C4.94028 6.69418 4.43346 6.72954 4.12819 7.04778C3.80995 7.36601 3.7746 7.87283 4.04451 8.22642L4.19891 8.37965L9.56174 12.5638C10.2218 13.0824 11.0221 13.3653 11.8601 13.3653C12.6958 13.3653 13.5102 13.0824 14.1691 12.5638L19.4859 8.30893L19.5802 8.21464C19.8619 7.87283 19.8619 7.3778 19.5673 7.03599C19.4034 6.86037 19.1783 6.75312 18.9438 6.72954Z" fill="white" fill-opacity="0.7"/>
</svg>
