<svg width="1440" height="901" viewBox="0 0 1440 901" fill="none" xmlns="http://www.w3.org/2000/svg">
<g opacity="0.6" clip-path="url(#clip0_159_9648)">
<path d="M1.95161 814.124H-31.5977L-14.823 846.538L1.95161 814.124Z" fill="#0098FF" fill-opacity="0.1"/>
<path d="M1.95161 803.508L-14.823 771.087L-31.5977 803.508H1.95161Z" fill="#0098FF" fill-opacity="0.1"/>
<path d="M54.0109 898.883L35.0679 862.269L16.1191 898.883H54.0109Z" fill="#0098FF" fill-opacity="0.1"/>
<path d="M51.8366 814.124H18.293L35.0676 846.538L51.8366 814.124Z" fill="#0098FF" fill-opacity="0.1"/>
<path d="M51.8366 803.507L35.0676 771.087L18.293 803.507H51.8366Z" fill="#0098FF" fill-opacity="0.1"/>
<path d="M49.6696 721.435H20.4629L35.0691 749.657L49.6696 721.435Z" fill="#0098FF" fill-opacity="0.1"/>
<path d="M49.6696 708.125L35.0691 679.904L20.4629 708.125H49.6696Z" fill="#0098FF" fill-opacity="0.1"/>
<path d="M47.4953 612.743L35.0688 588.721L22.6367 612.743H47.4953Z" fill="#0098FF" fill-opacity="0.1"/>
<path d="M45.3266 536.059H24.8105L35.0686 555.887L45.3266 536.059Z" fill="#0098FF" fill-opacity="0.1"/>
<path d="M45.3266 517.367L35.0686 497.538L24.8105 517.367H45.3266Z" fill="#0098FF" fill-opacity="0.1"/>
<path d="M40.9777 326.603L35.0679 315.173L29.1523 326.603H40.9777Z" fill="#0098FF" fill-opacity="0.1"/>
<path d="M103.897 898.883L84.9538 862.269L66.0107 898.883H103.897Z" fill="#0098FF" fill-opacity="0.1"/>
<path d="M101.728 814.124H68.1787L84.9533 846.538L101.728 814.124Z" fill="#0098FF" fill-opacity="0.1"/>
<path d="M101.728 803.507L84.9533 771.087L68.1787 803.507H101.728Z" fill="#0098FF" fill-opacity="0.1"/>
<path d="M99.5546 708.125L84.9541 679.904L70.3535 708.125H99.5546Z" fill="#0098FF" fill-opacity="0.1"/>
<path d="M97.3867 628.747H72.5225L84.9546 652.769L97.3867 628.747Z" fill="#0098FF" fill-opacity="0.1"/>
<path d="M97.3867 612.743L84.9546 588.721L72.5225 612.743H97.3867Z" fill="#0098FF" fill-opacity="0.1"/>
<path d="M95.2124 536.059H74.6963L84.9543 555.888L95.2124 536.059Z" fill="#0098FF" fill-opacity="0.1"/>
<path d="M93.038 443.377H76.8701L84.9541 459L93.038 443.377Z" fill="#0098FF" fill-opacity="0.1"/>
<path d="M90.8691 350.689H79.0381L84.9536 362.118L90.8691 350.689Z" fill="#0098FF" fill-opacity="0.1"/>
<path d="M88.6948 258H81.2119L84.9533 265.23L88.6948 258Z" fill="#0098FF" fill-opacity="0.1"/>
<path d="M153.787 898.883L134.839 862.269L115.896 898.883H153.787Z" fill="#0098FF" fill-opacity="0.1"/>
<path d="M151.614 814.124H118.07L134.839 846.538L151.614 814.124Z" fill="#0098FF" fill-opacity="0.1"/>
<path d="M151.614 803.508L134.839 771.087L118.07 803.508H151.614Z" fill="#0098FF" fill-opacity="0.1"/>
<path d="M149.446 708.125L134.84 679.904L120.239 708.125H149.446Z" fill="#0098FF" fill-opacity="0.1"/>
<path d="M147.272 628.747H122.413L134.84 652.769L147.272 628.747Z" fill="#0098FF" fill-opacity="0.1"/>
<path d="M145.097 536.059H124.587L134.839 555.887L145.097 536.059Z" fill="#0098FF" fill-opacity="0.1"/>
<path d="M145.097 517.367L134.839 497.539L124.587 517.367H145.097Z" fill="#0098FF" fill-opacity="0.1"/>
<path d="M142.928 421.985L134.839 406.356L126.755 421.985H142.928Z" fill="#0098FF" fill-opacity="0.1"/>
<path d="M201.505 814.124H167.956L184.731 846.538L201.505 814.124Z" fill="#0098FF" fill-opacity="0.1"/>
<path d="M199.332 721.436H170.131L184.731 749.657L199.332 721.436Z" fill="#0098FF" fill-opacity="0.1"/>
<path d="M197.156 612.743L184.73 588.721L172.298 612.743H197.156Z" fill="#0098FF" fill-opacity="0.1"/>
<path d="M194.988 517.367L184.73 497.538L174.472 517.367H194.988Z" fill="#0098FF" fill-opacity="0.1"/>
<path d="M190.646 326.603L184.731 315.173L178.815 326.603H190.646Z" fill="#0098FF" fill-opacity="0.1"/>
<path d="M253.566 898.883L234.617 862.269L215.674 898.883H253.566Z" fill="#0098FF" fill-opacity="0.1"/>
<path d="M251.391 803.508L234.617 771.087L217.848 803.508H251.391Z" fill="#0098FF" fill-opacity="0.1"/>
<path d="M249.223 721.436H220.017L234.617 749.657L249.223 721.436Z" fill="#0098FF" fill-opacity="0.1"/>
<path d="M249.223 708.125L234.617 679.904L220.017 708.125H249.223Z" fill="#0098FF" fill-opacity="0.1"/>
<path d="M247.049 628.747H222.19L234.617 652.769L247.049 628.747Z" fill="#0098FF" fill-opacity="0.1"/>
<path d="M244.874 536.059H224.358L234.616 555.887L244.874 536.059Z" fill="#0098FF" fill-opacity="0.1"/>
<path d="M242.706 443.377H226.532L234.616 459L242.706 443.377Z" fill="#0098FF" fill-opacity="0.1"/>
<path d="M242.706 421.985L234.616 406.356L226.532 421.985H242.706Z" fill="#0098FF" fill-opacity="0.1"/>
<path d="M240.532 350.688H228.707L234.617 362.118L240.532 350.688Z" fill="#0098FF" fill-opacity="0.1"/>
<path d="M240.532 326.603L234.617 315.173L228.707 326.603H240.532Z" fill="#0098FF" fill-opacity="0.1"/>
<path d="M303.451 898.883L284.508 862.269L265.56 898.883H303.451Z" fill="#0098FF" fill-opacity="0.1"/>
<path d="M301.284 814.124H267.734L284.509 846.538L301.284 814.124Z" fill="#0098FF" fill-opacity="0.1"/>
<path d="M301.284 803.507L284.509 771.087L267.734 803.507H301.284Z" fill="#0098FF" fill-opacity="0.1"/>
<path d="M299.109 708.125L284.509 679.904L269.908 708.125H299.109Z" fill="#0098FF" fill-opacity="0.1"/>
<path d="M296.935 612.743L284.508 588.721L272.076 612.743H296.935Z" fill="#0098FF" fill-opacity="0.1"/>
<path d="M294.766 517.367L284.508 497.539L274.25 517.367H294.766Z" fill="#0098FF" fill-opacity="0.1"/>
<path d="M292.592 443.377H276.424L284.508 459L292.592 443.377Z" fill="#0098FF" fill-opacity="0.1"/>
<path d="M288.249 258H280.767L284.508 265.23L288.249 258Z" fill="#0098FF" fill-opacity="0.1"/>
<path d="M353.343 898.883L334.394 862.269L315.451 898.883H353.343Z" fill="#0098FF" fill-opacity="0.1"/>
<path d="M351.169 814.124H317.62L334.395 846.538L351.169 814.124Z" fill="#0098FF" fill-opacity="0.1"/>
<path d="M348.995 721.436H319.794L334.395 749.657L348.995 721.436Z" fill="#0098FF" fill-opacity="0.1"/>
<path d="M348.995 708.125L334.395 679.904L319.794 708.125H348.995Z" fill="#0098FF" fill-opacity="0.1"/>
<path d="M346.826 628.747H321.968L334.394 652.769L346.826 628.747Z" fill="#0098FF" fill-opacity="0.1"/>
<path d="M346.826 612.743L334.394 588.721L321.968 612.743H346.826Z" fill="#0098FF" fill-opacity="0.1"/>
<path d="M344.652 536.059H324.136L334.394 555.887L344.652 536.059Z" fill="#0098FF" fill-opacity="0.1"/>
<path d="M403.228 898.883L384.285 862.269L365.336 898.883H403.228Z" fill="#0098FF" fill-opacity="0.1"/>
<path d="M401.059 814.124H367.51L384.284 846.538L401.059 814.124Z" fill="#0098FF" fill-opacity="0.1"/>
<path d="M401.059 803.508L384.284 771.087L367.51 803.508H401.059Z" fill="#0098FF" fill-opacity="0.1"/>
<path d="M398.885 708.125L384.284 679.904L369.684 708.125H398.885Z" fill="#0098FF" fill-opacity="0.1"/>
<path d="M396.71 612.743L384.284 588.721L371.852 612.743H396.71Z" fill="#0098FF" fill-opacity="0.1"/>
<path d="M394.541 536.059H374.025L384.283 555.887L394.541 536.059Z" fill="#0098FF" fill-opacity="0.1"/>
<path d="M392.368 443.377H376.194L384.284 459L392.368 443.377Z" fill="#0098FF" fill-opacity="0.1"/>
<path d="M390.194 350.688H378.368L384.284 362.118L390.194 350.688Z" fill="#0098FF" fill-opacity="0.1"/>
<path d="M390.194 326.603L384.284 315.173L378.368 326.603H390.194Z" fill="#0098FF" fill-opacity="0.1"/>
<path d="M453.119 898.883L434.171 862.269L415.228 898.883H453.119Z" fill="#0098FF" fill-opacity="0.1"/>
<path d="M448.771 721.436H419.57L434.171 749.657L448.771 721.436Z" fill="#0098FF" fill-opacity="0.1"/>
<path d="M446.603 628.747H421.744L434.171 652.769L446.603 628.747Z" fill="#0098FF" fill-opacity="0.1"/>
<path d="M446.603 612.743L434.171 588.721L421.744 612.743H446.603Z" fill="#0098FF" fill-opacity="0.1"/>
<path d="M444.429 517.367L434.171 497.539L423.913 517.367H444.429Z" fill="#0098FF" fill-opacity="0.1"/>
<path d="M442.26 443.377H426.087L434.171 459L442.26 443.377Z" fill="#0098FF" fill-opacity="0.1"/>
<path d="M503.006 898.883L484.063 862.269L465.114 898.883H503.006Z" fill="#0098FF" fill-opacity="0.1"/>
<path d="M500.832 814.124H467.288L484.063 846.538L500.832 814.124Z" fill="#0098FF" fill-opacity="0.1"/>
<path d="M500.832 803.508L484.063 771.087L467.288 803.508H500.832Z" fill="#0098FF" fill-opacity="0.1"/>
<path d="M498.663 721.436H469.456L484.062 749.657L498.663 721.436Z" fill="#0098FF" fill-opacity="0.1"/>
<path d="M498.663 708.125L484.062 679.904L469.456 708.125H498.663Z" fill="#0098FF" fill-opacity="0.1"/>
<path d="M496.489 628.747H471.63L484.062 652.769L496.489 628.747Z" fill="#0098FF" fill-opacity="0.1"/>
<path d="M494.321 536.059H473.805L484.063 555.887L494.321 536.059Z" fill="#0098FF" fill-opacity="0.1"/>
<path d="M492.146 421.985L484.062 406.356L475.973 421.985H492.146Z" fill="#0098FF" fill-opacity="0.1"/>
<path d="M489.972 326.603L484.062 315.173L478.146 326.603H489.972Z" fill="#0098FF" fill-opacity="0.1"/>
<path d="M550.722 814.124H517.173L533.947 846.538L550.722 814.124Z" fill="#0098FF" fill-opacity="0.1"/>
<path d="M550.722 803.507L533.947 771.087L517.173 803.507H550.722Z" fill="#0098FF" fill-opacity="0.1"/>
<path d="M548.548 708.125L533.947 679.904L519.347 708.125H548.548Z" fill="#0098FF" fill-opacity="0.1"/>
<path d="M546.379 628.747H521.521L533.947 652.769L546.379 628.747Z" fill="#0098FF" fill-opacity="0.1"/>
<path d="M544.206 536.059H523.689L533.947 555.887L544.206 536.059Z" fill="#0098FF" fill-opacity="0.1"/>
<path d="M602.782 898.883L583.839 862.269L564.891 898.883H602.782Z" fill="#0098FF" fill-opacity="0.1"/>
<path d="M600.608 803.507L583.839 771.087L567.064 803.507H600.608Z" fill="#0098FF" fill-opacity="0.1"/>
<path d="M598.439 721.436H569.232L583.839 749.657L598.439 721.436Z" fill="#0098FF" fill-opacity="0.1"/>
<path d="M596.266 612.743L583.839 588.721L571.407 612.743H596.266Z" fill="#0098FF" fill-opacity="0.1"/>
<path d="M594.092 517.367L583.839 497.539L573.581 517.367H594.092Z" fill="#0098FF" fill-opacity="0.1"/>
<path d="M591.923 443.377H575.749L583.839 459L591.923 443.377Z" fill="#0098FF" fill-opacity="0.1"/>
<path d="M589.748 350.688H577.923L583.838 362.118L589.748 350.688Z" fill="#0098FF" fill-opacity="0.1"/>
<path d="M589.748 326.603L583.838 315.173L577.923 326.603H589.748Z" fill="#0098FF" fill-opacity="0.1"/>
<path d="M587.581 258H580.099L583.84 265.23L587.581 258Z" fill="#0098FF" fill-opacity="0.1"/>
<path d="M652.669 898.883L633.726 862.269L614.783 898.883H652.669Z" fill="#0098FF" fill-opacity="0.1"/>
<path d="M650.501 814.124H616.952L633.727 846.538L650.501 814.124Z" fill="#0098FF" fill-opacity="0.1"/>
<path d="M648.327 721.435H619.126L633.727 749.657L648.327 721.435Z" fill="#0098FF" fill-opacity="0.1"/>
<path d="M648.327 708.125L633.727 679.904L619.126 708.125H648.327Z" fill="#0098FF" fill-opacity="0.1"/>
<path d="M646.159 628.747H621.295L633.727 652.769L646.159 628.747Z" fill="#0098FF" fill-opacity="0.1"/>
<path d="M646.159 612.743L633.727 588.721L621.295 612.743H646.159Z" fill="#0098FF" fill-opacity="0.1"/>
<path d="M641.811 421.985L633.727 406.356L625.643 421.985H641.811Z" fill="#0098FF" fill-opacity="0.1"/>
<path d="M639.643 326.603L633.727 315.173L627.812 326.603H639.643Z" fill="#0098FF" fill-opacity="0.1"/>
<path d="M700.386 814.124H666.843L683.612 846.538L700.386 814.124Z" fill="#0098FF" fill-opacity="0.1"/>
<path d="M700.386 803.507L683.612 771.087L666.843 803.507H700.386Z" fill="#0098FF" fill-opacity="0.1"/>
<path d="M698.217 708.125L683.611 679.904L669.011 708.125H698.217Z" fill="#0098FF" fill-opacity="0.1"/>
<path d="M696.043 612.743L683.611 588.721L671.185 612.743H696.043Z" fill="#0098FF" fill-opacity="0.1"/>
<path d="M693.869 536.059H673.358L683.611 555.887L693.869 536.059Z" fill="#0098FF" fill-opacity="0.1"/>
<path d="M691.701 443.377H675.527L683.611 459L691.701 443.377Z" fill="#0098FF" fill-opacity="0.1"/>
<path d="M689.527 350.688H677.701L683.611 362.118L689.527 350.688Z" fill="#0098FF" fill-opacity="0.1"/>
<path d="M29.0686 858.597H-8.82324L10.1198 895.211L29.0686 858.597Z" fill="#0098FF" fill-opacity="0.1"/>
<path d="M26.8942 765.813H-6.64941L10.1196 798.228L26.8942 765.813Z" fill="#0098FF" fill-opacity="0.1"/>
<path d="M24.7273 673.03H-4.47949L10.1211 701.251L24.7273 673.03Z" fill="#0098FF" fill-opacity="0.1"/>
<path d="M22.5527 659.91L10.1206 635.882L-2.31152 659.91H22.5527Z" fill="#0098FF" fill-opacity="0.1"/>
<path d="M20.384 564.623L10.1203 544.795L-0.137695 564.623H20.384Z" fill="#0098FF" fill-opacity="0.1"/>
<path d="M20.3784 487.469H-0.137695L10.1203 507.291L20.3784 487.469Z" fill="#0098FF" fill-opacity="0.1"/>
<path d="M18.2094 469.336L10.1199 453.701L2.03027 469.336H18.2094Z" fill="#0098FF" fill-opacity="0.1"/>
<path d="M18.2097 394.691H2.03613L10.1201 410.314L18.2097 394.691Z" fill="#0098FF" fill-opacity="0.1"/>
<path d="M16.0417 374.05L10.1206 362.607L4.20508 374.05H16.0417Z" fill="#0098FF" fill-opacity="0.1"/>
<path d="M13.8681 278.763L10.1211 271.52L6.37402 278.763H13.8681Z" fill="#0098FF" fill-opacity="0.1"/>
<path d="M76.7856 850.49L60.011 818.069L43.2363 850.49H76.7856Z" fill="#0098FF" fill-opacity="0.1"/>
<path d="M74.611 755.197L60.0105 726.976L45.4043 755.197H74.611Z" fill="#0098FF" fill-opacity="0.1"/>
<path d="M72.4433 659.91L60.0112 635.882L47.5791 659.91H72.4433Z" fill="#0098FF" fill-opacity="0.1"/>
<path d="M72.4377 580.252H47.5791L60.0112 604.274L72.4377 580.252Z" fill="#0098FF" fill-opacity="0.1"/>
<path d="M68.1 469.336L60.0105 453.701L51.9209 469.336H68.1Z" fill="#0098FF" fill-opacity="0.1"/>
<path d="M68.0947 394.691H51.9268L60.0107 410.314L68.0947 394.691Z" fill="#0098FF" fill-opacity="0.1"/>
<path d="M128.846 858.597H90.9541L109.897 895.211L128.846 858.597Z" fill="#0098FF" fill-opacity="0.1"/>
<path d="M126.671 765.813H93.1221L109.897 798.228L126.671 765.813Z" fill="#0098FF" fill-opacity="0.1"/>
<path d="M124.504 755.197L109.897 726.976L95.2969 755.197H124.504Z" fill="#0098FF" fill-opacity="0.1"/>
<path d="M124.497 673.03H95.2959L109.896 701.251L124.497 673.03Z" fill="#0098FF" fill-opacity="0.1"/>
<path d="M120.155 487.469H99.6387L109.897 507.291L120.155 487.469Z" fill="#0098FF" fill-opacity="0.1"/>
<path d="M115.817 374.05L109.896 362.607L103.98 374.05H115.817Z" fill="#0098FF" fill-opacity="0.1"/>
<path d="M115.812 301.908H103.986L109.896 313.337L115.812 301.908Z" fill="#0098FF" fill-opacity="0.1"/>
<path d="M178.731 858.597H140.839L159.788 895.211L178.731 858.597Z" fill="#0098FF" fill-opacity="0.1"/>
<path d="M176.563 850.49L159.788 818.069L143.014 850.49H176.563Z" fill="#0098FF" fill-opacity="0.1"/>
<path d="M176.563 765.814H143.014L159.788 798.228L176.563 765.814Z" fill="#0098FF" fill-opacity="0.1"/>
<path d="M174.388 755.197L159.788 726.976L145.182 755.197H174.388Z" fill="#0098FF" fill-opacity="0.1"/>
<path d="M174.389 673.03H145.188L159.788 701.251L174.389 673.03Z" fill="#0098FF" fill-opacity="0.1"/>
<path d="M172.219 659.91L159.787 635.882L147.354 659.91H172.219Z" fill="#0098FF" fill-opacity="0.1"/>
<path d="M172.214 580.253H147.355L159.788 604.275L172.214 580.253Z" fill="#0098FF" fill-opacity="0.1"/>
<path d="M167.877 469.336L159.788 453.701L151.698 469.336H167.877Z" fill="#0098FF" fill-opacity="0.1"/>
<path d="M167.872 394.691H151.698L159.788 410.314L167.872 394.691Z" fill="#0098FF" fill-opacity="0.1"/>
<path d="M165.704 374.05L159.788 362.607L153.867 374.05H165.704Z" fill="#0098FF" fill-opacity="0.1"/>
<path d="M163.534 278.763L159.787 271.52L156.04 278.763H163.534Z" fill="#0098FF" fill-opacity="0.1"/>
<path d="M228.622 858.597H190.73L209.674 895.211L228.622 858.597Z" fill="#0098FF" fill-opacity="0.1"/>
<path d="M226.449 850.49L209.674 818.069L192.899 850.49H226.449Z" fill="#0098FF" fill-opacity="0.1"/>
<path d="M226.448 765.813H192.898L209.673 798.228L226.448 765.813Z" fill="#0098FF" fill-opacity="0.1"/>
<path d="M224.279 755.197L209.673 726.976L195.072 755.197H224.279Z" fill="#0098FF" fill-opacity="0.1"/>
<path d="M222.105 659.91L209.673 635.882L197.241 659.91H222.105Z" fill="#0098FF" fill-opacity="0.1"/>
<path d="M219.937 564.623L209.673 544.795L199.415 564.623H219.937Z" fill="#0098FF" fill-opacity="0.1"/>
<path d="M219.931 487.469H199.415L209.673 507.291L219.931 487.469Z" fill="#0098FF" fill-opacity="0.1"/>
<path d="M217.758 394.691H201.59L209.674 410.314L217.758 394.691Z" fill="#0098FF" fill-opacity="0.1"/>
<path d="M215.593 374.05L209.672 362.607L203.757 374.05H215.593Z" fill="#0098FF" fill-opacity="0.1"/>
<path d="M278.508 858.597H240.616L259.565 895.211L278.508 858.597Z" fill="#0098FF" fill-opacity="0.1"/>
<path d="M276.34 850.49L259.565 818.069L242.785 850.49H276.34Z" fill="#0098FF" fill-opacity="0.1"/>
<path d="M276.334 765.813H242.79L259.565 798.228L276.334 765.813Z" fill="#0098FF" fill-opacity="0.1"/>
<path d="M274.166 673.03H244.959L259.565 701.251L274.166 673.03Z" fill="#0098FF" fill-opacity="0.1"/>
<path d="M271.991 580.252H247.133L259.565 604.274L271.991 580.252Z" fill="#0098FF" fill-opacity="0.1"/>
<path d="M326.226 850.49L309.451 818.069L292.677 850.49H326.226Z" fill="#0098FF" fill-opacity="0.1"/>
<path d="M324.057 755.197L309.451 726.976L294.845 755.197H324.057Z" fill="#0098FF" fill-opacity="0.1"/>
<path d="M321.883 659.91L309.451 635.882L297.019 659.91H321.883Z" fill="#0098FF" fill-opacity="0.1"/>
<path d="M319.715 564.623L309.451 544.795L299.188 564.623H319.715Z" fill="#0098FF" fill-opacity="0.1"/>
<path d="M319.708 487.469H299.192L309.45 507.291L319.708 487.469Z" fill="#0098FF" fill-opacity="0.1"/>
<path d="M317.534 394.691H301.366L309.45 410.314L317.534 394.691Z" fill="#0098FF" fill-opacity="0.1"/>
<path d="M315.372 374.05L309.45 362.607L303.529 374.05H315.372Z" fill="#0098FF" fill-opacity="0.1"/>
<path d="M315.366 301.908H303.535L309.451 313.337L315.366 301.908Z" fill="#0098FF" fill-opacity="0.1"/>
<path d="M378.286 858.597H340.395L359.343 895.211L378.286 858.597Z" fill="#0098FF" fill-opacity="0.1"/>
<path d="M376.112 765.814H342.568L359.343 798.228L376.112 765.814Z" fill="#0098FF" fill-opacity="0.1"/>
<path d="M373.944 755.197L359.343 726.976L344.737 755.197H373.944Z" fill="#0098FF" fill-opacity="0.1"/>
<path d="M373.944 673.03H344.737L359.343 701.251L373.944 673.03Z" fill="#0098FF" fill-opacity="0.1"/>
<path d="M371.775 659.91L359.343 635.882L346.905 659.91H371.775Z" fill="#0098FF" fill-opacity="0.1"/>
<path d="M367.433 469.336L359.343 453.701L351.248 469.336H367.433Z" fill="#0098FF" fill-opacity="0.1"/>
<path d="M367.426 394.691H351.253L359.342 410.314L367.426 394.691Z" fill="#0098FF" fill-opacity="0.1"/>
<path d="M365.259 374.05L359.343 362.607L353.422 374.05H365.259Z" fill="#0098FF" fill-opacity="0.1"/>
<path d="M363.091 278.763L359.343 271.52L355.591 278.763H363.091Z" fill="#0098FF" fill-opacity="0.1"/>
<path d="M426.003 850.49L409.229 818.069L392.454 850.49H426.003Z" fill="#0098FF" fill-opacity="0.1"/>
<path d="M426.003 765.813H392.454L409.229 798.228L426.003 765.813Z" fill="#0098FF" fill-opacity="0.1"/>
<path d="M423.834 755.197L409.228 726.976L394.622 755.197H423.834Z" fill="#0098FF" fill-opacity="0.1"/>
<path d="M423.829 673.03H394.628L409.228 701.251L423.829 673.03Z" fill="#0098FF" fill-opacity="0.1"/>
<path d="M421.66 580.252H396.796L409.228 604.274L421.66 580.252Z" fill="#0098FF" fill-opacity="0.1"/>
<path d="M419.486 487.469H398.97L409.228 507.291L419.486 487.469Z" fill="#0098FF" fill-opacity="0.1"/>
<path d="M417.311 394.691H401.144L409.227 410.314L417.311 394.691Z" fill="#0098FF" fill-opacity="0.1"/>
<path d="M415.144 301.908H403.313L409.229 313.337L415.144 301.908Z" fill="#0098FF" fill-opacity="0.1"/>
<path d="M478.063 858.597H440.171L459.114 895.211L478.063 858.597Z" fill="#0098FF" fill-opacity="0.1"/>
<path d="M475.894 850.49L459.114 818.069L442.339 850.49H475.894Z" fill="#0098FF" fill-opacity="0.1"/>
<path d="M475.889 765.813H442.346L459.115 798.228L475.889 765.813Z" fill="#0098FF" fill-opacity="0.1"/>
<path d="M471.551 659.91L459.114 635.882L446.682 659.91H471.551Z" fill="#0098FF" fill-opacity="0.1"/>
<path d="M469.377 564.623L459.114 544.795L448.855 564.623H469.377Z" fill="#0098FF" fill-opacity="0.1"/>
<path d="M467.209 469.336L459.114 453.701L451.024 469.336H467.209Z" fill="#0098FF" fill-opacity="0.1"/>
<path d="M465.035 374.05L459.114 362.607L453.198 374.05H465.035Z" fill="#0098FF" fill-opacity="0.1"/>
<path d="M462.867 278.763L459.114 271.52L455.367 278.763H462.867Z" fill="#0098FF" fill-opacity="0.1"/>
<path d="M527.948 857.936H490.056L509.004 894.55L527.948 857.936Z" fill="#0098FF" fill-opacity="0.1"/>
<path d="M523.61 754.638L509.004 726.41L494.397 754.638H523.61Z" fill="#0098FF" fill-opacity="0.1"/>
<path d="M523.604 672.56H494.403L509.004 700.781L523.604 672.56Z" fill="#0098FF" fill-opacity="0.1"/>
<path d="M521.43 579.878H496.571L509.003 603.893L521.43 579.878Z" fill="#0098FF" fill-opacity="0.1"/>
<path d="M519.261 487.189H498.745L509.003 507.011L519.261 487.189Z" fill="#0098FF" fill-opacity="0.1"/>
<path d="M517.093 469.057L509.004 453.421L500.914 469.057H517.093Z" fill="#0098FF" fill-opacity="0.1"/>
<path d="M517.088 394.501H500.92L509.004 410.124L517.088 394.501Z" fill="#0098FF" fill-opacity="0.1"/>
<path d="M514.925 373.859L509.004 362.423L503.083 373.859H514.925Z" fill="#0098FF" fill-opacity="0.1"/>
<path d="M577.838 857.936H539.946L558.889 894.55L577.838 857.936Z" fill="#0098FF" fill-opacity="0.1"/>
<path d="M575.664 849.829L558.889 817.408L542.114 849.829H575.664Z" fill="#0098FF" fill-opacity="0.1"/>
<path d="M573.495 754.638L558.889 726.41L544.288 754.638H573.495Z" fill="#0098FF" fill-opacity="0.1"/>
<path d="M571.32 659.44L558.888 635.412L546.456 659.44H571.32Z" fill="#0098FF" fill-opacity="0.1"/>
<path d="M569.153 564.248L558.889 544.42L548.631 564.248H569.153Z" fill="#0098FF" fill-opacity="0.1"/>
<path d="M569.147 487.189H548.631L558.889 507.011L569.147 487.189Z" fill="#0098FF" fill-opacity="0.1"/>
<path d="M566.978 394.501H550.805L558.889 410.124L566.978 394.501Z" fill="#0098FF" fill-opacity="0.1"/>
<path d="M564.804 301.812H552.979L558.888 313.242L564.804 301.812Z" fill="#0098FF" fill-opacity="0.1"/>
<path d="M627.724 857.936H589.832L608.781 894.55L627.724 857.936Z" fill="#0098FF" fill-opacity="0.1"/>
<path d="M625.555 849.83L608.78 817.409L592.006 849.83H625.555Z" fill="#0098FF" fill-opacity="0.1"/>
<path d="M625.555 765.248H592.006L608.78 797.663L625.555 765.248Z" fill="#0098FF" fill-opacity="0.1"/>
<path d="M623.381 672.56H594.18L608.78 700.781L623.381 672.56Z" fill="#0098FF" fill-opacity="0.1"/>
<path d="M621.208 579.878H596.35L608.782 603.893L621.208 579.878Z" fill="#0098FF" fill-opacity="0.1"/>
<path d="M619.04 564.248L608.782 544.42L598.519 564.248H619.04Z" fill="#0098FF" fill-opacity="0.1"/>
<path d="M616.871 469.057L608.781 453.421L600.691 469.057H616.871Z" fill="#0098FF" fill-opacity="0.1"/>
<path d="M614.697 373.859L608.781 362.423L602.86 373.859H614.697Z" fill="#0098FF" fill-opacity="0.1"/>
<path d="M677.627 857.936H639.741L658.684 894.55L677.627 857.936Z" fill="#0098FF" fill-opacity="0.1"/>
<path d="M675.459 765.248H641.91L658.685 797.662L675.459 765.248Z" fill="#0098FF" fill-opacity="0.1"/>
<path d="M673.29 754.638L658.684 726.41L644.078 754.638H673.29Z" fill="#0098FF" fill-opacity="0.1"/>
<path d="M671.116 659.44L658.684 635.412L646.252 659.44H671.116Z" fill="#0098FF" fill-opacity="0.1"/>
<path d="M668.948 564.248L658.685 544.42L648.421 564.248H668.948Z" fill="#0098FF" fill-opacity="0.1"/>
<path d="M668.943 487.189H648.427L658.685 507.011L668.943 487.189Z" fill="#0098FF" fill-opacity="0.1"/>
<path d="M666.775 469.057L658.685 453.421L650.596 469.057H666.775Z" fill="#0098FF" fill-opacity="0.1"/>
<path d="M666.769 394.501H650.601L658.685 410.124L666.769 394.501Z" fill="#0098FF" fill-opacity="0.1"/>
<path d="M662.432 278.667L658.685 271.425L654.938 278.667H662.432Z" fill="#0098FF" fill-opacity="0.1"/>
<path d="M727.502 855.96H689.61L708.559 892.575L727.502 855.96Z" fill="#0098FF" fill-opacity="0.1"/>
<path d="M725.334 847.854L708.56 815.433L691.785 847.854H725.334Z" fill="#0098FF" fill-opacity="0.1"/>
<path d="M725.329 763.558H691.785L708.56 795.973L725.329 763.558Z" fill="#0098FF" fill-opacity="0.1"/>
<path d="M723.16 752.942L708.559 724.72L693.953 752.942H723.16Z" fill="#0098FF" fill-opacity="0.1"/>
<path d="M723.16 671.149H693.959L708.56 699.371L723.16 671.149Z" fill="#0098FF" fill-opacity="0.1"/>
<path d="M720.992 658.03L708.56 634.001L696.128 658.03H720.992Z" fill="#0098FF" fill-opacity="0.1"/>
<path d="M720.987 578.747H696.128L708.56 602.769L720.987 578.747Z" fill="#0098FF" fill-opacity="0.1"/>
<path d="M718.817 563.118L708.559 543.289L698.295 563.118H718.817Z" fill="#0098FF" fill-opacity="0.1"/>
<path d="M718.817 486.344H698.301L708.559 506.167L718.817 486.344Z" fill="#0098FF" fill-opacity="0.1"/>
<path d="M716.648 468.206L708.558 452.576L700.469 468.206H716.648Z" fill="#0098FF" fill-opacity="0.1"/>
<path d="M716.643 393.935H700.47L708.559 409.564L716.643 393.935Z" fill="#0098FF" fill-opacity="0.1"/>
<path d="M714.475 373.3L708.56 361.858L702.639 373.3H714.475Z" fill="#0098FF" fill-opacity="0.1"/>
<path d="M714.469 301.533H702.644L708.559 312.963L714.469 301.533Z" fill="#0098FF" fill-opacity="0.1"/>
<path d="M712.307 278.388L708.56 271.145L704.812 278.388H712.307Z" fill="#0098FF" fill-opacity="0.1"/>
<path d="M751.299 898.883L732.356 862.269L713.407 898.883H751.299Z" fill="#0098FF" fill-opacity="0.1"/>
<path d="M749.127 803.508L732.358 771.087L715.583 803.508H749.127Z" fill="#0098FF" fill-opacity="0.1"/>
<path d="M746.959 721.435H717.752L732.358 749.657L746.959 721.435Z" fill="#0098FF" fill-opacity="0.1"/>
<path d="M744.784 628.747H719.926L732.358 652.769L744.784 628.747Z" fill="#0098FF" fill-opacity="0.1"/>
<path d="M742.616 536.059H722.1L732.358 555.888L742.616 536.059Z" fill="#0098FF" fill-opacity="0.1"/>
<path d="M740.441 443.377H724.268L732.357 459L740.441 443.377Z" fill="#0098FF" fill-opacity="0.1"/>
<path d="M736.098 258H728.615L732.357 265.23L736.098 258Z" fill="#0098FF" fill-opacity="0.1"/>
<path d="M799.016 814.124H765.467L782.241 846.538L799.016 814.124Z" fill="#0098FF" fill-opacity="0.1"/>
<path d="M799.016 803.507L782.241 771.087L765.467 803.507H799.016Z" fill="#0098FF" fill-opacity="0.1"/>
<path d="M796.842 721.436H767.641L782.241 749.657L796.842 721.436Z" fill="#0098FF" fill-opacity="0.1"/>
<path d="M794.674 628.747H769.815L782.242 652.769L794.674 628.747Z" fill="#0098FF" fill-opacity="0.1"/>
<path d="M794.674 612.743L782.242 588.721L769.815 612.743H794.674Z" fill="#0098FF" fill-opacity="0.1"/>
<path d="M790.325 421.985L782.241 406.356L774.157 421.985H790.325Z" fill="#0098FF" fill-opacity="0.1"/>
<path d="M788.156 326.603L782.241 315.173L776.325 326.603H788.156Z" fill="#0098FF" fill-opacity="0.1"/>
<path d="M851.076 898.883L832.133 862.269L813.185 898.883H851.076Z" fill="#0098FF" fill-opacity="0.1"/>
<path d="M848.902 814.124H815.358L832.133 846.538L848.902 814.124Z" fill="#0098FF" fill-opacity="0.1"/>
<path d="M848.902 803.507L832.133 771.087L815.358 803.507H848.902Z" fill="#0098FF" fill-opacity="0.1"/>
<path d="M846.734 721.435H817.527L832.134 749.657L846.734 721.435Z" fill="#0098FF" fill-opacity="0.1"/>
<path d="M846.734 708.125L832.134 679.904L817.527 708.125H846.734Z" fill="#0098FF" fill-opacity="0.1"/>
<path d="M844.56 612.743L832.133 588.721L819.701 612.743H844.56Z" fill="#0098FF" fill-opacity="0.1"/>
<path d="M842.385 536.059H821.875L832.133 555.887L842.385 536.059Z" fill="#0098FF" fill-opacity="0.1"/>
<path d="M842.385 517.367L832.133 497.538L821.875 517.367H842.385Z" fill="#0098FF" fill-opacity="0.1"/>
<path d="M838.042 326.603L832.132 315.173L826.217 326.603H838.042Z" fill="#0098FF" fill-opacity="0.1"/>
<path d="M900.961 898.883L882.018 862.269L863.075 898.883H900.961Z" fill="#0098FF" fill-opacity="0.1"/>
<path d="M898.793 814.124H865.244L882.019 846.538L898.793 814.124Z" fill="#0098FF" fill-opacity="0.1"/>
<path d="M898.793 803.507L882.019 771.087L865.244 803.507H898.793Z" fill="#0098FF" fill-opacity="0.1"/>
<path d="M896.619 708.125L882.019 679.904L867.418 708.125H896.619Z" fill="#0098FF" fill-opacity="0.1"/>
<path d="M894.45 628.747H869.586L882.018 652.769L894.45 628.747Z" fill="#0098FF" fill-opacity="0.1"/>
<path d="M894.45 612.743L882.018 588.721L869.586 612.743H894.45Z" fill="#0098FF" fill-opacity="0.1"/>
<path d="M892.277 536.059H871.761L882.019 555.888L892.277 536.059Z" fill="#0098FF" fill-opacity="0.1"/>
<path d="M890.102 443.377H873.935L882.018 459L890.102 443.377Z" fill="#0098FF" fill-opacity="0.1"/>
<path d="M887.934 350.689H876.103L882.018 362.118L887.934 350.689Z" fill="#0098FF" fill-opacity="0.1"/>
<path d="M885.76 258H878.277L882.019 265.23L885.76 258Z" fill="#0098FF" fill-opacity="0.1"/>
<path d="M950.853 898.883L931.904 862.269L912.961 898.883H950.853Z" fill="#0098FF" fill-opacity="0.1"/>
<path d="M948.678 814.124H915.135L931.904 846.538L948.678 814.124Z" fill="#0098FF" fill-opacity="0.1"/>
<path d="M948.678 803.507L931.904 771.087L915.135 803.507H948.678Z" fill="#0098FF" fill-opacity="0.1"/>
<path d="M946.509 708.125L931.903 679.904L917.303 708.125H946.509Z" fill="#0098FF" fill-opacity="0.1"/>
<path d="M944.335 628.747H919.477L931.903 652.769L944.335 628.747Z" fill="#0098FF" fill-opacity="0.1"/>
<path d="M942.162 536.059H921.651L931.904 555.887L942.162 536.059Z" fill="#0098FF" fill-opacity="0.1"/>
<path d="M942.162 517.367L931.904 497.539L921.651 517.367H942.162Z" fill="#0098FF" fill-opacity="0.1"/>
<path d="M939.993 421.985L931.903 406.356L923.819 421.985H939.993Z" fill="#0098FF" fill-opacity="0.1"/>
<path d="M998.572 814.124H965.022L981.797 846.538L998.572 814.124Z" fill="#0098FF" fill-opacity="0.1"/>
<path d="M996.397 721.436H967.196L981.797 749.657L996.397 721.436Z" fill="#0098FF" fill-opacity="0.1"/>
<path d="M994.223 612.743L981.796 588.721L969.364 612.743H994.223Z" fill="#0098FF" fill-opacity="0.1"/>
<path d="M992.054 517.367L981.796 497.538L971.538 517.367H992.054Z" fill="#0098FF" fill-opacity="0.1"/>
<path d="M987.712 326.603L981.796 315.173L975.881 326.603H987.712Z" fill="#0098FF" fill-opacity="0.1"/>
<path d="M1050.63 898.883L1031.68 862.269L1012.74 898.883H1050.63Z" fill="#0098FF" fill-opacity="0.1"/>
<path d="M1048.46 803.507L1031.68 771.087L1014.91 803.507H1048.46Z" fill="#0098FF" fill-opacity="0.1"/>
<path d="M1046.29 721.435H1017.08L1031.68 749.657L1046.29 721.435Z" fill="#0098FF" fill-opacity="0.1"/>
<path d="M1046.29 708.125L1031.68 679.904L1017.08 708.125H1046.29Z" fill="#0098FF" fill-opacity="0.1"/>
<path d="M1044.11 628.747H1019.26L1031.68 652.769L1044.11 628.747Z" fill="#0098FF" fill-opacity="0.1"/>
<path d="M1041.94 536.059H1021.42L1031.68 555.887L1041.94 536.059Z" fill="#0098FF" fill-opacity="0.1"/>
<path d="M1039.77 443.377H1023.6L1031.68 459L1039.77 443.377Z" fill="#0098FF" fill-opacity="0.1"/>
<path d="M1039.77 421.985L1031.68 406.356L1023.6 421.985H1039.77Z" fill="#0098FF" fill-opacity="0.1"/>
<path d="M1037.6 350.688H1025.77L1031.68 362.118L1037.6 350.688Z" fill="#0098FF" fill-opacity="0.1"/>
<path d="M1037.6 326.603L1031.68 315.173L1025.77 326.603H1037.6Z" fill="#0098FF" fill-opacity="0.1"/>
<path d="M1100.52 898.883L1081.57 862.269L1062.62 898.883H1100.52Z" fill="#0098FF" fill-opacity="0.1"/>
<path d="M1098.35 814.124H1064.8L1081.57 846.538L1098.35 814.124Z" fill="#0098FF" fill-opacity="0.1"/>
<path d="M1098.35 803.507L1081.57 771.087L1064.8 803.507H1098.35Z" fill="#0098FF" fill-opacity="0.1"/>
<path d="M1096.17 708.125L1081.57 679.904L1066.97 708.125H1096.17Z" fill="#0098FF" fill-opacity="0.1"/>
<path d="M1094 612.743L1081.57 588.721L1069.14 612.743H1094Z" fill="#0098FF" fill-opacity="0.1"/>
<path d="M1091.83 517.367L1081.57 497.539L1071.31 517.367H1091.83Z" fill="#0098FF" fill-opacity="0.1"/>
<path d="M1089.66 443.377H1073.49L1081.57 459L1089.66 443.377Z" fill="#0098FF" fill-opacity="0.1"/>
<path d="M1085.31 258H1077.83L1081.57 265.23L1085.31 258Z" fill="#0098FF" fill-opacity="0.1"/>
<path d="M1150.41 898.883L1131.46 862.269L1112.52 898.883H1150.41Z" fill="#0098FF" fill-opacity="0.1"/>
<path d="M1148.23 814.124H1114.68L1131.46 846.538L1148.23 814.124Z" fill="#0098FF" fill-opacity="0.1"/>
<path d="M1146.06 721.435H1116.86L1131.46 749.657L1146.06 721.435Z" fill="#0098FF" fill-opacity="0.1"/>
<path d="M1146.06 708.125L1131.46 679.904L1116.86 708.125H1146.06Z" fill="#0098FF" fill-opacity="0.1"/>
<path d="M1143.89 628.747H1119.03L1131.46 652.769L1143.89 628.747Z" fill="#0098FF" fill-opacity="0.1"/>
<path d="M1143.89 612.743L1131.46 588.721L1119.03 612.743H1143.89Z" fill="#0098FF" fill-opacity="0.1"/>
<path d="M1141.72 536.059H1121.2L1131.46 555.887L1141.72 536.059Z" fill="#0098FF" fill-opacity="0.1"/>
<path d="M1200.29 898.883L1181.35 862.269L1162.4 898.883H1200.29Z" fill="#0098FF" fill-opacity="0.1"/>
<path d="M1198.13 814.124H1164.58L1181.35 846.538L1198.13 814.124Z" fill="#0098FF" fill-opacity="0.1"/>
<path d="M1198.13 803.507L1181.35 771.087L1164.58 803.507H1198.13Z" fill="#0098FF" fill-opacity="0.1"/>
<path d="M1195.95 708.125L1181.35 679.904L1166.75 708.125H1195.95Z" fill="#0098FF" fill-opacity="0.1"/>
<path d="M1193.78 612.743L1181.35 588.721L1168.92 612.743H1193.78Z" fill="#0098FF" fill-opacity="0.1"/>
<path d="M1191.61 536.059H1171.09L1181.35 555.887L1191.61 536.059Z" fill="#0098FF" fill-opacity="0.1"/>
<path d="M1189.44 443.377H1173.26L1181.35 459L1189.44 443.377Z" fill="#0098FF" fill-opacity="0.1"/>
<path d="M1187.26 350.688H1175.44L1181.35 362.118L1187.26 350.688Z" fill="#0098FF" fill-opacity="0.1"/>
<path d="M1187.26 326.603L1181.35 315.173L1175.44 326.603H1187.26Z" fill="#0098FF" fill-opacity="0.1"/>
<path d="M1250.18 898.883L1231.24 862.269L1212.29 898.883H1250.18Z" fill="#0098FF" fill-opacity="0.1"/>
<path d="M1245.84 721.436H1216.64L1231.24 749.657L1245.84 721.436Z" fill="#0098FF" fill-opacity="0.1"/>
<path d="M1243.67 628.747H1218.81L1231.24 652.769L1243.67 628.747Z" fill="#0098FF" fill-opacity="0.1"/>
<path d="M1243.67 612.743L1231.24 588.721L1218.81 612.743H1243.67Z" fill="#0098FF" fill-opacity="0.1"/>
<path d="M1241.49 517.367L1231.24 497.539L1220.98 517.367H1241.49Z" fill="#0098FF" fill-opacity="0.1"/>
<path d="M1239.32 443.377H1223.15L1231.24 459L1239.32 443.377Z" fill="#0098FF" fill-opacity="0.1"/>
<path d="M1300.07 898.883L1281.13 862.269L1262.18 898.883H1300.07Z" fill="#0098FF" fill-opacity="0.1"/>
<path d="M1297.9 814.124H1264.35L1281.13 846.538L1297.9 814.124Z" fill="#0098FF" fill-opacity="0.1"/>
<path d="M1297.9 803.507L1281.13 771.087L1264.35 803.507H1297.9Z" fill="#0098FF" fill-opacity="0.1"/>
<path d="M1295.73 721.435H1266.52L1281.13 749.657L1295.73 721.435Z" fill="#0098FF" fill-opacity="0.1"/>
<path d="M1295.73 708.125L1281.13 679.904L1266.52 708.125H1295.73Z" fill="#0098FF" fill-opacity="0.1"/>
<path d="M1293.55 628.747H1268.69L1281.13 652.769L1293.55 628.747Z" fill="#0098FF" fill-opacity="0.1"/>
<path d="M1291.38 536.059H1270.87L1281.13 555.887L1291.38 536.059Z" fill="#0098FF" fill-opacity="0.1"/>
<path d="M1289.21 421.985L1281.13 406.356L1273.04 421.985H1289.21Z" fill="#0098FF" fill-opacity="0.1"/>
<path d="M1287.04 326.603L1281.13 315.173L1275.21 326.603H1287.04Z" fill="#0098FF" fill-opacity="0.1"/>
<path d="M1347.79 814.124H1314.24L1331.02 846.538L1347.79 814.124Z" fill="#0098FF" fill-opacity="0.1"/>
<path d="M1347.79 803.507L1331.02 771.087L1314.24 803.507H1347.79Z" fill="#0098FF" fill-opacity="0.1"/>
<path d="M1345.62 708.125L1331.02 679.904L1316.42 708.125H1345.62Z" fill="#0098FF" fill-opacity="0.1"/>
<path d="M1343.45 628.747H1318.59L1331.02 652.769L1343.45 628.747Z" fill="#0098FF" fill-opacity="0.1"/>
<path d="M1341.28 536.059H1320.76L1331.02 555.887L1341.28 536.059Z" fill="#0098FF" fill-opacity="0.1"/>
<path d="M1399.85 898.883L1380.9 862.269L1361.96 898.883H1399.85Z" fill="#0098FF" fill-opacity="0.1"/>
<path d="M1397.67 803.507L1380.9 771.087L1364.13 803.507H1397.67Z" fill="#0098FF" fill-opacity="0.1"/>
<path d="M1395.5 721.436H1366.3L1380.9 749.657L1395.5 721.436Z" fill="#0098FF" fill-opacity="0.1"/>
<path d="M1393.33 612.743L1380.9 588.721L1368.47 612.743H1393.33Z" fill="#0098FF" fill-opacity="0.1"/>
<path d="M1391.16 517.367L1380.9 497.539L1370.65 517.367H1391.16Z" fill="#0098FF" fill-opacity="0.1"/>
<path d="M1388.99 443.377H1372.81L1380.9 459L1388.99 443.377Z" fill="#0098FF" fill-opacity="0.1"/>
<path d="M1386.81 350.688H1374.99L1380.9 362.118L1386.81 350.688Z" fill="#0098FF" fill-opacity="0.1"/>
<path d="M1386.81 326.603L1380.9 315.173L1374.99 326.603H1386.81Z" fill="#0098FF" fill-opacity="0.1"/>
<path d="M1384.65 258H1377.16L1380.9 265.23L1384.65 258Z" fill="#0098FF" fill-opacity="0.1"/>
<path d="M1449.73 898.883L1430.79 862.269L1411.85 898.883H1449.73Z" fill="#0098FF" fill-opacity="0.1"/>
<path d="M1447.56 814.124H1414.02L1430.79 846.538L1447.56 814.124Z" fill="#0098FF" fill-opacity="0.1"/>
<path d="M1445.39 721.435H1416.19L1430.79 749.657L1445.39 721.435Z" fill="#0098FF" fill-opacity="0.1"/>
<path d="M1445.39 708.125L1430.79 679.904L1416.19 708.125H1445.39Z" fill="#0098FF" fill-opacity="0.1"/>
<path d="M1443.22 628.747H1418.36L1430.79 652.769L1443.22 628.747Z" fill="#0098FF" fill-opacity="0.1"/>
<path d="M1443.22 612.743L1430.79 588.721L1418.36 612.743H1443.22Z" fill="#0098FF" fill-opacity="0.1"/>
<path d="M1438.87 421.985L1430.79 406.356L1422.71 421.985H1438.87Z" fill="#0098FF" fill-opacity="0.1"/>
<path d="M1436.71 326.603L1430.79 315.173L1424.88 326.603H1436.71Z" fill="#0098FF" fill-opacity="0.1"/>
<path d="M776.241 858.597H738.35L757.298 895.211L776.241 858.597Z" fill="#0098FF" fill-opacity="0.1"/>
<path d="M774.073 850.49L757.298 818.069L740.523 850.49H774.073Z" fill="#0098FF" fill-opacity="0.1"/>
<path d="M771.905 755.197L757.299 726.976L742.692 755.197H771.905Z" fill="#0098FF" fill-opacity="0.1"/>
<path d="M771.898 673.03H742.697L757.298 701.251L771.898 673.03Z" fill="#0098FF" fill-opacity="0.1"/>
<path d="M769.725 580.252H744.866L757.298 604.274L769.725 580.252Z" fill="#0098FF" fill-opacity="0.1"/>
<path d="M767.556 487.469H747.04L757.298 507.291L767.556 487.469Z" fill="#0098FF" fill-opacity="0.1"/>
<path d="M763.22 374.05L757.299 362.607L751.378 374.05H763.22Z" fill="#0098FF" fill-opacity="0.1"/>
<path d="M763.214 301.908H751.383L757.298 313.337L763.214 301.908Z" fill="#0098FF" fill-opacity="0.1"/>
<path d="M826.132 858.597H788.24L807.183 895.211L826.132 858.597Z" fill="#0098FF" fill-opacity="0.1"/>
<path d="M823.959 765.813H790.415L807.184 798.228L823.959 765.813Z" fill="#0098FF" fill-opacity="0.1"/>
<path d="M821.79 673.03H792.583L807.184 701.251L821.79 673.03Z" fill="#0098FF" fill-opacity="0.1"/>
<path d="M819.615 659.91L807.183 635.882L794.751 659.91H819.615Z" fill="#0098FF" fill-opacity="0.1"/>
<path d="M817.447 564.623L807.184 544.795L796.926 564.623H817.447Z" fill="#0098FF" fill-opacity="0.1"/>
<path d="M817.442 487.469H796.926L807.184 507.291L817.442 487.469Z" fill="#0098FF" fill-opacity="0.1"/>
<path d="M815.275 469.336L807.185 453.701L799.096 469.336H815.275Z" fill="#0098FF" fill-opacity="0.1"/>
<path d="M815.273 394.691H799.1L807.184 410.314L815.273 394.691Z" fill="#0098FF" fill-opacity="0.1"/>
<path d="M813.105 374.05L807.184 362.607L801.269 374.05H813.105Z" fill="#0098FF" fill-opacity="0.1"/>
<path d="M810.931 278.763L807.184 271.52L803.437 278.763H810.931Z" fill="#0098FF" fill-opacity="0.1"/>
<path d="M873.85 850.49L857.075 818.069L840.301 850.49H873.85Z" fill="#0098FF" fill-opacity="0.1"/>
<path d="M871.675 755.197L857.075 726.976L842.469 755.197H871.675Z" fill="#0098FF" fill-opacity="0.1"/>
<path d="M869.507 659.91L857.075 635.882L844.643 659.91H869.507Z" fill="#0098FF" fill-opacity="0.1"/>
<path d="M869.501 580.252H844.643L857.075 604.274L869.501 580.252Z" fill="#0098FF" fill-opacity="0.1"/>
<path d="M865.165 469.336L857.076 453.701L848.986 469.336H865.165Z" fill="#0098FF" fill-opacity="0.1"/>
<path d="M865.159 394.691H848.991L857.075 410.314L865.159 394.691Z" fill="#0098FF" fill-opacity="0.1"/>
<path d="M925.91 858.597H888.019L906.962 895.211L925.91 858.597Z" fill="#0098FF" fill-opacity="0.1"/>
<path d="M923.736 765.813H890.187L906.961 798.228L923.736 765.813Z" fill="#0098FF" fill-opacity="0.1"/>
<path d="M921.568 755.197L906.962 726.976L892.361 755.197H921.568Z" fill="#0098FF" fill-opacity="0.1"/>
<path d="M921.562 673.03H892.361L906.962 701.251L921.562 673.03Z" fill="#0098FF" fill-opacity="0.1"/>
<path d="M917.219 487.469H896.703L906.961 507.291L917.219 487.469Z" fill="#0098FF" fill-opacity="0.1"/>
<path d="M912.883 374.05L906.961 362.607L901.046 374.05H912.883Z" fill="#0098FF" fill-opacity="0.1"/>
<path d="M912.877 301.908H901.052L906.962 313.337L912.877 301.908Z" fill="#0098FF" fill-opacity="0.1"/>
<path d="M975.796 858.597H937.904L956.853 895.211L975.796 858.597Z" fill="#0098FF" fill-opacity="0.1"/>
<path d="M973.627 850.49L956.853 818.069L940.078 850.49H973.627Z" fill="#0098FF" fill-opacity="0.1"/>
<path d="M973.627 765.814H940.078L956.853 798.228L973.627 765.814Z" fill="#0098FF" fill-opacity="0.1"/>
<path d="M971.453 755.197L956.852 726.976L942.246 755.197H971.453Z" fill="#0098FF" fill-opacity="0.1"/>
<path d="M971.453 673.03H942.252L956.853 701.251L971.453 673.03Z" fill="#0098FF" fill-opacity="0.1"/>
<path d="M969.284 659.91L956.852 635.882L944.42 659.91H969.284Z" fill="#0098FF" fill-opacity="0.1"/>
<path d="M969.279 580.253H944.421L956.853 604.274L969.279 580.253Z" fill="#0098FF" fill-opacity="0.1"/>
<path d="M964.942 469.336L956.852 453.701L948.763 469.336H964.942Z" fill="#0098FF" fill-opacity="0.1"/>
<path d="M964.936 394.691H948.763L956.852 410.314L964.936 394.691Z" fill="#0098FF" fill-opacity="0.1"/>
<path d="M962.767 374.05L956.852 362.607L950.931 374.05H962.767Z" fill="#0098FF" fill-opacity="0.1"/>
<path d="M960.6 278.763L956.853 271.52L953.105 278.763H960.6Z" fill="#0098FF" fill-opacity="0.1"/>
<path d="M1025.69 858.597H987.795L1006.74 895.211L1025.69 858.597Z" fill="#0098FF" fill-opacity="0.1"/>
<path d="M1023.51 850.49L1006.74 818.069L989.963 850.49H1023.51Z" fill="#0098FF" fill-opacity="0.1"/>
<path d="M1023.51 765.813H989.963L1006.74 798.228L1023.51 765.813Z" fill="#0098FF" fill-opacity="0.1"/>
<path d="M1021.34 755.197L1006.74 726.976L992.137 755.197H1021.34Z" fill="#0098FF" fill-opacity="0.1"/>
<path d="M1019.17 659.91L1006.74 635.882L994.306 659.91H1019.17Z" fill="#0098FF" fill-opacity="0.1"/>
<path d="M1017 564.623L1006.74 544.795L996.479 564.623H1017Z" fill="#0098FF" fill-opacity="0.1"/>
<path d="M1017 487.469H996.479L1006.74 507.291L1017 487.469Z" fill="#0098FF" fill-opacity="0.1"/>
<path d="M1014.82 394.691H998.653L1006.74 410.314L1014.82 394.691Z" fill="#0098FF" fill-opacity="0.1"/>
<path d="M1012.66 374.05L1006.74 362.607L1000.82 374.05H1012.66Z" fill="#0098FF" fill-opacity="0.1"/>
<path d="M1075.57 858.597H1037.68L1056.63 895.211L1075.57 858.597Z" fill="#0098FF" fill-opacity="0.1"/>
<path d="M1073.4 850.49L1056.63 818.069L1039.85 850.49H1073.4Z" fill="#0098FF" fill-opacity="0.1"/>
<path d="M1073.4 765.813H1039.85L1056.63 798.228L1073.4 765.813Z" fill="#0098FF" fill-opacity="0.1"/>
<path d="M1071.23 673.03H1042.02L1056.63 701.251L1071.23 673.03Z" fill="#0098FF" fill-opacity="0.1"/>
<path d="M1069.06 580.252H1044.2L1056.63 604.274L1069.06 580.252Z" fill="#0098FF" fill-opacity="0.1"/>
<path d="M1123.29 850.49L1106.51 818.069L1089.74 850.49H1123.29Z" fill="#0098FF" fill-opacity="0.1"/>
<path d="M1121.12 755.197L1106.51 726.976L1091.91 755.197H1121.12Z" fill="#0098FF" fill-opacity="0.1"/>
<path d="M1118.95 659.91L1106.52 635.882L1094.08 659.91H1118.95Z" fill="#0098FF" fill-opacity="0.1"/>
<path d="M1116.78 564.623L1106.51 544.795L1096.25 564.623H1116.78Z" fill="#0098FF" fill-opacity="0.1"/>
<path d="M1116.77 487.469H1096.26L1106.51 507.291L1116.77 487.469Z" fill="#0098FF" fill-opacity="0.1"/>
<path d="M1114.6 394.691H1098.43L1106.51 410.314L1114.6 394.691Z" fill="#0098FF" fill-opacity="0.1"/>
<path d="M1112.44 374.05L1106.51 362.607L1100.59 374.05H1112.44Z" fill="#0098FF" fill-opacity="0.1"/>
<path d="M1112.43 301.908H1100.6L1106.52 313.337L1112.43 301.908Z" fill="#0098FF" fill-opacity="0.1"/>
<path d="M1175.35 858.597H1137.46L1156.4 895.211L1175.35 858.597Z" fill="#0098FF" fill-opacity="0.1"/>
<path d="M1173.18 765.814H1139.63L1156.4 798.228L1173.18 765.814Z" fill="#0098FF" fill-opacity="0.1"/>
<path d="M1171.01 755.197L1156.4 726.976L1141.8 755.197H1171.01Z" fill="#0098FF" fill-opacity="0.1"/>
<path d="M1171.01 673.03H1141.8L1156.4 701.251L1171.01 673.03Z" fill="#0098FF" fill-opacity="0.1"/>
<path d="M1168.84 659.91L1156.4 635.882L1143.97 659.91H1168.84Z" fill="#0098FF" fill-opacity="0.1"/>
<path d="M1164.5 469.336L1156.4 453.701L1148.31 469.336H1164.5Z" fill="#0098FF" fill-opacity="0.1"/>
<path d="M1164.49 394.691H1148.32L1156.4 410.314L1164.49 394.691Z" fill="#0098FF" fill-opacity="0.1"/>
<path d="M1162.32 374.05L1156.4 362.607L1150.49 374.05H1162.32Z" fill="#0098FF" fill-opacity="0.1"/>
<path d="M1160.15 278.763L1156.4 271.52L1152.65 278.763H1160.15Z" fill="#0098FF" fill-opacity="0.1"/>
<path d="M1223.07 850.49L1206.29 818.069L1189.52 850.49H1223.07Z" fill="#0098FF" fill-opacity="0.1"/>
<path d="M1223.07 765.813H1189.52L1206.29 798.228L1223.07 765.813Z" fill="#0098FF" fill-opacity="0.1"/>
<path d="M1220.9 755.197L1206.29 726.976L1191.69 755.197H1220.9Z" fill="#0098FF" fill-opacity="0.1"/>
<path d="M1220.89 673.03H1191.69L1206.29 701.251L1220.89 673.03Z" fill="#0098FF" fill-opacity="0.1"/>
<path d="M1218.72 580.252H1193.86L1206.29 604.274L1218.72 580.252Z" fill="#0098FF" fill-opacity="0.1"/>
<path d="M1216.55 487.469H1196.03L1206.29 507.291L1216.55 487.469Z" fill="#0098FF" fill-opacity="0.1"/>
<path d="M1214.38 394.691H1198.21L1206.29 410.314L1214.38 394.691Z" fill="#0098FF" fill-opacity="0.1"/>
<path d="M1212.21 301.908H1200.38L1206.29 313.337L1212.21 301.908Z" fill="#0098FF" fill-opacity="0.1"/>
<path d="M1275.13 858.597H1237.24L1256.18 895.211L1275.13 858.597Z" fill="#0098FF" fill-opacity="0.1"/>
<path d="M1272.96 850.49L1256.18 818.069L1239.4 850.49H1272.96Z" fill="#0098FF" fill-opacity="0.1"/>
<path d="M1272.95 765.813H1239.41L1256.18 798.228L1272.95 765.813Z" fill="#0098FF" fill-opacity="0.1"/>
<path d="M1268.62 659.91L1256.18 635.882L1243.75 659.91H1268.62Z" fill="#0098FF" fill-opacity="0.1"/>
<path d="M1266.44 564.623L1256.18 544.795L1245.92 564.623H1266.44Z" fill="#0098FF" fill-opacity="0.1"/>
<path d="M1264.27 469.336L1256.18 453.701L1248.09 469.336H1264.27Z" fill="#0098FF" fill-opacity="0.1"/>
<path d="M1262.1 374.05L1256.18 362.607L1250.26 374.05H1262.1Z" fill="#0098FF" fill-opacity="0.1"/>
<path d="M1259.93 278.763L1256.18 271.52L1252.43 278.763H1259.93Z" fill="#0098FF" fill-opacity="0.1"/>
<path d="M1325.01 857.936H1287.12L1306.07 894.55L1325.01 857.936Z" fill="#0098FF" fill-opacity="0.1"/>
<path d="M1320.67 754.638L1306.07 726.41L1291.46 754.638H1320.67Z" fill="#0098FF" fill-opacity="0.1"/>
<path d="M1320.67 672.56H1291.47L1306.07 700.781L1320.67 672.56Z" fill="#0098FF" fill-opacity="0.1"/>
<path d="M1318.5 579.878H1293.64L1306.07 603.893L1318.5 579.878Z" fill="#0098FF" fill-opacity="0.1"/>
<path d="M1316.33 487.189H1295.81L1306.07 507.011L1316.33 487.189Z" fill="#0098FF" fill-opacity="0.1"/>
<path d="M1314.16 469.057L1306.07 453.421L1297.98 469.057H1314.16Z" fill="#0098FF" fill-opacity="0.1"/>
<path d="M1314.15 394.501H1297.99L1306.07 410.124L1314.15 394.501Z" fill="#0098FF" fill-opacity="0.1"/>
<path d="M1311.99 373.859L1306.07 362.423L1300.15 373.859H1311.99Z" fill="#0098FF" fill-opacity="0.1"/>
<path d="M1374.9 857.936H1337.01L1355.95 894.55L1374.9 857.936Z" fill="#0098FF" fill-opacity="0.1"/>
<path d="M1372.73 849.829L1355.95 817.409L1339.18 849.829H1372.73Z" fill="#0098FF" fill-opacity="0.1"/>
<path d="M1370.56 754.638L1355.96 726.41L1341.35 754.638H1370.56Z" fill="#0098FF" fill-opacity="0.1"/>
<path d="M1368.39 659.44L1355.95 635.412L1343.52 659.44H1368.39Z" fill="#0098FF" fill-opacity="0.1"/>
<path d="M1366.22 564.248L1355.96 544.42L1345.7 564.248H1366.22Z" fill="#0098FF" fill-opacity="0.1"/>
<path d="M1366.21 487.189H1345.7L1355.96 507.012L1366.21 487.189Z" fill="#0098FF" fill-opacity="0.1"/>
<path d="M1364.04 394.501H1347.87L1355.96 410.124L1364.04 394.501Z" fill="#0098FF" fill-opacity="0.1"/>
<path d="M1361.87 301.812H1350.04L1355.95 313.242L1361.87 301.812Z" fill="#0098FF" fill-opacity="0.1"/>
<path d="M1424.79 857.936H1386.9L1405.85 894.55L1424.79 857.936Z" fill="#0098FF" fill-opacity="0.1"/>
<path d="M1422.62 849.829L1405.85 817.408L1389.07 849.829H1422.62Z" fill="#0098FF" fill-opacity="0.1"/>
<path d="M1422.62 765.248H1389.07L1405.85 797.662L1422.62 765.248Z" fill="#0098FF" fill-opacity="0.1"/>
<path d="M1420.45 672.559H1391.25L1405.85 700.781L1420.45 672.559Z" fill="#0098FF" fill-opacity="0.1"/>
<path d="M1418.27 579.877H1393.41L1405.85 603.893L1418.27 579.877Z" fill="#0098FF" fill-opacity="0.1"/>
<path d="M1416.1 564.248L1405.85 544.419L1395.58 564.248H1416.1Z" fill="#0098FF" fill-opacity="0.1"/>
<path d="M1413.94 469.057L1405.85 453.421L1397.76 469.057H1413.94Z" fill="#0098FF" fill-opacity="0.1"/>
<path d="M1411.76 373.859L1405.85 362.423L1399.92 373.859H1411.76Z" fill="#0098FF" fill-opacity="0.1"/>
<path d="M1474.69 857.936H1436.81L1455.75 894.55L1474.69 857.936Z" fill="#0098FF" fill-opacity="0.1"/>
<path d="M1472.52 765.248H1438.97L1455.75 797.662L1472.52 765.248Z" fill="#0098FF" fill-opacity="0.1"/>
</g>
<defs>
<clipPath id="clip0_159_9648">
<rect width="1440" height="901" fill="white"/>
</clipPath>
</defs>
</svg>
