<svg width="1428" height="362" viewBox="0 0 1428 362" fill="none" xmlns="http://www.w3.org/2000/svg">
<g opacity="0.6" clip-path="url(#clip0_160_14008)">
<path d="M35.3795 353.133L20.5697 326.975L5.75488 353.133H35.3795Z" fill="#0098FF" fill-opacity="0.1"/>
<path d="M33.4642 286.915H7.6748L20.5695 309.685L33.4642 286.915Z" fill="#0098FF" fill-opacity="0.1"/>
<path d="M31.5446 212.131H9.59033L20.5699 231.512L31.5446 212.131Z" fill="#0098FF" fill-opacity="0.1"/>
<path d="M29.6293 137.347H11.5103L20.5698 153.345L29.6293 137.347Z" fill="#0098FF" fill-opacity="0.1"/>
<path d="M27.7092 62.568H13.4253L20.5697 75.1729L27.7092 62.568Z" fill="#0098FF" fill-opacity="0.1"/>
<path d="M79.4421 361.699H49.8125L64.6273 387.852L79.4421 361.699Z" fill="#0098FF" fill-opacity="0.1"/>
<path d="M79.4421 353.133L64.6273 326.975L49.8125 353.133H79.4421Z" fill="#0098FF" fill-opacity="0.1"/>
<path d="M77.5219 286.915H51.7324L64.6271 309.685L77.5219 286.915Z" fill="#0098FF" fill-opacity="0.1"/>
<path d="M75.6066 212.131H53.6523L64.627 231.512L75.6066 212.131Z" fill="#0098FF" fill-opacity="0.1"/>
<path d="M75.6066 199.218L64.627 179.837L53.6523 199.218H75.6066Z" fill="#0098FF" fill-opacity="0.1"/>
<path d="M71.7667 45.3086L64.6273 32.6985L57.4878 45.3086H71.7667Z" fill="#0098FF" fill-opacity="0.1"/>
<path d="M123.499 361.699H93.8745L108.689 387.852L123.499 361.699Z" fill="#0098FF" fill-opacity="0.1"/>
<path d="M123.499 353.133L108.689 326.975L93.8745 353.133H123.499Z" fill="#0098FF" fill-opacity="0.1"/>
<path d="M121.585 286.915H95.7905L108.69 309.685L121.585 286.915Z" fill="#0098FF" fill-opacity="0.1"/>
<path d="M121.585 276.176L108.69 253.406L95.7905 276.176H121.585Z" fill="#0098FF" fill-opacity="0.1"/>
<path d="M119.664 199.218L108.69 179.837L97.71 199.218H119.664Z" fill="#0098FF" fill-opacity="0.1"/>
<path d="M117.749 137.347H99.6299L108.689 153.345L117.749 137.347Z" fill="#0098FF" fill-opacity="0.1"/>
<path d="M117.749 122.266L108.689 106.268L99.6299 122.266H117.749Z" fill="#0098FF" fill-opacity="0.1"/>
<path d="M167.562 361.699H137.933L152.747 387.852L167.562 361.699Z" fill="#0098FF" fill-opacity="0.1"/>
<path d="M167.562 353.133L152.747 326.975L137.933 353.133H167.562Z" fill="#0098FF" fill-opacity="0.1"/>
<path d="M165.642 276.176L152.748 253.406L139.853 276.176H165.642Z" fill="#0098FF" fill-opacity="0.1"/>
<path d="M163.727 212.131H141.768L152.748 231.512L163.727 212.131Z" fill="#0098FF" fill-opacity="0.1"/>
<path d="M163.727 199.218L152.748 179.837L141.768 199.218H163.727Z" fill="#0098FF" fill-opacity="0.1"/>
<path d="M161.807 137.347H143.688L152.748 153.345L161.807 137.347Z" fill="#0098FF" fill-opacity="0.1"/>
<path d="M159.887 62.5679H145.608L152.747 75.1728L159.887 62.5679Z" fill="#0098FF" fill-opacity="0.1"/>
<path d="M211.619 361.699H181.994L196.804 387.852L211.619 361.699Z" fill="#0098FF" fill-opacity="0.1"/>
<path d="M211.619 353.133L196.804 326.975L181.994 353.133H211.619Z" fill="#0098FF" fill-opacity="0.1"/>
<path d="M209.704 276.176L196.804 253.406L183.91 276.176H209.704Z" fill="#0098FF" fill-opacity="0.1"/>
<path d="M207.784 212.131H185.83L196.805 231.512L207.784 212.131Z" fill="#0098FF" fill-opacity="0.1"/>
<path d="M205.864 137.347H187.75L196.805 153.345L205.864 137.347Z" fill="#0098FF" fill-opacity="0.1"/>
<path d="M205.864 122.266L196.805 106.268L187.75 122.266H205.864Z" fill="#0098FF" fill-opacity="0.1"/>
<path d="M203.949 45.3086L196.805 32.6985L189.665 45.3086H203.949Z" fill="#0098FF" fill-opacity="0.1"/>
<path d="M255.682 361.699H226.052L240.867 387.852L255.682 361.699Z" fill="#0098FF" fill-opacity="0.1"/>
<path d="M253.762 286.915H227.973L240.867 309.685L253.762 286.915Z" fill="#0098FF" fill-opacity="0.1"/>
<path d="M251.841 199.218L240.867 179.837L229.887 199.218H251.841Z" fill="#0098FF" fill-opacity="0.1"/>
<path d="M249.926 122.266L240.867 106.268L231.807 122.266H249.926Z" fill="#0098FF" fill-opacity="0.1"/>
<path d="M299.739 353.133L284.924 326.975L270.114 353.133H299.739Z" fill="#0098FF" fill-opacity="0.1"/>
<path d="M297.825 286.915H272.03L284.925 309.685L297.825 286.915Z" fill="#0098FF" fill-opacity="0.1"/>
<path d="M297.825 276.176L284.925 253.406L272.03 276.176H297.825Z" fill="#0098FF" fill-opacity="0.1"/>
<path d="M295.904 212.131H273.95L284.925 231.512L295.904 212.131Z" fill="#0098FF" fill-opacity="0.1"/>
<path d="M293.984 137.347H275.865L284.924 153.345L293.984 137.347Z" fill="#0098FF" fill-opacity="0.1"/>
<path d="M292.069 62.568H277.785L284.924 75.1729L292.069 62.568Z" fill="#0098FF" fill-opacity="0.1"/>
<path d="M292.069 45.3086L284.924 32.6985L277.785 45.3086H292.069Z" fill="#0098FF" fill-opacity="0.1"/>
<path d="M343.802 361.699H314.172L328.987 387.852L343.802 361.699Z" fill="#0098FF" fill-opacity="0.1"/>
<path d="M343.802 353.133L328.987 326.975L314.172 353.133H343.802Z" fill="#0098FF" fill-opacity="0.1"/>
<path d="M341.882 276.176L328.987 253.406L316.092 276.176H341.882Z" fill="#0098FF" fill-opacity="0.1"/>
<path d="M339.961 199.218L328.986 179.837L318.007 199.218H339.961Z" fill="#0098FF" fill-opacity="0.1"/>
<path d="M338.046 122.266L328.986 106.267L319.927 122.266H338.046Z" fill="#0098FF" fill-opacity="0.1"/>
<path d="M336.126 62.5679H321.847L328.986 75.1728L336.126 62.5679Z" fill="#0098FF" fill-opacity="0.1"/>
<path d="M387.859 361.699H358.229L373.044 387.852L387.859 361.699Z" fill="#0098FF" fill-opacity="0.1"/>
<path d="M385.939 286.915H360.149L373.044 309.685L385.939 286.915Z" fill="#0098FF" fill-opacity="0.1"/>
<path d="M385.939 276.176L373.044 253.406L360.149 276.176H385.939Z" fill="#0098FF" fill-opacity="0.1"/>
<path d="M384.024 212.131H362.069L373.044 231.512L384.024 212.131Z" fill="#0098FF" fill-opacity="0.1"/>
<path d="M384.024 199.218L373.044 179.837L362.069 199.218H384.024Z" fill="#0098FF" fill-opacity="0.1"/>
<path d="M382.104 137.347H363.985L373.044 153.345L382.104 137.347Z" fill="#0098FF" fill-opacity="0.1"/>
<path d="M431.921 361.699H402.291L417.106 387.852L431.921 361.699Z" fill="#0098FF" fill-opacity="0.1"/>
<path d="M431.921 353.133L417.106 326.975L402.291 353.133H431.921Z" fill="#0098FF" fill-opacity="0.1"/>
<path d="M430.001 276.176L417.107 253.406L404.212 276.176H430.001Z" fill="#0098FF" fill-opacity="0.1"/>
<path d="M428.08 199.218L417.106 179.837L406.126 199.218H428.08Z" fill="#0098FF" fill-opacity="0.1"/>
<path d="M426.165 137.347H408.046L417.105 153.345L426.165 137.347Z" fill="#0098FF" fill-opacity="0.1"/>
<path d="M424.245 62.568H409.961L417.105 75.1729L424.245 62.568Z" fill="#0098FF" fill-opacity="0.1"/>
<path d="M474.058 286.915H448.269L461.163 309.685L474.058 286.915Z" fill="#0098FF" fill-opacity="0.1"/>
<path d="M472.143 212.131H450.188L461.163 231.512L472.143 212.131Z" fill="#0098FF" fill-opacity="0.1"/>
<path d="M472.143 199.218L461.163 179.837L450.188 199.218H472.143Z" fill="#0098FF" fill-opacity="0.1"/>
<path d="M470.224 122.266L461.164 106.268L452.104 122.266H470.224Z" fill="#0098FF" fill-opacity="0.1"/>
<path d="M468.308 62.568H454.024L461.164 75.1729L468.308 62.568Z" fill="#0098FF" fill-opacity="0.1"/>
<path d="M520.036 361.699H490.411L505.226 387.852L520.036 361.699Z" fill="#0098FF" fill-opacity="0.1"/>
<path d="M520.036 353.133L505.226 326.975L490.411 353.133H520.036Z" fill="#0098FF" fill-opacity="0.1"/>
<path d="M518.121 286.915H492.326L505.226 309.685L518.121 286.915Z" fill="#0098FF" fill-opacity="0.1"/>
<path d="M518.121 276.176L505.226 253.406L492.326 276.176H518.121Z" fill="#0098FF" fill-opacity="0.1"/>
<path d="M516.2 212.131H494.246L505.226 231.512L516.2 212.131Z" fill="#0098FF" fill-opacity="0.1"/>
<path d="M514.286 137.347H496.167L505.227 153.345L514.286 137.347Z" fill="#0098FF" fill-opacity="0.1"/>
<path d="M512.365 45.3086L505.226 32.6985L498.081 45.3086H512.365Z" fill="#0098FF" fill-opacity="0.1"/>
<path d="M564.098 361.699H534.469L549.284 387.852L564.098 361.699Z" fill="#0098FF" fill-opacity="0.1"/>
<path d="M564.098 353.133L549.284 326.975L534.469 353.133H564.098Z" fill="#0098FF" fill-opacity="0.1"/>
<path d="M562.178 276.176L549.283 253.406L536.389 276.176H562.178Z" fill="#0098FF" fill-opacity="0.1"/>
<path d="M560.263 212.131H538.309L549.283 231.512L560.263 212.131Z" fill="#0098FF" fill-opacity="0.1"/>
<path d="M558.342 137.347H540.223L549.282 153.345L558.342 137.347Z" fill="#0098FF" fill-opacity="0.1"/>
<path d="M608.156 353.133L593.346 326.975L578.531 353.133H608.156Z" fill="#0098FF" fill-opacity="0.1"/>
<path d="M606.24 286.915H580.445L593.345 309.685L606.24 286.915Z" fill="#0098FF" fill-opacity="0.1"/>
<path d="M604.32 199.218L593.345 179.837L582.365 199.218H604.32Z" fill="#0098FF" fill-opacity="0.1"/>
<path d="M602.4 122.266L593.346 106.267L584.286 122.266H602.4Z" fill="#0098FF" fill-opacity="0.1"/>
<path d="M600.485 62.5679H586.201L593.346 75.1728L600.485 62.5679Z" fill="#0098FF" fill-opacity="0.1"/>
<path d="M652.219 361.699H622.59L637.405 387.852L652.219 361.699Z" fill="#0098FF" fill-opacity="0.1"/>
<path d="M650.3 286.915H624.511L637.405 309.685L650.3 286.915Z" fill="#0098FF" fill-opacity="0.1"/>
<path d="M650.3 276.176L637.405 253.406L624.511 276.176H650.3Z" fill="#0098FF" fill-opacity="0.1"/>
<path d="M648.385 212.131H626.426L637.405 231.512L648.385 212.131Z" fill="#0098FF" fill-opacity="0.1"/>
<path d="M648.385 199.218L637.405 179.837L626.426 199.218H648.385Z" fill="#0098FF" fill-opacity="0.1"/>
<path d="M644.545 45.3086L637.405 32.6985L630.266 45.3086H644.545Z" fill="#0098FF" fill-opacity="0.1"/>
<path d="M696.276 361.699H666.651L681.461 387.852L696.276 361.699Z" fill="#0098FF" fill-opacity="0.1"/>
<path d="M696.276 353.133L681.461 326.975L666.651 353.133H696.276Z" fill="#0098FF" fill-opacity="0.1"/>
<path d="M694.361 276.176L681.461 253.406L668.566 276.176H694.361Z" fill="#0098FF" fill-opacity="0.1"/>
<path d="M692.441 199.218L681.461 179.837L670.486 199.218H692.441Z" fill="#0098FF" fill-opacity="0.1"/>
<path d="M690.52 137.347H672.406L681.461 153.345L690.52 137.347Z" fill="#0098FF" fill-opacity="0.1"/>
<path d="M688.605 62.568H674.321L681.461 75.1729L688.605 62.568Z" fill="#0098FF" fill-opacity="0.1"/>
<path d="M55.4981 314.154L42.5984 291.385L29.6987 314.154H55.4981Z" fill="#0098FF" fill-opacity="0.1"/>
<path d="M55.4935 247.859H29.7041L42.5988 270.629L55.4935 247.859Z" fill="#0098FF" fill-opacity="0.1"/>
<path d="M53.5729 173.004H31.6187L42.5983 192.385L53.5729 173.004Z" fill="#0098FF" fill-opacity="0.1"/>
<path d="M51.6582 98.1427H33.5391L42.5986 114.136L51.6582 98.1427Z" fill="#0098FF" fill-opacity="0.1"/>
<path d="M47.8278 6.63254L42.5985 -2.59949L37.3691 6.63254H47.8278Z" fill="#0098FF" fill-opacity="0.1"/>
<path d="M101.471 322.72H71.8462L86.656 348.873L101.471 322.72Z" fill="#0098FF" fill-opacity="0.1"/>
<path d="M99.5561 247.859H73.7617L86.6564 270.629L99.5561 247.859Z" fill="#0098FF" fill-opacity="0.1"/>
<path d="M97.636 237.274L86.6564 217.887L75.6768 237.274H97.636Z" fill="#0098FF" fill-opacity="0.1"/>
<path d="M95.7207 160.394L86.6562 144.395L77.5967 160.394H95.7207Z" fill="#0098FF" fill-opacity="0.1"/>
<path d="M95.7158 98.1428H77.5967L86.6562 114.136L95.7158 98.1428Z" fill="#0098FF" fill-opacity="0.1"/>
<path d="M93.8001 83.513L86.6557 70.8978L79.5112 83.513H93.8001Z" fill="#0098FF" fill-opacity="0.1"/>
<path d="M93.8005 23.287H79.5166L86.6561 35.892L93.8005 23.287Z" fill="#0098FF" fill-opacity="0.1"/>
<path d="M91.8853 6.63254L86.656 -2.59949L81.4316 6.63254H91.8853Z" fill="#0098FF" fill-opacity="0.1"/>
<path d="M143.613 314.154L130.719 291.385L117.819 314.154H143.613Z" fill="#0098FF" fill-opacity="0.1"/>
<path d="M141.698 237.274L130.718 217.887L119.739 237.274H141.698Z" fill="#0098FF" fill-opacity="0.1"/>
<path d="M141.693 173.004H119.739L130.718 192.385L141.693 173.004Z" fill="#0098FF" fill-opacity="0.1"/>
<path d="M137.863 83.5129L130.718 70.8977L123.574 83.5129H137.863Z" fill="#0098FF" fill-opacity="0.1"/>
<path d="M137.858 23.287H123.579L130.719 35.892L137.858 23.287Z" fill="#0098FF" fill-opacity="0.1"/>
<path d="M189.591 322.72H159.961L174.776 348.873L189.591 322.72Z" fill="#0098FF" fill-opacity="0.1"/>
<path d="M187.676 314.154L174.776 291.385L161.881 314.154H187.676Z" fill="#0098FF" fill-opacity="0.1"/>
<path d="M187.671 247.859H161.881L174.776 270.629L187.671 247.859Z" fill="#0098FF" fill-opacity="0.1"/>
<path d="M183.835 98.1427H165.716L174.776 114.136L183.835 98.1427Z" fill="#0098FF" fill-opacity="0.1"/>
<path d="M180.005 6.63254L174.776 -2.59949L169.551 6.63254H180.005Z" fill="#0098FF" fill-opacity="0.1"/>
<path d="M233.653 322.72H204.023L218.838 348.873L233.653 322.72Z" fill="#0098FF" fill-opacity="0.1"/>
<path d="M231.732 314.154L218.838 291.385L205.938 314.154H231.732Z" fill="#0098FF" fill-opacity="0.1"/>
<path d="M231.733 247.859H205.944L218.839 270.629L231.733 247.859Z" fill="#0098FF" fill-opacity="0.1"/>
<path d="M229.817 237.274L218.838 217.887L207.858 237.274H229.817Z" fill="#0098FF" fill-opacity="0.1"/>
<path d="M229.812 173.004H207.858L218.838 192.385L229.812 173.004Z" fill="#0098FF" fill-opacity="0.1"/>
<path d="M225.982 83.513L218.838 70.8978L211.693 83.513H225.982Z" fill="#0098FF" fill-opacity="0.1"/>
<path d="M225.977 23.287H211.693L218.838 35.892L225.977 23.287Z" fill="#0098FF" fill-opacity="0.1"/>
<path d="M224.062 6.63254L218.838 -2.59949L213.608 6.63254H224.062Z" fill="#0098FF" fill-opacity="0.1"/>
<path d="M277.71 322.72H248.081L262.895 348.873L277.71 322.72Z" fill="#0098FF" fill-opacity="0.1"/>
<path d="M275.795 314.155L262.895 291.385L250 314.155H275.795Z" fill="#0098FF" fill-opacity="0.1"/>
<path d="M273.875 237.274L262.896 217.887L251.916 237.274H273.875Z" fill="#0098FF" fill-opacity="0.1"/>
<path d="M271.96 160.394L262.895 144.395L253.836 160.394H271.96Z" fill="#0098FF" fill-opacity="0.1"/>
<path d="M271.955 98.1428H253.836L262.895 114.136L271.955 98.1428Z" fill="#0098FF" fill-opacity="0.1"/>
<path d="M270.035 23.2871H255.756L262.896 35.8921L270.035 23.2871Z" fill="#0098FF" fill-opacity="0.1"/>
<path d="M268.124 6.63254L262.895 -2.59949L257.67 6.63254H268.124Z" fill="#0098FF" fill-opacity="0.1"/>
<path d="M321.767 322.72H292.143L306.957 348.873L321.767 322.72Z" fill="#0098FF" fill-opacity="0.1"/>
<path d="M319.853 247.859H294.058L306.958 270.629L319.853 247.859Z" fill="#0098FF" fill-opacity="0.1"/>
<path d="M317.932 173.004H295.978L306.958 192.385L317.932 173.004Z" fill="#0098FF" fill-opacity="0.1"/>
<path d="M363.915 314.154L351.015 291.385L338.116 314.154H363.915Z" fill="#0098FF" fill-opacity="0.1"/>
<path d="M361.994 237.274L351.015 217.887L340.035 237.274H361.994Z" fill="#0098FF" fill-opacity="0.1"/>
<path d="M360.08 160.393L351.015 144.395L341.951 160.393H360.08Z" fill="#0098FF" fill-opacity="0.1"/>
<path d="M360.074 98.1427H341.955L351.015 114.136L360.074 98.1427Z" fill="#0098FF" fill-opacity="0.1"/>
<path d="M358.154 23.287H343.875L351.015 35.892L358.154 23.287Z" fill="#0098FF" fill-opacity="0.1"/>
<path d="M356.245 6.63254L351.015 -2.59949L345.786 6.63254H356.245Z" fill="#0098FF" fill-opacity="0.1"/>
<path d="M409.887 322.72H380.263L395.077 348.873L409.887 322.72Z" fill="#0098FF" fill-opacity="0.1"/>
<path d="M407.973 314.154L395.078 291.385L382.179 314.154H407.973Z" fill="#0098FF" fill-opacity="0.1"/>
<path d="M407.973 247.859H382.179L395.078 270.629L407.973 247.859Z" fill="#0098FF" fill-opacity="0.1"/>
<path d="M406.058 237.274L395.078 217.887L384.094 237.274H406.058Z" fill="#0098FF" fill-opacity="0.1"/>
<path d="M402.223 83.513L395.078 70.8978L387.929 83.513H402.223Z" fill="#0098FF" fill-opacity="0.1"/>
<path d="M402.218 23.287H387.934L395.078 35.892L402.218 23.287Z" fill="#0098FF" fill-opacity="0.1"/>
<path d="M400.303 6.63254L395.079 -2.59949L389.85 6.63254H400.303Z" fill="#0098FF" fill-opacity="0.1"/>
<path d="M453.95 322.72H424.32L439.135 348.873L453.95 322.72Z" fill="#0098FF" fill-opacity="0.1"/>
<path d="M452.034 314.154L439.134 291.385L426.234 314.154H452.034Z" fill="#0098FF" fill-opacity="0.1"/>
<path d="M452.03 247.859H426.24L439.135 270.629L452.03 247.859Z" fill="#0098FF" fill-opacity="0.1"/>
<path d="M450.115 173.004H428.155L439.135 192.385L450.115 173.004Z" fill="#0098FF" fill-opacity="0.1"/>
<path d="M448.194 98.1427H430.075L439.135 114.136L448.194 98.1427Z" fill="#0098FF" fill-opacity="0.1"/>
<path d="M446.274 23.287H431.995L439.135 35.892L446.274 23.287Z" fill="#0098FF" fill-opacity="0.1"/>
<path d="M498.007 322.72H468.383L483.193 348.873L498.007 322.72Z" fill="#0098FF" fill-opacity="0.1"/>
<path d="M494.177 237.274L483.193 217.887L472.213 237.274H494.177Z" fill="#0098FF" fill-opacity="0.1"/>
<path d="M492.257 160.394L483.192 144.395L474.133 160.394H492.257Z" fill="#0098FF" fill-opacity="0.1"/>
<path d="M490.342 83.513L483.192 70.8978L476.048 83.513H490.342Z" fill="#0098FF" fill-opacity="0.1"/>
<path d="M488.421 6.63254L483.192 -2.59949L477.968 6.63254H488.421Z" fill="#0098FF" fill-opacity="0.1"/>
<path d="M540.154 313.703L527.254 290.928L514.354 313.703H540.154Z" fill="#0098FF" fill-opacity="0.1"/>
<path d="M540.149 247.48H514.359L527.254 270.25L540.149 247.48Z" fill="#0098FF" fill-opacity="0.1"/>
<path d="M538.229 172.701H516.274L527.254 192.078L538.229 172.701Z" fill="#0098FF" fill-opacity="0.1"/>
<path d="M536.313 97.9172H518.194L527.254 113.911L536.313 97.9172Z" fill="#0098FF" fill-opacity="0.1"/>
<path d="M534.399 83.2875L527.255 70.6722L520.11 83.2875H534.399Z" fill="#0098FF" fill-opacity="0.1"/>
<path d="M534.394 23.1333H520.115L527.255 35.7383L534.394 23.1333Z" fill="#0098FF" fill-opacity="0.1"/>
<path d="M532.484 6.47872L527.255 -2.74817L522.025 6.47872H532.484Z" fill="#0098FF" fill-opacity="0.1"/>
<path d="M584.209 313.703L571.31 290.928L558.415 313.703H584.209Z" fill="#0098FF" fill-opacity="0.1"/>
<path d="M582.289 236.895L571.31 217.508L560.33 236.895H582.289Z" fill="#0098FF" fill-opacity="0.1"/>
<path d="M580.375 160.091L571.311 144.093L562.251 160.091H580.375Z" fill="#0098FF" fill-opacity="0.1"/>
<path d="M580.37 97.9171H562.251L571.311 113.91L580.37 97.9171Z" fill="#0098FF" fill-opacity="0.1"/>
<path d="M578.454 23.1332H564.17L571.309 35.7381L578.454 23.1332Z" fill="#0098FF" fill-opacity="0.1"/>
<path d="M630.189 322.264H600.56L615.374 348.417L630.189 322.264Z" fill="#0098FF" fill-opacity="0.1"/>
<path d="M628.269 247.48H602.479L615.374 270.25L628.269 247.48Z" fill="#0098FF" fill-opacity="0.1"/>
<path d="M626.35 172.701H604.396L615.375 192.078L626.35 172.701Z" fill="#0098FF" fill-opacity="0.1"/>
<path d="M624.435 160.091L615.375 144.093L606.311 160.091H624.435Z" fill="#0098FF" fill-opacity="0.1"/>
<path d="M622.518 83.2875L615.374 70.6722L608.229 83.2875H622.518Z" fill="#0098FF" fill-opacity="0.1"/>
<path d="M620.599 6.47872L615.375 -2.74817L610.146 6.47872H620.599Z" fill="#0098FF" fill-opacity="0.1"/>
<path d="M674.261 322.264H644.632L659.447 348.417L674.261 322.264Z" fill="#0098FF" fill-opacity="0.1"/>
<path d="M672.346 313.704L659.447 290.928L646.547 313.704H672.346Z" fill="#0098FF" fill-opacity="0.1"/>
<path d="M670.426 236.895L659.446 217.508L648.467 236.895H670.426Z" fill="#0098FF" fill-opacity="0.1"/>
<path d="M668.512 160.091L659.447 144.093L650.383 160.091H668.512Z" fill="#0098FF" fill-opacity="0.1"/>
<path d="M668.506 97.9172H650.387L659.446 113.911L668.506 97.9172Z" fill="#0098FF" fill-opacity="0.1"/>
<path d="M666.592 83.2875L659.447 70.6722L652.303 83.2875H666.592Z" fill="#0098FF" fill-opacity="0.1"/>
<path d="M666.587 23.1333H652.308L659.447 35.7383L666.587 23.1333Z" fill="#0098FF" fill-opacity="0.1"/>
<path d="M718.304 320.9H688.68L703.495 347.054L718.304 320.9Z" fill="#0098FF" fill-opacity="0.1"/>
<path d="M716.388 312.335L703.493 289.565L690.594 312.335H716.388Z" fill="#0098FF" fill-opacity="0.1"/>
<path d="M716.389 246.342H690.6L703.494 269.112L716.389 246.342Z" fill="#0098FF" fill-opacity="0.1"/>
<path d="M714.474 235.757L703.494 216.37L692.515 235.757H714.474Z" fill="#0098FF" fill-opacity="0.1"/>
<path d="M714.469 171.789H692.515L703.494 191.17L714.469 171.789Z" fill="#0098FF" fill-opacity="0.1"/>
<path d="M712.553 159.179L703.493 143.18L694.429 159.179H712.553Z" fill="#0098FF" fill-opacity="0.1"/>
<path d="M712.554 97.2355H694.435L703.494 113.229L712.554 97.2355Z" fill="#0098FF" fill-opacity="0.1"/>
<path d="M710.638 82.6005L703.494 69.9905L696.35 82.6005H710.638Z" fill="#0098FF" fill-opacity="0.1"/>
<path d="M710.633 22.6771H696.35L703.494 35.2872L710.633 22.6771Z" fill="#0098FF" fill-opacity="0.1"/>
<path d="M708.719 6.02767L703.495 -3.20435L698.266 6.02767H708.719Z" fill="#0098FF" fill-opacity="0.1"/>
<path d="M739.323 353.133L724.513 326.975L709.698 353.133H739.323Z" fill="#0098FF" fill-opacity="0.1"/>
<path d="M737.408 286.915H711.613L724.513 309.685L737.408 286.915Z" fill="#0098FF" fill-opacity="0.1"/>
<path d="M735.487 212.131H713.533L724.513 231.512L735.487 212.131Z" fill="#0098FF" fill-opacity="0.1"/>
<path d="M733.572 137.347H715.453L724.513 153.345L733.572 137.347Z" fill="#0098FF" fill-opacity="0.1"/>
<path d="M731.652 62.5679H717.368L724.513 75.1728L731.652 62.5679Z" fill="#0098FF" fill-opacity="0.1"/>
<path d="M783.383 361.699H753.754L768.569 387.852L783.383 361.699Z" fill="#0098FF" fill-opacity="0.1"/>
<path d="M783.383 353.133L768.569 326.975L753.754 353.133H783.383Z" fill="#0098FF" fill-opacity="0.1"/>
<path d="M781.464 286.915H755.675L768.57 309.684L781.464 286.915Z" fill="#0098FF" fill-opacity="0.1"/>
<path d="M779.549 212.131H757.595L768.569 231.512L779.549 212.131Z" fill="#0098FF" fill-opacity="0.1"/>
<path d="M779.549 199.218L768.569 179.837L757.595 199.218H779.549Z" fill="#0098FF" fill-opacity="0.1"/>
<path d="M775.709 45.3084L768.569 32.6984L761.43 45.3084H775.709Z" fill="#0098FF" fill-opacity="0.1"/>
<path d="M827.441 361.699H797.816L812.631 387.852L827.441 361.699Z" fill="#0098FF" fill-opacity="0.1"/>
<path d="M827.441 353.133L812.631 326.975L797.816 353.133H827.441Z" fill="#0098FF" fill-opacity="0.1"/>
<path d="M825.526 286.915H799.731L812.631 309.684L825.526 286.915Z" fill="#0098FF" fill-opacity="0.1"/>
<path d="M825.526 276.175L812.631 253.406L799.731 276.175H825.526Z" fill="#0098FF" fill-opacity="0.1"/>
<path d="M823.605 199.218L812.63 179.837L801.65 199.218H823.605Z" fill="#0098FF" fill-opacity="0.1"/>
<path d="M821.684 137.347H803.57L812.63 153.345L821.684 137.347Z" fill="#0098FF" fill-opacity="0.1"/>
<path d="M821.684 122.266L812.63 106.267L803.57 122.266H821.684Z" fill="#0098FF" fill-opacity="0.1"/>
<path d="M871.504 361.699H841.874L856.689 387.852L871.504 361.699Z" fill="#0098FF" fill-opacity="0.1"/>
<path d="M871.504 353.133L856.689 326.975L841.874 353.133H871.504Z" fill="#0098FF" fill-opacity="0.1"/>
<path d="M869.584 276.176L856.69 253.406L843.795 276.176H869.584Z" fill="#0098FF" fill-opacity="0.1"/>
<path d="M867.668 212.131H845.709L856.689 231.512L867.668 212.131Z" fill="#0098FF" fill-opacity="0.1"/>
<path d="M867.668 199.218L856.689 179.837L845.709 199.218H867.668Z" fill="#0098FF" fill-opacity="0.1"/>
<path d="M865.749 137.347H847.63L856.689 153.345L865.749 137.347Z" fill="#0098FF" fill-opacity="0.1"/>
<path d="M863.829 62.5679H849.55L856.689 75.1728L863.829 62.5679Z" fill="#0098FF" fill-opacity="0.1"/>
<path d="M915.56 361.699H885.936L900.745 387.852L915.56 361.699Z" fill="#0098FF" fill-opacity="0.1"/>
<path d="M915.56 353.133L900.745 326.975L885.936 353.133H915.56Z" fill="#0098FF" fill-opacity="0.1"/>
<path d="M913.645 276.176L900.745 253.406L887.851 276.176H913.645Z" fill="#0098FF" fill-opacity="0.1"/>
<path d="M911.725 212.131H889.771L900.745 231.512L911.725 212.131Z" fill="#0098FF" fill-opacity="0.1"/>
<path d="M909.806 137.347H891.691L900.746 153.345L909.806 137.347Z" fill="#0098FF" fill-opacity="0.1"/>
<path d="M909.806 122.266L900.746 106.267L891.691 122.266H909.806Z" fill="#0098FF" fill-opacity="0.1"/>
<path d="M907.889 45.3084L900.745 32.6984L893.605 45.3084H907.889Z" fill="#0098FF" fill-opacity="0.1"/>
<path d="M959.624 361.698H929.994L944.809 387.852L959.624 361.698Z" fill="#0098FF" fill-opacity="0.1"/>
<path d="M957.704 286.915H931.914L944.809 309.684L957.704 286.915Z" fill="#0098FF" fill-opacity="0.1"/>
<path d="M955.783 199.218L944.809 179.837L933.829 199.218H955.783Z" fill="#0098FF" fill-opacity="0.1"/>
<path d="M953.868 122.266L944.809 106.267L935.749 122.266H953.868Z" fill="#0098FF" fill-opacity="0.1"/>
<path d="M1003.68 353.133L988.865 326.975L974.056 353.133H1003.68Z" fill="#0098FF" fill-opacity="0.1"/>
<path d="M1001.77 286.915H975.972L988.866 309.684L1001.77 286.915Z" fill="#0098FF" fill-opacity="0.1"/>
<path d="M1001.77 276.175L988.866 253.406L975.972 276.175H1001.77Z" fill="#0098FF" fill-opacity="0.1"/>
<path d="M999.846 212.131H977.892L988.866 231.512L999.846 212.131Z" fill="#0098FF" fill-opacity="0.1"/>
<path d="M997.925 137.347H979.806L988.865 153.345L997.925 137.347Z" fill="#0098FF" fill-opacity="0.1"/>
<path d="M996.01 62.5679H981.726L988.865 75.1728L996.01 62.5679Z" fill="#0098FF" fill-opacity="0.1"/>
<path d="M996.01 45.3084L988.865 32.6984L981.726 45.3084H996.01Z" fill="#0098FF" fill-opacity="0.1"/>
<path d="M1047.74 361.699H1018.11L1032.93 387.852L1047.74 361.699Z" fill="#0098FF" fill-opacity="0.1"/>
<path d="M1047.74 353.133L1032.93 326.975L1018.11 353.133H1047.74Z" fill="#0098FF" fill-opacity="0.1"/>
<path d="M1045.82 276.176L1032.93 253.406L1020.03 276.176H1045.82Z" fill="#0098FF" fill-opacity="0.1"/>
<path d="M1043.9 199.218L1032.93 179.837L1021.95 199.218H1043.9Z" fill="#0098FF" fill-opacity="0.1"/>
<path d="M1041.99 122.266L1032.93 106.267L1023.87 122.266H1041.99Z" fill="#0098FF" fill-opacity="0.1"/>
<path d="M1040.07 62.5679H1025.79L1032.93 75.1728L1040.07 62.5679Z" fill="#0098FF" fill-opacity="0.1"/>
<path d="M1091.8 361.699H1062.17L1076.99 387.852L1091.8 361.699Z" fill="#0098FF" fill-opacity="0.1"/>
<path d="M1089.88 286.915H1064.09L1076.99 309.685L1089.88 286.915Z" fill="#0098FF" fill-opacity="0.1"/>
<path d="M1089.88 276.176L1076.99 253.406L1064.09 276.176H1089.88Z" fill="#0098FF" fill-opacity="0.1"/>
<path d="M1087.97 212.131H1066.01L1076.99 231.512L1087.97 212.131Z" fill="#0098FF" fill-opacity="0.1"/>
<path d="M1087.97 199.218L1076.99 179.837L1066.01 199.218H1087.97Z" fill="#0098FF" fill-opacity="0.1"/>
<path d="M1086.05 137.347H1067.93L1076.99 153.345L1086.05 137.347Z" fill="#0098FF" fill-opacity="0.1"/>
<path d="M1135.86 361.699H1106.23L1121.05 387.852L1135.86 361.699Z" fill="#0098FF" fill-opacity="0.1"/>
<path d="M1135.86 353.133L1121.05 326.975L1106.23 353.133H1135.86Z" fill="#0098FF" fill-opacity="0.1"/>
<path d="M1133.94 276.175L1121.05 253.406L1108.15 276.175H1133.94Z" fill="#0098FF" fill-opacity="0.1"/>
<path d="M1132.02 199.218L1121.05 179.837L1110.07 199.218H1132.02Z" fill="#0098FF" fill-opacity="0.1"/>
<path d="M1130.11 137.347H1111.99L1121.05 153.345L1130.11 137.347Z" fill="#0098FF" fill-opacity="0.1"/>
<path d="M1128.19 62.5679H1113.9L1121.05 75.1728L1128.19 62.5679Z" fill="#0098FF" fill-opacity="0.1"/>
<path d="M1178 286.915H1152.21L1165.11 309.684L1178 286.915Z" fill="#0098FF" fill-opacity="0.1"/>
<path d="M1176.09 212.131H1154.13L1165.11 231.512L1176.09 212.131Z" fill="#0098FF" fill-opacity="0.1"/>
<path d="M1176.09 199.218L1165.11 179.837L1154.13 199.218H1176.09Z" fill="#0098FF" fill-opacity="0.1"/>
<path d="M1174.17 122.266L1165.11 106.267L1156.05 122.266H1174.17Z" fill="#0098FF" fill-opacity="0.1"/>
<path d="M1172.24 62.5679H1157.97L1165.11 75.1728L1172.24 62.5679Z" fill="#0098FF" fill-opacity="0.1"/>
<path d="M1223.98 361.699H1194.35L1209.17 387.852L1223.98 361.699Z" fill="#0098FF" fill-opacity="0.1"/>
<path d="M1223.98 353.133L1209.17 326.975L1194.35 353.133H1223.98Z" fill="#0098FF" fill-opacity="0.1"/>
<path d="M1222.06 286.915H1196.27L1209.17 309.684L1222.06 286.915Z" fill="#0098FF" fill-opacity="0.1"/>
<path d="M1222.06 276.175L1209.17 253.406L1196.27 276.175H1222.06Z" fill="#0098FF" fill-opacity="0.1"/>
<path d="M1220.14 212.131H1198.19L1209.17 231.512L1220.14 212.131Z" fill="#0098FF" fill-opacity="0.1"/>
<path d="M1218.23 137.347H1200.11L1209.17 153.345L1218.23 137.347Z" fill="#0098FF" fill-opacity="0.1"/>
<path d="M1216.31 45.3084L1209.17 32.6984L1202.02 45.3084H1216.31Z" fill="#0098FF" fill-opacity="0.1"/>
<path d="M1268.04 361.699H1238.41L1253.23 387.852L1268.04 361.699Z" fill="#0098FF" fill-opacity="0.1"/>
<path d="M1268.04 353.133L1253.23 326.975L1238.41 353.133H1268.04Z" fill="#0098FF" fill-opacity="0.1"/>
<path d="M1266.12 276.176L1253.23 253.406L1240.33 276.176H1266.12Z" fill="#0098FF" fill-opacity="0.1"/>
<path d="M1264.21 212.131H1242.25L1253.23 231.512L1264.21 212.131Z" fill="#0098FF" fill-opacity="0.1"/>
<path d="M1262.29 137.347H1244.17L1253.23 153.345L1262.29 137.347Z" fill="#0098FF" fill-opacity="0.1"/>
<path d="M1312.1 353.133L1297.29 326.975L1282.47 353.133H1312.1Z" fill="#0098FF" fill-opacity="0.1"/>
<path d="M1310.18 286.915H1284.39L1297.29 309.685L1310.18 286.915Z" fill="#0098FF" fill-opacity="0.1"/>
<path d="M1308.26 199.218L1297.29 179.837L1286.31 199.218H1308.26Z" fill="#0098FF" fill-opacity="0.1"/>
<path d="M1306.34 122.266L1297.29 106.267L1288.23 122.266H1306.34Z" fill="#0098FF" fill-opacity="0.1"/>
<path d="M1304.43 62.5679H1290.14L1297.29 75.1728L1304.43 62.5679Z" fill="#0098FF" fill-opacity="0.1"/>
<path d="M1356.16 361.699H1326.53L1341.35 387.852L1356.16 361.699Z" fill="#0098FF" fill-opacity="0.1"/>
<path d="M1354.24 286.915H1328.45L1341.35 309.685L1354.24 286.915Z" fill="#0098FF" fill-opacity="0.1"/>
<path d="M1354.24 276.176L1341.35 253.406L1328.45 276.176H1354.24Z" fill="#0098FF" fill-opacity="0.1"/>
<path d="M1352.32 212.131H1330.37L1341.34 231.512L1352.32 212.131Z" fill="#0098FF" fill-opacity="0.1"/>
<path d="M1352.32 199.218L1341.34 179.837L1330.37 199.218H1352.32Z" fill="#0098FF" fill-opacity="0.1"/>
<path d="M1348.48 45.3086L1341.34 32.6985L1334.21 45.3086H1348.48Z" fill="#0098FF" fill-opacity="0.1"/>
<path d="M1400.22 361.698H1370.59L1385.4 387.852L1400.22 361.698Z" fill="#0098FF" fill-opacity="0.1"/>
<path d="M1400.22 353.133L1385.4 326.975L1370.59 353.133H1400.22Z" fill="#0098FF" fill-opacity="0.1"/>
<path d="M1398.3 276.175L1385.4 253.406L1372.51 276.175H1398.3Z" fill="#0098FF" fill-opacity="0.1"/>
<path d="M1396.38 199.218L1385.4 179.837L1374.43 199.218H1396.38Z" fill="#0098FF" fill-opacity="0.1"/>
<path d="M1394.46 137.347H1376.35L1385.4 153.345L1394.46 137.347Z" fill="#0098FF" fill-opacity="0.1"/>
<path d="M1392.55 62.5679H1378.26L1385.4 75.1728L1392.55 62.5679Z" fill="#0098FF" fill-opacity="0.1"/>
<path d="M759.439 314.154L746.539 291.385L733.64 314.154H759.439Z" fill="#0098FF" fill-opacity="0.1"/>
<path d="M759.434 247.859H733.645L746.539 270.629L759.434 247.859Z" fill="#0098FF" fill-opacity="0.1"/>
<path d="M757.514 173.004H735.56L746.539 192.385L757.514 173.004Z" fill="#0098FF" fill-opacity="0.1"/>
<path d="M755.599 98.1427H737.479L746.539 114.136L755.599 98.1427Z" fill="#0098FF" fill-opacity="0.1"/>
<path d="M751.768 6.63254L746.539 -2.59949L741.31 6.63254H751.768Z" fill="#0098FF" fill-opacity="0.1"/>
<path d="M805.411 322.72H775.786L790.596 348.873L805.411 322.72Z" fill="#0098FF" fill-opacity="0.1"/>
<path d="M803.496 247.859H777.701L790.596 270.629L803.496 247.859Z" fill="#0098FF" fill-opacity="0.1"/>
<path d="M801.575 237.274L790.596 217.887L779.616 237.274H801.575Z" fill="#0098FF" fill-opacity="0.1"/>
<path d="M799.66 160.394L790.596 144.395L781.536 160.394H799.66Z" fill="#0098FF" fill-opacity="0.1"/>
<path d="M799.655 98.1428H781.536L790.596 114.136L799.655 98.1428Z" fill="#0098FF" fill-opacity="0.1"/>
<path d="M797.741 83.513L790.597 70.8978L783.452 83.513H797.741Z" fill="#0098FF" fill-opacity="0.1"/>
<path d="M797.74 23.287H783.456L790.596 35.892L797.74 23.287Z" fill="#0098FF" fill-opacity="0.1"/>
<path d="M795.826 6.63254L790.596 -2.59949L785.372 6.63254H795.826Z" fill="#0098FF" fill-opacity="0.1"/>
<path d="M847.553 314.154L834.658 291.385L821.759 314.154H847.553Z" fill="#0098FF" fill-opacity="0.1"/>
<path d="M845.638 237.274L834.658 217.887L823.679 237.274H845.638Z" fill="#0098FF" fill-opacity="0.1"/>
<path d="M845.633 173.004H823.679L834.658 192.385L845.633 173.004Z" fill="#0098FF" fill-opacity="0.1"/>
<path d="M841.803 83.5129L834.659 70.8977L827.515 83.5129H841.803Z" fill="#0098FF" fill-opacity="0.1"/>
<path d="M841.798 23.287H827.52L834.659 35.892L841.798 23.287Z" fill="#0098FF" fill-opacity="0.1"/>
<path d="M893.531 322.72H863.901L878.716 348.873L893.531 322.72Z" fill="#0098FF" fill-opacity="0.1"/>
<path d="M891.617 314.154L878.717 291.385L865.822 314.154H891.617Z" fill="#0098FF" fill-opacity="0.1"/>
<path d="M891.612 247.859H865.822L878.717 270.629L891.612 247.859Z" fill="#0098FF" fill-opacity="0.1"/>
<path d="M887.775 98.1427H869.656L878.716 114.136L887.775 98.1427Z" fill="#0098FF" fill-opacity="0.1"/>
<path d="M883.946 6.63254L878.717 -2.59949L873.492 6.63254H883.946Z" fill="#0098FF" fill-opacity="0.1"/>
<path d="M937.592 322.72H907.963L922.778 348.873L937.592 322.72Z" fill="#0098FF" fill-opacity="0.1"/>
<path d="M935.672 314.154L922.778 291.385L909.878 314.154H935.672Z" fill="#0098FF" fill-opacity="0.1"/>
<path d="M935.672 247.859H909.883L922.778 270.629L935.672 247.859Z" fill="#0098FF" fill-opacity="0.1"/>
<path d="M933.757 237.274L922.777 217.887L911.798 237.274H933.757Z" fill="#0098FF" fill-opacity="0.1"/>
<path d="M933.752 173.004H911.798L922.777 192.385L933.752 173.004Z" fill="#0098FF" fill-opacity="0.1"/>
<path d="M929.923 83.513L922.778 70.8978L915.634 83.513H929.923Z" fill="#0098FF" fill-opacity="0.1"/>
<path d="M929.918 23.287H915.634L922.778 35.892L929.918 23.287Z" fill="#0098FF" fill-opacity="0.1"/>
<path d="M928.003 6.63254L922.778 -2.59949L917.549 6.63254H928.003Z" fill="#0098FF" fill-opacity="0.1"/>
<path d="M981.65 322.72H952.021L966.835 348.873L981.65 322.72Z" fill="#0098FF" fill-opacity="0.1"/>
<path d="M979.735 314.155L966.835 291.385L953.94 314.155H979.735Z" fill="#0098FF" fill-opacity="0.1"/>
<path d="M977.816 237.274L966.836 217.887L955.856 237.274H977.816Z" fill="#0098FF" fill-opacity="0.1"/>
<path d="M975.9 160.394L966.836 144.395L957.776 160.394H975.9Z" fill="#0098FF" fill-opacity="0.1"/>
<path d="M975.895 98.1428H957.776L966.836 114.136L975.895 98.1428Z" fill="#0098FF" fill-opacity="0.1"/>
<path d="M973.975 23.2871H959.696L966.836 35.8921L973.975 23.2871Z" fill="#0098FF" fill-opacity="0.1"/>
<path d="M972.065 6.63254L966.836 -2.59949L961.611 6.63254H972.065Z" fill="#0098FF" fill-opacity="0.1"/>
<path d="M1025.71 322.72H996.083L1010.9 348.873L1025.71 322.72Z" fill="#0098FF" fill-opacity="0.1"/>
<path d="M1023.79 247.859H997.998L1010.9 270.629L1023.79 247.859Z" fill="#0098FF" fill-opacity="0.1"/>
<path d="M1021.87 173.004H999.918L1010.9 192.385L1021.87 173.004Z" fill="#0098FF" fill-opacity="0.1"/>
<path d="M1067.86 314.154L1054.96 291.385L1042.06 314.154H1067.86Z" fill="#0098FF" fill-opacity="0.1"/>
<path d="M1065.94 237.274L1054.96 217.887L1043.98 237.274H1065.94Z" fill="#0098FF" fill-opacity="0.1"/>
<path d="M1064.02 160.393L1054.96 144.395L1045.89 160.393H1064.02Z" fill="#0098FF" fill-opacity="0.1"/>
<path d="M1064.02 98.1427H1045.9L1054.96 114.136L1064.02 98.1427Z" fill="#0098FF" fill-opacity="0.1"/>
<path d="M1062.1 23.287H1047.82L1054.96 35.892L1062.1 23.287Z" fill="#0098FF" fill-opacity="0.1"/>
<path d="M1060.19 6.63254L1054.96 -2.59949L1049.73 6.63254H1060.19Z" fill="#0098FF" fill-opacity="0.1"/>
<path d="M1113.83 322.72H1084.2L1099.01 348.873L1113.83 322.72Z" fill="#0098FF" fill-opacity="0.1"/>
<path d="M1111.91 314.154L1099.01 291.385L1086.12 314.154H1111.91Z" fill="#0098FF" fill-opacity="0.1"/>
<path d="M1111.91 247.859H1086.12L1099.01 270.629L1111.91 247.859Z" fill="#0098FF" fill-opacity="0.1"/>
<path d="M1110 237.274L1099.01 217.887L1088.03 237.274H1110Z" fill="#0098FF" fill-opacity="0.1"/>
<path d="M1106.16 83.513L1099.01 70.8978L1091.87 83.513H1106.16Z" fill="#0098FF" fill-opacity="0.1"/>
<path d="M1106.16 23.287H1091.87L1099.01 35.892L1106.16 23.287Z" fill="#0098FF" fill-opacity="0.1"/>
<path d="M1104.24 6.63254L1099.01 -2.59949L1093.79 6.63254H1104.24Z" fill="#0098FF" fill-opacity="0.1"/>
<path d="M1157.89 322.72H1128.26L1143.07 348.873L1157.89 322.72Z" fill="#0098FF" fill-opacity="0.1"/>
<path d="M1155.97 314.154L1143.07 291.385L1130.17 314.154H1155.97Z" fill="#0098FF" fill-opacity="0.1"/>
<path d="M1155.97 247.859H1130.18L1143.07 270.629L1155.97 247.859Z" fill="#0098FF" fill-opacity="0.1"/>
<path d="M1154.05 173.004H1132.09L1143.07 192.385L1154.05 173.004Z" fill="#0098FF" fill-opacity="0.1"/>
<path d="M1152.13 98.1427H1134.01L1143.07 114.136L1152.13 98.1427Z" fill="#0098FF" fill-opacity="0.1"/>
<path d="M1150.21 23.287H1135.94L1143.07 35.892L1150.21 23.287Z" fill="#0098FF" fill-opacity="0.1"/>
<path d="M1201.95 322.72H1172.32L1187.13 348.873L1201.95 322.72Z" fill="#0098FF" fill-opacity="0.1"/>
<path d="M1198.12 237.274L1187.13 217.887L1176.15 237.274H1198.12Z" fill="#0098FF" fill-opacity="0.1"/>
<path d="M1196.2 160.394L1187.13 144.395L1178.07 160.394H1196.2Z" fill="#0098FF" fill-opacity="0.1"/>
<path d="M1194.28 83.513L1187.13 70.8978L1179.99 83.513H1194.28Z" fill="#0098FF" fill-opacity="0.1"/>
<path d="M1192.36 6.63254L1187.13 -2.59949L1181.91 6.63254H1192.36Z" fill="#0098FF" fill-opacity="0.1"/>
<path d="M1244.09 313.703L1231.19 290.928L1218.29 313.703H1244.09Z" fill="#0098FF" fill-opacity="0.1"/>
<path d="M1244.09 247.48H1218.3L1231.19 270.25L1244.09 247.48Z" fill="#0098FF" fill-opacity="0.1"/>
<path d="M1242.17 172.701H1220.21L1231.19 192.078L1242.17 172.701Z" fill="#0098FF" fill-opacity="0.1"/>
<path d="M1240.25 97.9172H1222.13L1231.19 113.911L1240.25 97.9172Z" fill="#0098FF" fill-opacity="0.1"/>
<path d="M1238.34 83.2875L1231.2 70.6722L1224.05 83.2875H1238.34Z" fill="#0098FF" fill-opacity="0.1"/>
<path d="M1238.33 23.1333H1224.05L1231.19 35.7383L1238.33 23.1333Z" fill="#0098FF" fill-opacity="0.1"/>
<path d="M1236.42 6.47872L1231.19 -2.74817L1225.96 6.47872H1236.42Z" fill="#0098FF" fill-opacity="0.1"/>
<path d="M1288.15 313.704L1275.25 290.928L1262.36 313.704H1288.15Z" fill="#0098FF" fill-opacity="0.1"/>
<path d="M1286.23 236.895L1275.25 217.508L1264.27 236.895H1286.23Z" fill="#0098FF" fill-opacity="0.1"/>
<path d="M1284.32 160.091L1275.25 144.093L1266.19 160.091H1284.32Z" fill="#0098FF" fill-opacity="0.1"/>
<path d="M1284.31 97.9172H1266.19L1275.25 113.911L1284.31 97.9172Z" fill="#0098FF" fill-opacity="0.1"/>
<path d="M1282.4 23.1333H1268.11L1275.25 35.7383L1282.4 23.1333Z" fill="#0098FF" fill-opacity="0.1"/>
<path d="M1334.13 322.264H1304.5L1319.31 348.417L1334.13 322.264Z" fill="#0098FF" fill-opacity="0.1"/>
<path d="M1332.21 247.48H1306.42L1319.31 270.25L1332.21 247.48Z" fill="#0098FF" fill-opacity="0.1"/>
<path d="M1330.29 172.701H1308.33L1319.31 192.078L1330.29 172.701Z" fill="#0098FF" fill-opacity="0.1"/>
<path d="M1328.37 160.091L1319.31 144.093L1310.25 160.091H1328.37Z" fill="#0098FF" fill-opacity="0.1"/>
<path d="M1326.46 83.2875L1319.31 70.6722L1312.17 83.2875H1326.46Z" fill="#0098FF" fill-opacity="0.1"/>
<path d="M1324.54 6.47872L1319.31 -2.74817L1314.08 6.47872H1324.54Z" fill="#0098FF" fill-opacity="0.1"/>
<path d="M1378.2 322.264H1348.57L1363.39 348.417L1378.2 322.264Z" fill="#0098FF" fill-opacity="0.1"/>
<path d="M1376.29 313.704L1363.39 290.928L1350.49 313.704H1376.29Z" fill="#0098FF" fill-opacity="0.1"/>
<path d="M1374.37 236.895L1363.39 217.508L1352.41 236.895H1374.37Z" fill="#0098FF" fill-opacity="0.1"/>
<path d="M1372.45 160.091L1363.39 144.093L1354.32 160.091H1372.45Z" fill="#0098FF" fill-opacity="0.1"/>
<path d="M1372.45 97.9172H1354.33L1363.39 113.911L1372.45 97.9172Z" fill="#0098FF" fill-opacity="0.1"/>
<path d="M1370.53 83.2875L1363.39 70.6722L1356.24 83.2875H1370.53Z" fill="#0098FF" fill-opacity="0.1"/>
<path d="M1370.53 23.1333H1356.25L1363.39 35.7383L1370.53 23.1333Z" fill="#0098FF" fill-opacity="0.1"/>
<path d="M1422.24 320.901H1392.62L1407.43 347.054L1422.24 320.901Z" fill="#0098FF" fill-opacity="0.1"/>
<path d="M1420.33 312.335L1407.43 289.565L1394.54 312.335H1420.33Z" fill="#0098FF" fill-opacity="0.1"/>
<path d="M1420.33 246.342H1394.54L1407.44 269.112L1420.33 246.342Z" fill="#0098FF" fill-opacity="0.1"/>
<path d="M1418.42 235.757L1407.44 216.37L1396.46 235.757H1418.42Z" fill="#0098FF" fill-opacity="0.1"/>
<path d="M1418.41 171.789H1396.46L1407.44 191.17L1418.41 171.789Z" fill="#0098FF" fill-opacity="0.1"/>
<path d="M1416.5 159.179L1407.44 143.18L1398.37 159.179H1416.5Z" fill="#0098FF" fill-opacity="0.1"/>
<path d="M1416.5 97.2356H1398.38L1407.44 113.229L1416.5 97.2356Z" fill="#0098FF" fill-opacity="0.1"/>
<path d="M1414.58 82.6007L1407.44 69.9906L1400.29 82.6007H1414.58Z" fill="#0098FF" fill-opacity="0.1"/>
<path d="M1414.57 22.6771H1400.29L1407.44 35.2872L1414.57 22.6771Z" fill="#0098FF" fill-opacity="0.1"/>
<path d="M1412.66 6.02767L1407.44 -3.20435L1402.21 6.02767H1412.66Z" fill="#0098FF" fill-opacity="0.1"/>
</g>
<defs>
<clipPath id="clip0_160_14008">
<rect width="1428" height="671" fill="white" transform="translate(0 -87)"/>
</clipPath>
</defs>
</svg>
