<svg width="1440" height="905" viewBox="0 0 1440 905" fill="none" xmlns="http://www.w3.org/2000/svg">
<g opacity="0.6" clip-path="url(#clip0_146_1639)">
<path d="M2.36519 868.226H-39.8691L-18.752 909.033L2.36519 868.226Z" fill="#0098FF" fill-opacity="0.1"/>
<path d="M2.36519 862.991L-18.752 822.177L-39.8691 862.991H2.36519Z" fill="#0098FF" fill-opacity="0.1"/>
<path d="M0.190624 767.609L-18.7525 730.995L-37.7012 767.609H0.190624Z" fill="#0098FF" fill-opacity="0.1"/>
<path d="M52.2519 868.226H10.0176L31.1347 909.033L52.2519 868.226Z" fill="#0098FF" fill-opacity="0.1"/>
<path d="M52.2519 862.991L31.1347 822.177L10.0176 862.991H52.2519Z" fill="#0098FF" fill-opacity="0.1"/>
<path d="M50.0832 775.538H12.1914L31.1345 812.152L50.0832 775.538Z" fill="#0098FF" fill-opacity="0.1"/>
<path d="M47.9086 682.849H14.3594L31.134 715.264L47.9086 682.849Z" fill="#0098FF" fill-opacity="0.1"/>
<path d="M47.9086 672.233L31.134 639.812L14.3594 672.233H47.9086Z" fill="#0098FF" fill-opacity="0.1"/>
<path d="M45.7343 590.161H16.5332L31.1338 618.382L45.7343 590.161Z" fill="#0098FF" fill-opacity="0.1"/>
<path d="M43.5656 497.473H18.707L31.1335 521.495L43.5656 497.473Z" fill="#0098FF" fill-opacity="0.1"/>
<path d="M43.5656 481.469L31.1335 457.447L18.707 481.469H43.5656Z" fill="#0098FF" fill-opacity="0.1"/>
<path d="M39.2187 290.711L31.1347 275.082L23.0508 290.711H39.2187Z" fill="#0098FF" fill-opacity="0.1"/>
<path d="M37.0497 195.329L31.1342 183.899L25.2188 195.329H37.0497Z" fill="#0098FF" fill-opacity="0.1"/>
<path d="M102.143 868.226H59.9082L81.0254 909.033L102.143 868.226Z" fill="#0098FF" fill-opacity="0.1"/>
<path d="M102.143 862.991L81.0254 822.177L59.9082 862.991H102.143Z" fill="#0098FF" fill-opacity="0.1"/>
<path d="M99.968 775.538H62.0762L81.0249 812.152L99.968 775.538Z" fill="#0098FF" fill-opacity="0.1"/>
<path d="M99.968 767.609L81.0249 730.995L62.0762 767.609H99.968Z" fill="#0098FF" fill-opacity="0.1"/>
<path d="M97.7936 682.849H64.25L81.0246 715.264L97.7936 682.849Z" fill="#0098FF" fill-opacity="0.1"/>
<path d="M97.7936 672.233L81.0246 639.812L64.25 672.233H97.7936Z" fill="#0098FF" fill-opacity="0.1"/>
<path d="M95.6267 590.161H66.4199L81.0261 618.382L95.6267 590.161Z" fill="#0098FF" fill-opacity="0.1"/>
<path d="M95.6267 576.851L81.0261 548.63L66.4199 576.851H95.6267Z" fill="#0098FF" fill-opacity="0.1"/>
<path d="M93.4523 481.469L81.0259 457.447L68.5938 481.469H93.4523Z" fill="#0098FF" fill-opacity="0.1"/>
<path d="M91.2836 404.784H70.7676L81.0256 424.613L91.2836 404.784Z" fill="#0098FF" fill-opacity="0.1"/>
<path d="M91.2836 386.093L81.0256 366.264L70.7676 386.093H91.2836Z" fill="#0098FF" fill-opacity="0.1"/>
<path d="M86.9348 195.329L81.0249 183.899L75.1094 195.329H86.9348Z" fill="#0098FF" fill-opacity="0.1"/>
<path d="M152.027 868.226H109.793L130.91 909.033L152.027 868.226Z" fill="#0098FF" fill-opacity="0.1"/>
<path d="M152.027 862.991L130.91 822.177L109.793 862.991H152.027Z" fill="#0098FF" fill-opacity="0.1"/>
<path d="M149.855 775.538H111.969L130.912 812.152L149.855 775.538Z" fill="#0098FF" fill-opacity="0.1"/>
<path d="M149.855 767.609L130.912 730.995L111.969 767.609H149.855Z" fill="#0098FF" fill-opacity="0.1"/>
<path d="M147.686 682.85H114.137L130.911 715.264L147.686 682.85Z" fill="#0098FF" fill-opacity="0.1"/>
<path d="M147.686 672.233L130.911 639.812L114.137 672.233H147.686Z" fill="#0098FF" fill-opacity="0.1"/>
<path d="M145.512 576.851L130.911 548.63L116.311 576.851H145.512Z" fill="#0098FF" fill-opacity="0.1"/>
<path d="M143.343 497.473H118.479L130.911 521.495L143.343 497.473Z" fill="#0098FF" fill-opacity="0.1"/>
<path d="M143.343 481.469L130.911 457.447L118.479 481.469H143.343Z" fill="#0098FF" fill-opacity="0.1"/>
<path d="M141.168 404.785H120.652L130.91 424.613L141.168 404.785Z" fill="#0098FF" fill-opacity="0.1"/>
<path d="M138.994 312.102H122.826L130.91 327.725L138.994 312.102Z" fill="#0098FF" fill-opacity="0.1"/>
<path d="M136.827 219.414H124.996L130.912 230.844L136.827 219.414Z" fill="#0098FF" fill-opacity="0.1"/>
<path d="M134.653 126.726H127.17L130.911 133.956L134.653 126.726Z" fill="#0098FF" fill-opacity="0.1"/>
<path d="M201.92 868.226H159.68L180.797 909.034L201.92 868.226Z" fill="#0098FF" fill-opacity="0.1"/>
<path d="M201.92 862.991L180.797 822.178L159.68 862.991H201.92Z" fill="#0098FF" fill-opacity="0.1"/>
<path d="M199.745 775.538H161.854L180.797 812.152L199.745 775.538Z" fill="#0098FF" fill-opacity="0.1"/>
<path d="M199.745 767.609L180.797 730.995L161.854 767.609H199.745Z" fill="#0098FF" fill-opacity="0.1"/>
<path d="M197.571 682.849H164.027L180.796 715.264L197.571 682.849Z" fill="#0098FF" fill-opacity="0.1"/>
<path d="M197.571 672.233L180.796 639.812L164.027 672.233H197.571Z" fill="#0098FF" fill-opacity="0.1"/>
<path d="M195.404 576.851L180.798 548.63L166.197 576.851H195.404Z" fill="#0098FF" fill-opacity="0.1"/>
<path d="M193.23 497.473H168.371L180.798 521.495L193.23 497.473Z" fill="#0098FF" fill-opacity="0.1"/>
<path d="M191.055 404.784H170.545L180.797 424.613L191.055 404.784Z" fill="#0098FF" fill-opacity="0.1"/>
<path d="M191.055 386.093L180.797 366.264L170.545 386.093H191.055Z" fill="#0098FF" fill-opacity="0.1"/>
<path d="M188.886 290.711L180.797 275.082L172.713 290.711H188.886Z" fill="#0098FF" fill-opacity="0.1"/>
<path d="M251.805 868.226H209.57L230.687 909.033L251.805 868.226Z" fill="#0098FF" fill-opacity="0.1"/>
<path d="M251.805 862.991L230.687 822.177L209.57 862.991H251.805Z" fill="#0098FF" fill-opacity="0.1"/>
<path d="M249.63 775.538H211.744L230.687 812.152L249.63 775.538Z" fill="#0098FF" fill-opacity="0.1"/>
<path d="M247.463 682.849H213.914L230.689 715.264L247.463 682.849Z" fill="#0098FF" fill-opacity="0.1"/>
<path d="M245.289 590.161H216.088L230.688 618.382L245.289 590.161Z" fill="#0098FF" fill-opacity="0.1"/>
<path d="M243.114 481.469L230.688 457.447L218.256 481.469H243.114Z" fill="#0098FF" fill-opacity="0.1"/>
<path d="M240.946 386.093L230.688 366.264L220.43 386.093H240.946Z" fill="#0098FF" fill-opacity="0.1"/>
<path d="M236.602 195.329L230.687 183.899L224.771 195.329H236.602Z" fill="#0098FF" fill-opacity="0.1"/>
<path d="M301.691 868.226H259.457L280.574 909.033L301.691 868.226Z" fill="#0098FF" fill-opacity="0.1"/>
<path d="M299.523 775.538H261.631L280.574 812.152L299.523 775.538Z" fill="#0098FF" fill-opacity="0.1"/>
<path d="M299.523 767.609L280.574 730.995L261.631 767.609H299.523Z" fill="#0098FF" fill-opacity="0.1"/>
<path d="M297.348 672.233L280.574 639.812L263.805 672.233H297.348Z" fill="#0098FF" fill-opacity="0.1"/>
<path d="M295.181 590.161H265.975L280.575 618.382L295.181 590.161Z" fill="#0098FF" fill-opacity="0.1"/>
<path d="M295.181 576.851L280.575 548.63L265.975 576.851H295.181Z" fill="#0098FF" fill-opacity="0.1"/>
<path d="M293.007 497.473H268.148L280.575 521.495L293.007 497.473Z" fill="#0098FF" fill-opacity="0.1"/>
<path d="M290.832 404.784H270.316L280.574 424.613L290.832 404.784Z" fill="#0098FF" fill-opacity="0.1"/>
<path d="M288.664 312.102H272.49L280.574 327.725L288.664 312.102Z" fill="#0098FF" fill-opacity="0.1"/>
<path d="M288.664 290.711L280.574 275.082L272.49 290.711H288.664Z" fill="#0098FF" fill-opacity="0.1"/>
<path d="M286.489 219.414H274.664L280.574 230.844L286.489 219.414Z" fill="#0098FF" fill-opacity="0.1"/>
<path d="M286.489 195.329L280.574 183.899L274.664 195.329H286.489Z" fill="#0098FF" fill-opacity="0.1"/>
<path d="M351.582 868.226H309.348L330.465 909.033L351.582 868.226Z" fill="#0098FF" fill-opacity="0.1"/>
<path d="M351.582 862.991L330.465 822.177L309.348 862.991H351.582Z" fill="#0098FF" fill-opacity="0.1"/>
<path d="M349.407 767.609L330.464 730.995L311.516 767.609H349.407Z" fill="#0098FF" fill-opacity="0.1"/>
<path d="M347.241 682.85H313.691L330.466 715.264L347.241 682.85Z" fill="#0098FF" fill-opacity="0.1"/>
<path d="M347.241 672.233L330.466 639.812L313.691 672.233H347.241Z" fill="#0098FF" fill-opacity="0.1"/>
<path d="M345.066 576.851L330.466 548.63L315.865 576.851H345.066Z" fill="#0098FF" fill-opacity="0.1"/>
<path d="M342.892 481.469L330.465 457.447L318.033 481.469H342.892Z" fill="#0098FF" fill-opacity="0.1"/>
<path d="M340.723 386.093L330.465 366.264L320.207 386.093H340.723Z" fill="#0098FF" fill-opacity="0.1"/>
<path d="M338.549 312.102H322.381L330.465 327.725L338.549 312.102Z" fill="#0098FF" fill-opacity="0.1"/>
<path d="M334.206 126.726H326.723L330.464 133.956L334.206 126.726Z" fill="#0098FF" fill-opacity="0.1"/>
<path d="M401.469 868.226H359.234L380.352 909.033L401.469 868.226Z" fill="#0098FF" fill-opacity="0.1"/>
<path d="M401.469 862.991L380.352 822.177L359.234 862.991H401.469Z" fill="#0098FF" fill-opacity="0.1"/>
<path d="M399.3 775.538H361.408L380.351 812.152L399.3 775.538Z" fill="#0098FF" fill-opacity="0.1"/>
<path d="M399.3 767.609L380.351 730.995L361.408 767.609H399.3Z" fill="#0098FF" fill-opacity="0.1"/>
<path d="M397.127 682.849H363.578L380.353 715.264L397.127 682.849Z" fill="#0098FF" fill-opacity="0.1"/>
<path d="M394.953 590.161H365.752L380.353 618.382L394.953 590.161Z" fill="#0098FF" fill-opacity="0.1"/>
<path d="M394.953 576.851L380.353 548.63L365.752 576.851H394.953Z" fill="#0098FF" fill-opacity="0.1"/>
<path d="M392.784 497.473H367.926L380.352 521.495L392.784 497.473Z" fill="#0098FF" fill-opacity="0.1"/>
<path d="M392.784 481.469L380.352 457.447L367.926 481.469H392.784Z" fill="#0098FF" fill-opacity="0.1"/>
<path d="M390.61 404.784H370.094L380.352 424.613L390.61 404.784Z" fill="#0098FF" fill-opacity="0.1"/>
<path d="M451.359 862.991L430.242 822.177L409.125 862.991H451.359Z" fill="#0098FF" fill-opacity="0.1"/>
<path d="M449.185 775.538H411.293L430.242 812.152L449.185 775.538Z" fill="#0098FF" fill-opacity="0.1"/>
<path d="M449.185 767.609L430.242 730.995L411.293 767.609H449.185Z" fill="#0098FF" fill-opacity="0.1"/>
<path d="M447.016 682.849H413.467L430.241 715.264L447.016 682.849Z" fill="#0098FF" fill-opacity="0.1"/>
<path d="M447.016 672.233L430.241 639.812L413.467 672.233H447.016Z" fill="#0098FF" fill-opacity="0.1"/>
<path d="M444.844 576.851L430.243 548.63L415.643 576.851H444.844Z" fill="#0098FF" fill-opacity="0.1"/>
<path d="M442.669 481.469L430.243 457.447L417.811 481.469H442.669Z" fill="#0098FF" fill-opacity="0.1"/>
<path d="M440.5 404.784H419.984L430.242 424.613L440.5 404.784Z" fill="#0098FF" fill-opacity="0.1"/>
<path d="M438.326 312.102H422.152L430.242 327.725L438.326 312.102Z" fill="#0098FF" fill-opacity="0.1"/>
<path d="M436.152 219.414H424.326L430.242 230.844L436.152 219.414Z" fill="#0098FF" fill-opacity="0.1"/>
<path d="M436.152 195.329L430.242 183.899L424.326 195.329H436.152Z" fill="#0098FF" fill-opacity="0.1"/>
<path d="M501.244 868.226H459.01L480.127 909.033L501.244 868.226Z" fill="#0098FF" fill-opacity="0.1"/>
<path d="M501.244 862.991L480.127 822.177L459.01 862.991H501.244Z" fill="#0098FF" fill-opacity="0.1"/>
<path d="M499.075 775.538H461.184L480.127 812.152L499.075 775.538Z" fill="#0098FF" fill-opacity="0.1"/>
<path d="M499.075 767.609L480.127 730.995L461.184 767.609H499.075Z" fill="#0098FF" fill-opacity="0.1"/>
<path d="M494.728 590.161H465.527L480.128 618.382L494.728 590.161Z" fill="#0098FF" fill-opacity="0.1"/>
<path d="M492.56 497.473H467.701L480.128 521.495L492.56 497.473Z" fill="#0098FF" fill-opacity="0.1"/>
<path d="M492.56 481.469L480.128 457.447L467.701 481.469H492.56Z" fill="#0098FF" fill-opacity="0.1"/>
<path d="M490.385 386.093L480.127 366.264L469.869 386.093H490.385Z" fill="#0098FF" fill-opacity="0.1"/>
<path d="M488.217 312.102H472.043L480.127 327.725L488.217 312.102Z" fill="#0098FF" fill-opacity="0.1"/>
<path d="M551.135 868.226H508.9L530.018 909.033L551.135 868.226Z" fill="#0098FF" fill-opacity="0.1"/>
<path d="M551.135 862.991L530.018 822.177L508.9 862.991H551.135Z" fill="#0098FF" fill-opacity="0.1"/>
<path d="M548.962 775.538H511.07L530.019 812.152L548.962 775.538Z" fill="#0098FF" fill-opacity="0.1"/>
<path d="M548.962 767.609L530.019 730.995L511.07 767.609H548.962Z" fill="#0098FF" fill-opacity="0.1"/>
<path d="M546.788 682.849H513.244L530.019 715.264L546.788 682.849Z" fill="#0098FF" fill-opacity="0.1"/>
<path d="M546.788 672.233L530.019 639.812L513.244 672.233H546.788Z" fill="#0098FF" fill-opacity="0.1"/>
<path d="M544.619 590.161H515.412L530.018 618.382L544.619 590.161Z" fill="#0098FF" fill-opacity="0.1"/>
<path d="M544.619 576.851L530.018 548.63L515.412 576.851H544.619Z" fill="#0098FF" fill-opacity="0.1"/>
<path d="M542.445 497.473H517.586L530.018 521.495L542.445 497.473Z" fill="#0098FF" fill-opacity="0.1"/>
<path d="M540.276 404.784H519.76L530.018 424.613L540.276 404.784Z" fill="#0098FF" fill-opacity="0.1"/>
<path d="M538.101 290.711L530.017 275.082L521.928 290.711H538.101Z" fill="#0098FF" fill-opacity="0.1"/>
<path d="M535.929 195.329L530.019 183.899L524.104 195.329H535.929Z" fill="#0098FF" fill-opacity="0.1"/>
<path d="M601.021 868.226H558.787L579.904 909.033L601.021 868.226Z" fill="#0098FF" fill-opacity="0.1"/>
<path d="M601.021 862.991L579.904 822.177L558.787 862.991H601.021Z" fill="#0098FF" fill-opacity="0.1"/>
<path d="M598.853 775.538H560.961L579.904 812.152L598.853 775.538Z" fill="#0098FF" fill-opacity="0.1"/>
<path d="M596.68 682.849H563.131L579.905 715.264L596.68 682.849Z" fill="#0098FF" fill-opacity="0.1"/>
<path d="M596.68 672.233L579.905 639.812L563.131 672.233H596.68Z" fill="#0098FF" fill-opacity="0.1"/>
<path d="M594.506 576.851L579.905 548.63L565.305 576.851H594.506Z" fill="#0098FF" fill-opacity="0.1"/>
<path d="M592.337 497.473H567.479L579.905 521.495L592.337 497.473Z" fill="#0098FF" fill-opacity="0.1"/>
<path d="M590.163 404.784H569.646L579.905 424.613L590.163 404.784Z" fill="#0098FF" fill-opacity="0.1"/>
<path d="M650.912 868.226H608.678L629.795 909.033L650.912 868.226Z" fill="#0098FF" fill-opacity="0.1"/>
<path d="M650.912 862.991L629.795 822.177L608.678 862.991H650.912Z" fill="#0098FF" fill-opacity="0.1"/>
<path d="M648.739 775.538H610.848L629.796 812.152L648.739 775.538Z" fill="#0098FF" fill-opacity="0.1"/>
<path d="M648.739 767.609L629.796 730.995L610.848 767.609H648.739Z" fill="#0098FF" fill-opacity="0.1"/>
<path d="M646.565 672.233L629.796 639.812L613.021 672.233H646.565Z" fill="#0098FF" fill-opacity="0.1"/>
<path d="M644.396 590.161H615.189L629.796 618.382L644.396 590.161Z" fill="#0098FF" fill-opacity="0.1"/>
<path d="M642.222 481.469L629.795 457.447L617.363 481.469H642.222Z" fill="#0098FF" fill-opacity="0.1"/>
<path d="M640.048 386.093L629.795 366.264L619.537 386.093H640.048Z" fill="#0098FF" fill-opacity="0.1"/>
<path d="M637.879 312.102H621.705L629.795 327.725L637.879 312.102Z" fill="#0098FF" fill-opacity="0.1"/>
<path d="M635.704 219.414H623.879L629.794 230.844L635.704 219.414Z" fill="#0098FF" fill-opacity="0.1"/>
<path d="M635.704 195.329L629.794 183.899L623.879 195.329H635.704Z" fill="#0098FF" fill-opacity="0.1"/>
<path d="M633.538 126.726H626.055L629.796 133.956L633.538 126.726Z" fill="#0098FF" fill-opacity="0.1"/>
<path d="M700.801 868.226H658.566L679.684 909.033L700.801 868.226Z" fill="#0098FF" fill-opacity="0.1"/>
<path d="M700.801 862.991L679.684 822.177L658.566 862.991H700.801Z" fill="#0098FF" fill-opacity="0.1"/>
<path d="M698.626 767.609L679.683 730.995L660.74 767.609H698.626Z" fill="#0098FF" fill-opacity="0.1"/>
<path d="M696.457 682.849H662.908L679.683 715.264L696.457 682.849Z" fill="#0098FF" fill-opacity="0.1"/>
<path d="M694.285 590.161H665.084L679.685 618.382L694.285 590.161Z" fill="#0098FF" fill-opacity="0.1"/>
<path d="M694.285 576.851L679.685 548.63L665.084 576.851H694.285Z" fill="#0098FF" fill-opacity="0.1"/>
<path d="M692.116 497.473H667.252L679.684 521.495L692.116 497.473Z" fill="#0098FF" fill-opacity="0.1"/>
<path d="M692.116 481.469L679.684 457.447L667.252 481.469H692.116Z" fill="#0098FF" fill-opacity="0.1"/>
<path d="M687.768 290.711L679.684 275.082L671.6 290.711H687.768Z" fill="#0098FF" fill-opacity="0.1"/>
<path d="M685.601 195.329L679.685 183.899L673.77 195.329H685.601Z" fill="#0098FF" fill-opacity="0.1"/>
<path d="M750.689 868.226H708.449L729.566 909.033L750.689 868.226Z" fill="#0098FF" fill-opacity="0.1"/>
<path d="M750.689 862.991L729.566 822.178L708.449 862.991H750.689Z" fill="#0098FF" fill-opacity="0.1"/>
<path d="M748.517 775.538H710.625L729.568 812.152L748.517 775.538Z" fill="#0098FF" fill-opacity="0.1"/>
<path d="M746.342 682.849H712.799L729.568 715.264L746.342 682.849Z" fill="#0098FF" fill-opacity="0.1"/>
<path d="M746.342 672.233L729.568 639.812L712.799 672.233H746.342Z" fill="#0098FF" fill-opacity="0.1"/>
<path d="M744.174 576.851L729.567 548.63L714.967 576.851H744.174Z" fill="#0098FF" fill-opacity="0.1"/>
<path d="M741.999 481.469L729.567 457.447L717.141 481.469H741.999Z" fill="#0098FF" fill-opacity="0.1"/>
<path d="M739.825 404.784H719.314L729.567 424.613L739.825 404.784Z" fill="#0098FF" fill-opacity="0.1"/>
<path d="M737.658 312.102H721.484L729.568 327.725L737.658 312.102Z" fill="#0098FF" fill-opacity="0.1"/>
<path d="M735.484 219.414H723.658L729.568 230.844L735.484 219.414Z" fill="#0098FF" fill-opacity="0.1"/>
<path d="M27.3085 909.789L6.19138 868.976L-14.9258 909.789H27.3085Z" fill="#0098FF" fill-opacity="0.1"/>
<path d="M27.3085 820.1H-14.9258L6.19138 860.913L27.3085 820.1Z" fill="#0098FF" fill-opacity="0.1"/>
<path d="M25.1416 814.503L6.19285 777.882L-12.7559 814.503H25.1416Z" fill="#0098FF" fill-opacity="0.1"/>
<path d="M25.1359 727.323H-12.7559L6.19285 763.937L25.1359 727.323Z" fill="#0098FF" fill-opacity="0.1"/>
<path d="M22.9672 719.216L6.1926 686.795L-10.582 719.216H22.9672Z" fill="#0098FF" fill-opacity="0.1"/>
<path d="M20.7983 623.923L6.19212 595.701L-8.41406 623.923H20.7983Z" fill="#0098FF" fill-opacity="0.1"/>
<path d="M20.7929 541.755H-8.4082L6.19236 569.977L20.7929 541.755Z" fill="#0098FF" fill-opacity="0.1"/>
<path d="M18.6184 448.978H-6.24023L6.19187 473L18.6184 448.978Z" fill="#0098FF" fill-opacity="0.1"/>
<path d="M16.4497 356.194H-4.06641L6.19163 376.017L16.4497 356.194Z" fill="#0098FF" fill-opacity="0.1"/>
<path d="M12.1137 242.775L6.1926 231.333L0.271484 242.775H12.1137Z" fill="#0098FF" fill-opacity="0.1"/>
<path d="M12.1064 170.633H0.275391L6.19089 182.063L12.1064 170.633Z" fill="#0098FF" fill-opacity="0.1"/>
<path d="M77.2009 909.79L56.0781 868.976L34.9609 909.79H77.2009Z" fill="#0098FF" fill-opacity="0.1"/>
<path d="M75.0266 814.503L56.0779 777.882L37.1348 814.503H75.0266Z" fill="#0098FF" fill-opacity="0.1"/>
<path d="M75.0266 727.323H37.1348L56.0779 763.937L75.0266 727.323Z" fill="#0098FF" fill-opacity="0.1"/>
<path d="M72.8522 634.539H39.3086L56.0776 666.953L72.8522 634.539Z" fill="#0098FF" fill-opacity="0.1"/>
<path d="M70.6853 541.755H41.4785L56.0791 569.977L70.6853 541.755Z" fill="#0098FF" fill-opacity="0.1"/>
<path d="M68.5107 528.636L56.0786 504.607L43.6465 528.636H68.5107Z" fill="#0098FF" fill-opacity="0.1"/>
<path d="M66.342 433.349L56.0783 413.52L45.8203 433.349H66.342Z" fill="#0098FF" fill-opacity="0.1"/>
<path d="M66.3364 356.194H45.8203L56.0784 376.017L66.3364 356.194Z" fill="#0098FF" fill-opacity="0.1"/>
<path d="M64.1674 338.062L56.0779 322.427L47.9883 338.062H64.1674Z" fill="#0098FF" fill-opacity="0.1"/>
<path d="M64.1677 263.417H47.9941L56.0781 279.04L64.1677 263.417Z" fill="#0098FF" fill-opacity="0.1"/>
<path d="M61.9987 242.775L56.0776 231.333L50.1621 242.775H61.9987Z" fill="#0098FF" fill-opacity="0.1"/>
<path d="M59.8261 147.488L56.0791 140.245L52.332 147.488H59.8261Z" fill="#0098FF" fill-opacity="0.1"/>
<path d="M127.086 909.789L105.969 868.976L84.8516 909.789H127.086Z" fill="#0098FF" fill-opacity="0.1"/>
<path d="M127.086 820.1H84.8516L105.969 860.914L127.086 820.1Z" fill="#0098FF" fill-opacity="0.1"/>
<path d="M124.913 814.503L105.97 777.882L87.0215 814.503H124.913Z" fill="#0098FF" fill-opacity="0.1"/>
<path d="M122.745 719.216L105.97 686.795L89.1953 719.216H122.745Z" fill="#0098FF" fill-opacity="0.1"/>
<path d="M120.57 623.923L105.969 595.701L91.3633 623.923H120.57Z" fill="#0098FF" fill-opacity="0.1"/>
<path d="M118.401 528.636L105.969 504.608L93.5371 528.636H118.401Z" fill="#0098FF" fill-opacity="0.1"/>
<path d="M118.396 448.978H93.5371L105.969 473L118.396 448.978Z" fill="#0098FF" fill-opacity="0.1"/>
<path d="M114.058 338.062L105.968 322.427L97.8789 338.062H114.058Z" fill="#0098FF" fill-opacity="0.1"/>
<path d="M114.053 263.417H97.8848L105.969 279.04L114.053 263.417Z" fill="#0098FF" fill-opacity="0.1"/>
<path d="M176.971 909.789L155.853 868.976L134.736 909.789H176.971Z" fill="#0098FF" fill-opacity="0.1"/>
<path d="M176.971 820.1H134.736L155.853 860.914L176.971 820.1Z" fill="#0098FF" fill-opacity="0.1"/>
<path d="M174.802 727.323H136.91L155.853 763.937L174.802 727.323Z" fill="#0098FF" fill-opacity="0.1"/>
<path d="M172.627 634.539H139.078L155.853 666.954L172.627 634.539Z" fill="#0098FF" fill-opacity="0.1"/>
<path d="M170.459 623.923L155.853 595.701L141.252 623.923H170.459Z" fill="#0098FF" fill-opacity="0.1"/>
<path d="M170.455 541.755H141.254L155.854 569.977L170.455 541.755Z" fill="#0098FF" fill-opacity="0.1"/>
<path d="M166.112 356.194H145.596L155.854 376.017L166.112 356.194Z" fill="#0098FF" fill-opacity="0.1"/>
<path d="M161.774 242.775L155.853 231.333L149.938 242.775H161.774Z" fill="#0098FF" fill-opacity="0.1"/>
<path d="M161.769 170.633H149.943L155.853 182.063L161.769 170.633Z" fill="#0098FF" fill-opacity="0.1"/>
<path d="M226.863 909.79L205.746 868.976L184.629 909.79H226.863Z" fill="#0098FF" fill-opacity="0.1"/>
<path d="M226.863 820.1H184.629L205.746 860.913L226.863 820.1Z" fill="#0098FF" fill-opacity="0.1"/>
<path d="M224.689 814.503L205.746 777.882L186.797 814.503H224.689Z" fill="#0098FF" fill-opacity="0.1"/>
<path d="M224.691 727.323H186.799L205.748 763.937L224.691 727.323Z" fill="#0098FF" fill-opacity="0.1"/>
<path d="M222.522 719.216L205.747 686.795L188.973 719.216H222.522Z" fill="#0098FF" fill-opacity="0.1"/>
<path d="M222.522 634.539H188.973L205.747 666.954L222.522 634.539Z" fill="#0098FF" fill-opacity="0.1"/>
<path d="M220.347 623.923L205.747 595.701L191.141 623.923H220.347Z" fill="#0098FF" fill-opacity="0.1"/>
<path d="M220.348 541.755H191.146L205.747 569.977L220.348 541.755Z" fill="#0098FF" fill-opacity="0.1"/>
<path d="M218.179 528.636L205.747 504.607L193.314 528.636H218.179Z" fill="#0098FF" fill-opacity="0.1"/>
<path d="M218.173 448.978H193.314L205.747 473L218.173 448.978Z" fill="#0098FF" fill-opacity="0.1"/>
<path d="M213.835 338.062L205.746 322.427L197.656 338.062H213.835Z" fill="#0098FF" fill-opacity="0.1"/>
<path d="M213.83 263.417H197.656L205.746 279.04L213.83 263.417Z" fill="#0098FF" fill-opacity="0.1"/>
<path d="M211.661 242.775L205.745 231.333L199.824 242.775H211.661Z" fill="#0098FF" fill-opacity="0.1"/>
<path d="M209.494 147.488L205.747 140.245L202 147.488H209.494Z" fill="#0098FF" fill-opacity="0.1"/>
<path d="M276.748 909.789L255.631 868.976L234.514 909.789H276.748Z" fill="#0098FF" fill-opacity="0.1"/>
<path d="M276.748 820.1H234.514L255.631 860.913L276.748 820.1Z" fill="#0098FF" fill-opacity="0.1"/>
<path d="M274.579 814.503L255.631 777.882L236.688 814.503H274.579Z" fill="#0098FF" fill-opacity="0.1"/>
<path d="M274.579 727.323H236.688L255.631 763.937L274.579 727.323Z" fill="#0098FF" fill-opacity="0.1"/>
<path d="M272.405 719.216L255.63 686.795L238.855 719.216H272.405Z" fill="#0098FF" fill-opacity="0.1"/>
<path d="M272.407 634.539H238.857L255.632 666.953L272.407 634.539Z" fill="#0098FF" fill-opacity="0.1"/>
<path d="M270.238 623.923L255.632 595.701L241.031 623.923H270.238Z" fill="#0098FF" fill-opacity="0.1"/>
<path d="M268.063 528.636L255.631 504.607L243.199 528.636H268.063Z" fill="#0098FF" fill-opacity="0.1"/>
<path d="M265.895 433.349L255.631 413.52L245.373 433.349H265.895Z" fill="#0098FF" fill-opacity="0.1"/>
<path d="M265.889 356.194H245.373L255.631 376.017L265.889 356.194Z" fill="#0098FF" fill-opacity="0.1"/>
<path d="M263.715 263.417H247.547L255.631 279.04L263.715 263.417Z" fill="#0098FF" fill-opacity="0.1"/>
<path d="M261.551 242.775L255.63 231.333L249.715 242.775H261.551Z" fill="#0098FF" fill-opacity="0.1"/>
<path d="M326.64 909.79L305.523 868.976L284.4 909.79H326.64Z" fill="#0098FF" fill-opacity="0.1"/>
<path d="M326.641 820.1H284.406L305.523 860.914L326.641 820.1Z" fill="#0098FF" fill-opacity="0.1"/>
<path d="M324.466 814.503L305.523 777.882L286.574 814.503H324.466Z" fill="#0098FF" fill-opacity="0.1"/>
<path d="M324.466 727.323H286.574L305.523 763.937L324.466 727.323Z" fill="#0098FF" fill-opacity="0.1"/>
<path d="M322.299 719.216L305.524 686.795L288.744 719.216H322.299Z" fill="#0098FF" fill-opacity="0.1"/>
<path d="M322.292 634.539H288.748L305.523 666.954L322.292 634.539Z" fill="#0098FF" fill-opacity="0.1"/>
<path d="M320.125 541.755H290.918L305.524 569.977L320.125 541.755Z" fill="#0098FF" fill-opacity="0.1"/>
<path d="M317.95 448.978H293.092L305.524 473L317.95 448.978Z" fill="#0098FF" fill-opacity="0.1"/>
<path d="M376.525 909.789L355.408 868.976L334.291 909.789H376.525Z" fill="#0098FF" fill-opacity="0.1"/>
<path d="M376.525 820.1H334.291L355.408 860.913L376.525 820.1Z" fill="#0098FF" fill-opacity="0.1"/>
<path d="M374.358 814.503L355.41 777.882L336.461 814.503H374.358Z" fill="#0098FF" fill-opacity="0.1"/>
<path d="M372.184 719.216L355.409 686.795L338.635 719.216H372.184Z" fill="#0098FF" fill-opacity="0.1"/>
<path d="M370.015 623.923L355.409 595.701L340.803 623.923H370.015Z" fill="#0098FF" fill-opacity="0.1"/>
<path d="M367.841 528.636L355.409 504.607L342.977 528.636H367.841Z" fill="#0098FF" fill-opacity="0.1"/>
<path d="M365.672 433.349L355.408 413.52L345.145 433.349H365.672Z" fill="#0098FF" fill-opacity="0.1"/>
<path d="M365.666 356.194H345.15L355.408 376.017L365.666 356.194Z" fill="#0098FF" fill-opacity="0.1"/>
<path d="M363.492 263.417H347.324L355.408 279.04L363.492 263.417Z" fill="#0098FF" fill-opacity="0.1"/>
<path d="M361.331 242.775L355.409 231.333L349.488 242.775H361.331Z" fill="#0098FF" fill-opacity="0.1"/>
<path d="M361.323 170.633H349.492L355.408 182.063L361.323 170.633Z" fill="#0098FF" fill-opacity="0.1"/>
<path d="M426.418 909.79L405.301 868.976L384.178 909.79H426.418Z" fill="#0098FF" fill-opacity="0.1"/>
<path d="M426.418 820.1H384.178L405.301 860.913L426.418 820.1Z" fill="#0098FF" fill-opacity="0.1"/>
<path d="M424.243 814.503L405.3 777.882L386.352 814.503H424.243Z" fill="#0098FF" fill-opacity="0.1"/>
<path d="M424.243 727.323H386.352L405.3 763.937L424.243 727.323Z" fill="#0098FF" fill-opacity="0.1"/>
<path d="M422.069 634.539H388.525L405.3 666.954L422.069 634.539Z" fill="#0098FF" fill-opacity="0.1"/>
<path d="M419.902 623.923L405.301 595.701L390.695 623.923H419.902Z" fill="#0098FF" fill-opacity="0.1"/>
<path d="M419.902 541.755H390.695L405.301 569.977L419.902 541.755Z" fill="#0098FF" fill-opacity="0.1"/>
<path d="M417.733 528.636L405.301 504.608L392.863 528.636H417.733Z" fill="#0098FF" fill-opacity="0.1"/>
<path d="M413.39 338.062L405.3 322.427L397.205 338.062H413.39Z" fill="#0098FF" fill-opacity="0.1"/>
<path d="M413.384 263.417H397.211L405.3 279.04L413.384 263.417Z" fill="#0098FF" fill-opacity="0.1"/>
<path d="M411.217 242.775L405.302 231.333L399.381 242.775H411.217Z" fill="#0098FF" fill-opacity="0.1"/>
<path d="M409.049 147.488L405.301 140.245L401.549 147.488H409.049Z" fill="#0098FF" fill-opacity="0.1"/>
<path d="M476.303 909.789L455.186 868.976L434.068 909.789H476.303Z" fill="#0098FF" fill-opacity="0.1"/>
<path d="M476.303 820.1H434.068L455.186 860.913L476.303 820.1Z" fill="#0098FF" fill-opacity="0.1"/>
<path d="M474.134 814.503L455.185 777.882L436.236 814.503H474.134Z" fill="#0098FF" fill-opacity="0.1"/>
<path d="M471.961 719.216L455.187 686.795L438.412 719.216H471.961Z" fill="#0098FF" fill-opacity="0.1"/>
<path d="M471.961 634.539H438.412L455.187 666.954L471.961 634.539Z" fill="#0098FF" fill-opacity="0.1"/>
<path d="M469.792 623.923L455.186 595.701L440.58 623.923H469.792Z" fill="#0098FF" fill-opacity="0.1"/>
<path d="M469.787 541.755H440.586L455.186 569.977L469.787 541.755Z" fill="#0098FF" fill-opacity="0.1"/>
<path d="M467.618 448.978H442.754L455.186 473L467.618 448.978Z" fill="#0098FF" fill-opacity="0.1"/>
<path d="M465.444 356.194H444.928L455.186 376.017L465.444 356.194Z" fill="#0098FF" fill-opacity="0.1"/>
<path d="M463.269 263.417H447.102L455.185 279.04L463.269 263.417Z" fill="#0098FF" fill-opacity="0.1"/>
<path d="M461.102 170.633H449.271L455.187 182.063L461.102 170.633Z" fill="#0098FF" fill-opacity="0.1"/>
<path d="M526.193 909.79L505.07 868.976L483.953 909.79H526.193Z" fill="#0098FF" fill-opacity="0.1"/>
<path d="M526.187 820.1H483.953L505.07 860.914L526.187 820.1Z" fill="#0098FF" fill-opacity="0.1"/>
<path d="M524.021 727.323H486.129L505.072 763.937L524.021 727.323Z" fill="#0098FF" fill-opacity="0.1"/>
<path d="M521.852 719.216L505.072 686.795L488.297 719.216H521.852Z" fill="#0098FF" fill-opacity="0.1"/>
<path d="M521.846 634.539H488.303L505.072 666.953L521.846 634.539Z" fill="#0098FF" fill-opacity="0.1"/>
<path d="M517.508 528.636L505.071 504.607L492.639 528.636H517.508Z" fill="#0098FF" fill-opacity="0.1"/>
<path d="M515.334 433.349L505.071 413.52L494.812 433.349H515.334Z" fill="#0098FF" fill-opacity="0.1"/>
<path d="M513.167 338.062L505.072 322.427L496.982 338.062H513.167Z" fill="#0098FF" fill-opacity="0.1"/>
<path d="M510.993 242.775L505.072 231.333L499.156 242.775H510.993Z" fill="#0098FF" fill-opacity="0.1"/>
<path d="M508.824 147.488L505.071 140.245L501.324 147.488H508.824Z" fill="#0098FF" fill-opacity="0.1"/>
<path d="M576.08 908.944L554.963 868.131L533.846 908.944H576.08Z" fill="#0098FF" fill-opacity="0.1"/>
<path d="M573.911 813.747L554.962 777.132L536.014 813.747H573.911Z" fill="#0098FF" fill-opacity="0.1"/>
<path d="M573.906 726.662H536.014L554.962 763.276L573.906 726.662Z" fill="#0098FF" fill-opacity="0.1"/>
<path d="M569.57 623.363L554.964 595.136L540.357 623.363H569.57Z" fill="#0098FF" fill-opacity="0.1"/>
<path d="M569.564 541.285H540.363L554.964 569.507L569.564 541.285Z" fill="#0098FF" fill-opacity="0.1"/>
<path d="M567.39 448.603H542.531L554.963 472.619L567.39 448.603Z" fill="#0098FF" fill-opacity="0.1"/>
<path d="M565.221 355.915H544.705L554.963 375.737L565.221 355.915Z" fill="#0098FF" fill-opacity="0.1"/>
<path d="M563.054 337.782L554.965 322.147L546.875 337.782H563.054Z" fill="#0098FF" fill-opacity="0.1"/>
<path d="M563.047 263.226H546.879L554.963 278.849L563.047 263.226Z" fill="#0098FF" fill-opacity="0.1"/>
<path d="M560.885 242.585L554.964 231.149L549.043 242.585H560.885Z" fill="#0098FF" fill-opacity="0.1"/>
<path d="M625.963 908.944L604.846 868.131L583.729 908.944H625.963Z" fill="#0098FF" fill-opacity="0.1"/>
<path d="M625.965 819.35H583.73L604.848 860.157L625.965 819.35Z" fill="#0098FF" fill-opacity="0.1"/>
<path d="M623.796 813.746L604.847 777.132L585.904 813.746H623.796Z" fill="#0098FF" fill-opacity="0.1"/>
<path d="M623.796 726.662H585.904L604.847 763.276L623.796 726.662Z" fill="#0098FF" fill-opacity="0.1"/>
<path d="M621.622 718.555L604.847 686.134L588.072 718.555H621.622Z" fill="#0098FF" fill-opacity="0.1"/>
<path d="M619.453 623.363L604.847 595.136L590.246 623.363H619.453Z" fill="#0098FF" fill-opacity="0.1"/>
<path d="M617.278 528.165L604.846 504.137L592.414 528.165H617.278Z" fill="#0098FF" fill-opacity="0.1"/>
<path d="M615.11 432.974L604.846 413.145L594.588 432.974H615.11Z" fill="#0098FF" fill-opacity="0.1"/>
<path d="M615.104 355.915H594.588L604.846 375.737L615.104 355.915Z" fill="#0098FF" fill-opacity="0.1"/>
<path d="M612.935 263.226H596.762L604.846 278.849L612.935 263.226Z" fill="#0098FF" fill-opacity="0.1"/>
<path d="M610.761 170.538H598.936L604.845 181.968L610.761 170.538Z" fill="#0098FF" fill-opacity="0.1"/>
<path d="M675.857 908.944L654.74 868.131L633.623 908.944H675.857Z" fill="#0098FF" fill-opacity="0.1"/>
<path d="M675.857 819.35H633.623L654.74 860.157L675.857 819.35Z" fill="#0098FF" fill-opacity="0.1"/>
<path d="M673.683 813.747L654.74 777.132L635.791 813.747H673.683Z" fill="#0098FF" fill-opacity="0.1"/>
<path d="M673.683 726.662H635.791L654.74 763.276L673.683 726.662Z" fill="#0098FF" fill-opacity="0.1"/>
<path d="M671.514 718.555L654.739 686.134L637.965 718.555H671.514Z" fill="#0098FF" fill-opacity="0.1"/>
<path d="M671.514 633.974H637.965L654.739 666.388L671.514 633.974Z" fill="#0098FF" fill-opacity="0.1"/>
<path d="M669.34 541.285H640.139L654.739 569.507L669.34 541.285Z" fill="#0098FF" fill-opacity="0.1"/>
<path d="M667.167 448.603H642.309L654.741 472.619L667.167 448.603Z" fill="#0098FF" fill-opacity="0.1"/>
<path d="M664.998 432.974L654.74 413.145L644.477 432.974H664.998Z" fill="#0098FF" fill-opacity="0.1"/>
<path d="M662.83 337.782L654.74 322.147L646.65 337.782H662.83Z" fill="#0098FF" fill-opacity="0.1"/>
<path d="M660.655 242.585L654.739 231.149L648.818 242.585H660.655Z" fill="#0098FF" fill-opacity="0.1"/>
<path d="M725.76 908.944L704.643 868.131L683.525 908.944H725.76Z" fill="#0098FF" fill-opacity="0.1"/>
<path d="M725.76 819.35H683.525L704.643 860.157L725.76 819.35Z" fill="#0098FF" fill-opacity="0.1"/>
<path d="M723.591 813.747L704.642 777.132L685.693 813.747H723.591Z" fill="#0098FF" fill-opacity="0.1"/>
<path d="M723.585 726.662H685.699L704.642 763.276L723.585 726.662Z" fill="#0098FF" fill-opacity="0.1"/>
<path d="M721.416 633.974H687.867L704.642 666.388L721.416 633.974Z" fill="#0098FF" fill-opacity="0.1"/>
<path d="M719.248 623.363L704.641 595.136L690.035 623.363H719.248Z" fill="#0098FF" fill-opacity="0.1"/>
<path d="M717.073 528.166L704.641 504.137L692.209 528.166H717.073Z" fill="#0098FF" fill-opacity="0.1"/>
<path d="M714.906 432.974L704.643 413.145L694.379 432.974H714.906Z" fill="#0098FF" fill-opacity="0.1"/>
<path d="M714.901 355.915H694.385L704.643 375.737L714.901 355.915Z" fill="#0098FF" fill-opacity="0.1"/>
<path d="M712.732 337.782L704.642 322.147L696.553 337.782H712.732Z" fill="#0098FF" fill-opacity="0.1"/>
<path d="M712.727 263.226H696.559L704.643 278.849L712.727 263.226Z" fill="#0098FF" fill-opacity="0.1"/>
<path d="M708.391 147.393L704.644 140.15L700.896 147.393H708.391Z" fill="#0098FF" fill-opacity="0.1"/>
<path d="M775.633 906.403L754.516 865.59L733.398 906.403H775.633Z" fill="#0098FF" fill-opacity="0.1"/>
<path d="M775.633 817.095H733.398L754.516 857.902L775.633 817.095Z" fill="#0098FF" fill-opacity="0.1"/>
<path d="M773.458 811.491L754.515 774.877L735.566 811.491H773.458Z" fill="#0098FF" fill-opacity="0.1"/>
<path d="M773.46 724.686H735.568L754.517 761.3L773.46 724.686Z" fill="#0098FF" fill-opacity="0.1"/>
<path d="M771.292 716.579L754.517 684.158L737.742 716.579H771.292Z" fill="#0098FF" fill-opacity="0.1"/>
<path d="M771.286 632.284H737.742L754.517 664.698L771.286 632.284Z" fill="#0098FF" fill-opacity="0.1"/>
<path d="M769.117 621.667L754.516 593.446L739.91 621.667H769.117Z" fill="#0098FF" fill-opacity="0.1"/>
<path d="M769.117 539.875H739.916L754.517 568.096L769.117 539.875Z" fill="#0098FF" fill-opacity="0.1"/>
<path d="M766.948 526.755L754.516 502.727L742.084 526.755H766.948Z" fill="#0098FF" fill-opacity="0.1"/>
<path d="M766.943 447.472H742.084L754.516 471.494L766.943 447.472Z" fill="#0098FF" fill-opacity="0.1"/>
<path d="M764.774 431.843L754.516 412.014L744.252 431.843H764.774Z" fill="#0098FF" fill-opacity="0.1"/>
<path d="M764.774 355.07H744.258L754.516 374.892L764.774 355.07Z" fill="#0098FF" fill-opacity="0.1"/>
<path d="M762.605 336.931L754.515 321.302L746.426 336.931H762.605Z" fill="#0098FF" fill-opacity="0.1"/>
<path d="M762.599 262.661H746.426L754.515 278.29L762.599 262.661Z" fill="#0098FF" fill-opacity="0.1"/>
<path d="M760.432 242.025L754.517 230.583L748.596 242.025H760.432Z" fill="#0098FF" fill-opacity="0.1"/>
<path d="M760.425 170.259H748.6L754.515 181.688L760.425 170.259Z" fill="#0098FF" fill-opacity="0.1"/>
<path d="M758.264 147.113L754.517 139.871L750.77 147.113H758.264Z" fill="#0098FF" fill-opacity="0.1"/>
<path d="M799.43 868.226H757.195L778.313 909.033L799.43 868.226Z" fill="#0098FF" fill-opacity="0.1"/>
<path d="M799.43 862.991L778.313 822.177L757.195 862.991H799.43Z" fill="#0098FF" fill-opacity="0.1"/>
<path d="M797.257 767.609L778.314 730.995L759.365 767.609H797.257Z" fill="#0098FF" fill-opacity="0.1"/>
<path d="M795.085 672.233L778.316 639.812L761.541 672.233H795.085Z" fill="#0098FF" fill-opacity="0.1"/>
<path d="M792.916 590.161H763.709L778.315 618.382L792.916 590.161Z" fill="#0098FF" fill-opacity="0.1"/>
<path d="M790.741 497.473H765.883L778.315 521.495L790.741 497.473Z" fill="#0098FF" fill-opacity="0.1"/>
<path d="M788.573 404.785H768.057L778.315 424.613L788.573 404.785Z" fill="#0098FF" fill-opacity="0.1"/>
<path d="M786.398 312.103H770.225L778.314 327.725L786.398 312.103Z" fill="#0098FF" fill-opacity="0.1"/>
<path d="M782.055 126.726H774.572L778.314 133.956L782.055 126.726Z" fill="#0098FF" fill-opacity="0.1"/>
<path d="M849.316 868.226H807.082L828.199 909.033L849.316 868.226Z" fill="#0098FF" fill-opacity="0.1"/>
<path d="M849.316 862.991L828.199 822.177L807.082 862.991H849.316Z" fill="#0098FF" fill-opacity="0.1"/>
<path d="M847.148 775.538H809.256L828.199 812.152L847.148 775.538Z" fill="#0098FF" fill-opacity="0.1"/>
<path d="M844.973 682.849H811.424L828.198 715.264L844.973 682.849Z" fill="#0098FF" fill-opacity="0.1"/>
<path d="M844.973 672.233L828.198 639.812L811.424 672.233H844.973Z" fill="#0098FF" fill-opacity="0.1"/>
<path d="M842.801 590.161H813.6L828.2 618.382L842.801 590.161Z" fill="#0098FF" fill-opacity="0.1"/>
<path d="M840.632 497.473H815.773L828.2 521.495L840.632 497.473Z" fill="#0098FF" fill-opacity="0.1"/>
<path d="M840.632 481.469L828.2 457.447L815.773 481.469H840.632Z" fill="#0098FF" fill-opacity="0.1"/>
<path d="M836.283 290.711L828.199 275.082L820.115 290.711H836.283Z" fill="#0098FF" fill-opacity="0.1"/>
<path d="M834.114 195.329L828.199 183.899L822.283 195.329H834.114Z" fill="#0098FF" fill-opacity="0.1"/>
<path d="M899.207 868.226H856.973L878.09 909.033L899.207 868.226Z" fill="#0098FF" fill-opacity="0.1"/>
<path d="M899.207 862.991L878.09 822.177L856.973 862.991H899.207Z" fill="#0098FF" fill-opacity="0.1"/>
<path d="M897.034 775.538H859.143L878.091 812.152L897.034 775.538Z" fill="#0098FF" fill-opacity="0.1"/>
<path d="M897.034 767.609L878.091 730.995L859.143 767.609H897.034Z" fill="#0098FF" fill-opacity="0.1"/>
<path d="M894.86 682.849H861.316L878.091 715.264L894.86 682.849Z" fill="#0098FF" fill-opacity="0.1"/>
<path d="M894.86 672.233L878.091 639.812L861.316 672.233H894.86Z" fill="#0098FF" fill-opacity="0.1"/>
<path d="M892.691 590.161H863.484L878.091 618.382L892.691 590.161Z" fill="#0098FF" fill-opacity="0.1"/>
<path d="M892.691 576.851L878.091 548.63L863.484 576.851H892.691Z" fill="#0098FF" fill-opacity="0.1"/>
<path d="M890.517 481.469L878.09 457.447L865.658 481.469H890.517Z" fill="#0098FF" fill-opacity="0.1"/>
<path d="M888.342 404.784H867.832L878.09 424.613L888.342 404.784Z" fill="#0098FF" fill-opacity="0.1"/>
<path d="M888.342 386.093L878.09 366.264L867.832 386.093H888.342Z" fill="#0098FF" fill-opacity="0.1"/>
<path d="M883.999 195.329L878.089 183.899L872.174 195.329H883.999Z" fill="#0098FF" fill-opacity="0.1"/>
<path d="M949.094 862.991L927.977 822.177L906.859 862.991H949.094Z" fill="#0098FF" fill-opacity="0.1"/>
<path d="M946.919 775.538H909.033L927.976 812.152L946.919 775.538Z" fill="#0098FF" fill-opacity="0.1"/>
<path d="M946.919 767.609L927.976 730.995L909.033 767.609H946.919Z" fill="#0098FF" fill-opacity="0.1"/>
<path d="M944.75 682.85H911.201L927.976 715.264L944.75 682.85Z" fill="#0098FF" fill-opacity="0.1"/>
<path d="M944.75 672.233L927.976 639.812L911.201 672.233H944.75Z" fill="#0098FF" fill-opacity="0.1"/>
<path d="M942.578 576.851L927.978 548.63L913.377 576.851H942.578Z" fill="#0098FF" fill-opacity="0.1"/>
<path d="M940.409 497.473H915.545L927.977 521.495L940.409 497.473Z" fill="#0098FF" fill-opacity="0.1"/>
<path d="M940.409 481.469L927.977 457.447L915.545 481.469H940.409Z" fill="#0098FF" fill-opacity="0.1"/>
<path d="M938.235 404.785H917.719L927.977 424.613L938.235 404.785Z" fill="#0098FF" fill-opacity="0.1"/>
<path d="M936.06 312.102H919.893L927.976 327.725L936.06 312.102Z" fill="#0098FF" fill-opacity="0.1"/>
<path d="M933.892 219.414H922.061L927.976 230.844L933.892 219.414Z" fill="#0098FF" fill-opacity="0.1"/>
<path d="M931.719 126.726H924.236L927.978 133.956L931.719 126.726Z" fill="#0098FF" fill-opacity="0.1"/>
<path d="M998.984 868.227H956.744L977.861 909.034L998.984 868.227Z" fill="#0098FF" fill-opacity="0.1"/>
<path d="M998.984 862.991L977.861 822.178L956.744 862.991H998.984Z" fill="#0098FF" fill-opacity="0.1"/>
<path d="M996.81 775.538H958.918L977.861 812.152L996.81 775.538Z" fill="#0098FF" fill-opacity="0.1"/>
<path d="M996.81 767.609L977.861 730.995L958.918 767.609H996.81Z" fill="#0098FF" fill-opacity="0.1"/>
<path d="M994.635 682.849H961.092L977.861 715.264L994.635 682.849Z" fill="#0098FF" fill-opacity="0.1"/>
<path d="M994.635 672.233L977.861 639.812L961.092 672.233H994.635Z" fill="#0098FF" fill-opacity="0.1"/>
<path d="M992.468 576.851L977.862 548.63L963.262 576.851H992.468Z" fill="#0098FF" fill-opacity="0.1"/>
<path d="M990.294 497.473H965.436L977.862 521.495L990.294 497.473Z" fill="#0098FF" fill-opacity="0.1"/>
<path d="M988.12 404.784H967.609L977.862 424.613L988.12 404.784Z" fill="#0098FF" fill-opacity="0.1"/>
<path d="M988.12 386.093L977.862 366.264L967.609 386.093H988.12Z" fill="#0098FF" fill-opacity="0.1"/>
<path d="M985.951 290.711L977.861 275.082L969.777 290.711H985.951Z" fill="#0098FF" fill-opacity="0.1"/>
<path d="M1048.87 868.226H1006.63L1027.75 909.033L1048.87 868.226Z" fill="#0098FF" fill-opacity="0.1"/>
<path d="M1048.87 862.991L1027.75 822.177L1006.63 862.991H1048.87Z" fill="#0098FF" fill-opacity="0.1"/>
<path d="M1046.7 775.538H1008.8L1027.75 812.152L1046.7 775.538Z" fill="#0098FF" fill-opacity="0.1"/>
<path d="M1044.53 682.849H1010.98L1027.75 715.264L1044.53 682.849Z" fill="#0098FF" fill-opacity="0.1"/>
<path d="M1042.35 590.161H1013.15L1027.75 618.382L1042.35 590.161Z" fill="#0098FF" fill-opacity="0.1"/>
<path d="M1040.18 481.469L1027.75 457.447L1015.32 481.469H1040.18Z" fill="#0098FF" fill-opacity="0.1"/>
<path d="M1038.01 386.093L1027.75 366.264L1017.49 386.093H1038.01Z" fill="#0098FF" fill-opacity="0.1"/>
<path d="M1033.67 195.329L1027.75 183.899L1021.84 195.329H1033.67Z" fill="#0098FF" fill-opacity="0.1"/>
<path d="M1098.76 868.226H1056.52L1077.64 909.033L1098.76 868.226Z" fill="#0098FF" fill-opacity="0.1"/>
<path d="M1096.59 775.538H1058.7L1077.64 812.152L1096.59 775.538Z" fill="#0098FF" fill-opacity="0.1"/>
<path d="M1096.59 767.609L1077.64 730.995L1058.7 767.609H1096.59Z" fill="#0098FF" fill-opacity="0.1"/>
<path d="M1094.41 672.233L1077.64 639.812L1060.87 672.233H1094.41Z" fill="#0098FF" fill-opacity="0.1"/>
<path d="M1092.25 590.161H1063.04L1077.64 618.382L1092.25 590.161Z" fill="#0098FF" fill-opacity="0.1"/>
<path d="M1092.25 576.851L1077.64 548.63L1063.04 576.851H1092.25Z" fill="#0098FF" fill-opacity="0.1"/>
<path d="M1090.07 497.473H1065.21L1077.64 521.495L1090.07 497.473Z" fill="#0098FF" fill-opacity="0.1"/>
<path d="M1087.9 404.784H1067.38L1077.64 424.613L1087.9 404.784Z" fill="#0098FF" fill-opacity="0.1"/>
<path d="M1085.73 312.102H1069.55L1077.64 327.725L1085.73 312.102Z" fill="#0098FF" fill-opacity="0.1"/>
<path d="M1085.73 290.711L1077.64 275.082L1069.55 290.711H1085.73Z" fill="#0098FF" fill-opacity="0.1"/>
<path d="M1083.55 219.414H1071.73L1077.64 230.844L1083.55 219.414Z" fill="#0098FF" fill-opacity="0.1"/>
<path d="M1083.55 195.329L1077.64 183.899L1071.73 195.329H1083.55Z" fill="#0098FF" fill-opacity="0.1"/>
<path d="M1148.65 868.226H1106.41L1127.53 909.033L1148.65 868.226Z" fill="#0098FF" fill-opacity="0.1"/>
<path d="M1148.65 862.991L1127.53 822.177L1106.41 862.991H1148.65Z" fill="#0098FF" fill-opacity="0.1"/>
<path d="M1146.47 767.609L1127.53 730.995L1108.58 767.609H1146.47Z" fill="#0098FF" fill-opacity="0.1"/>
<path d="M1144.31 682.85H1110.76L1127.53 715.264L1144.31 682.85Z" fill="#0098FF" fill-opacity="0.1"/>
<path d="M1144.31 672.233L1127.53 639.812L1110.76 672.233H1144.31Z" fill="#0098FF" fill-opacity="0.1"/>
<path d="M1142.13 576.851L1127.53 548.63L1112.93 576.851H1142.13Z" fill="#0098FF" fill-opacity="0.1"/>
<path d="M1139.96 481.469L1127.53 457.447L1115.1 481.469H1139.96Z" fill="#0098FF" fill-opacity="0.1"/>
<path d="M1137.79 386.093L1127.53 366.264L1117.27 386.093H1137.79Z" fill="#0098FF" fill-opacity="0.1"/>
<path d="M1135.61 312.102H1119.45L1127.53 327.725L1135.61 312.102Z" fill="#0098FF" fill-opacity="0.1"/>
<path d="M1131.27 126.726H1123.79L1127.53 133.956L1131.27 126.726Z" fill="#0098FF" fill-opacity="0.1"/>
<path d="M1198.54 868.226H1156.3L1177.42 909.033L1198.54 868.226Z" fill="#0098FF" fill-opacity="0.1"/>
<path d="M1198.54 862.991L1177.42 822.177L1156.3 862.991H1198.54Z" fill="#0098FF" fill-opacity="0.1"/>
<path d="M1196.37 775.538H1158.47L1177.42 812.152L1196.37 775.538Z" fill="#0098FF" fill-opacity="0.1"/>
<path d="M1196.37 767.609L1177.42 730.995L1158.47 767.609H1196.37Z" fill="#0098FF" fill-opacity="0.1"/>
<path d="M1194.19 682.85H1160.64L1177.42 715.264L1194.19 682.85Z" fill="#0098FF" fill-opacity="0.1"/>
<path d="M1192.02 590.161H1162.82L1177.42 618.383L1192.02 590.161Z" fill="#0098FF" fill-opacity="0.1"/>
<path d="M1192.02 576.851L1177.42 548.63L1162.82 576.851H1192.02Z" fill="#0098FF" fill-opacity="0.1"/>
<path d="M1189.85 497.473H1164.99L1177.42 521.495L1189.85 497.473Z" fill="#0098FF" fill-opacity="0.1"/>
<path d="M1189.85 481.469L1177.42 457.447L1164.99 481.469H1189.85Z" fill="#0098FF" fill-opacity="0.1"/>
<path d="M1187.67 404.784H1167.16L1177.42 424.613L1187.67 404.784Z" fill="#0098FF" fill-opacity="0.1"/>
<path d="M1248.43 862.991L1227.31 822.177L1206.19 862.991H1248.43Z" fill="#0098FF" fill-opacity="0.1"/>
<path d="M1246.25 775.538H1208.36L1227.31 812.152L1246.25 775.538Z" fill="#0098FF" fill-opacity="0.1"/>
<path d="M1246.25 767.609L1227.31 730.995L1208.36 767.609H1246.25Z" fill="#0098FF" fill-opacity="0.1"/>
<path d="M1244.08 682.849H1210.53L1227.31 715.264L1244.08 682.849Z" fill="#0098FF" fill-opacity="0.1"/>
<path d="M1244.08 672.233L1227.31 639.812L1210.53 672.233H1244.08Z" fill="#0098FF" fill-opacity="0.1"/>
<path d="M1241.91 576.851L1227.31 548.63L1212.71 576.851H1241.91Z" fill="#0098FF" fill-opacity="0.1"/>
<path d="M1239.73 481.469L1227.31 457.447L1214.88 481.469H1239.73Z" fill="#0098FF" fill-opacity="0.1"/>
<path d="M1237.56 404.784H1217.05L1227.31 424.613L1237.56 404.784Z" fill="#0098FF" fill-opacity="0.1"/>
<path d="M1235.39 312.102H1219.22L1227.31 327.725L1235.39 312.102Z" fill="#0098FF" fill-opacity="0.1"/>
<path d="M1233.22 219.414H1221.39L1227.31 230.844L1233.22 219.414Z" fill="#0098FF" fill-opacity="0.1"/>
<path d="M1233.22 195.329L1227.31 183.899L1221.39 195.329H1233.22Z" fill="#0098FF" fill-opacity="0.1"/>
<path d="M1298.31 868.226H1256.08L1277.19 909.033L1298.31 868.226Z" fill="#0098FF" fill-opacity="0.1"/>
<path d="M1298.31 862.991L1277.19 822.177L1256.08 862.991H1298.31Z" fill="#0098FF" fill-opacity="0.1"/>
<path d="M1296.14 775.538H1258.25L1277.19 812.152L1296.14 775.538Z" fill="#0098FF" fill-opacity="0.1"/>
<path d="M1296.14 767.609L1277.19 730.995L1258.25 767.609H1296.14Z" fill="#0098FF" fill-opacity="0.1"/>
<path d="M1291.79 590.161H1262.59L1277.19 618.382L1291.79 590.161Z" fill="#0098FF" fill-opacity="0.1"/>
<path d="M1289.62 497.473H1264.77L1277.19 521.495L1289.62 497.473Z" fill="#0098FF" fill-opacity="0.1"/>
<path d="M1289.62 481.469L1277.19 457.447L1264.77 481.469H1289.62Z" fill="#0098FF" fill-opacity="0.1"/>
<path d="M1287.45 386.093L1277.19 366.264L1266.93 386.093H1287.45Z" fill="#0098FF" fill-opacity="0.1"/>
<path d="M1285.28 312.102H1269.11L1277.19 327.725L1285.28 312.102Z" fill="#0098FF" fill-opacity="0.1"/>
<path d="M1348.2 868.226H1305.97L1327.08 909.033L1348.2 868.226Z" fill="#0098FF" fill-opacity="0.1"/>
<path d="M1348.2 862.991L1327.08 822.177L1305.97 862.991H1348.2Z" fill="#0098FF" fill-opacity="0.1"/>
<path d="M1346.03 775.538H1308.13L1327.08 812.152L1346.03 775.538Z" fill="#0098FF" fill-opacity="0.1"/>
<path d="M1346.03 767.609L1327.08 730.995L1308.13 767.609H1346.03Z" fill="#0098FF" fill-opacity="0.1"/>
<path d="M1343.85 682.849H1310.31L1327.08 715.264L1343.85 682.849Z" fill="#0098FF" fill-opacity="0.1"/>
<path d="M1343.85 672.233L1327.08 639.812L1310.31 672.233H1343.85Z" fill="#0098FF" fill-opacity="0.1"/>
<path d="M1341.68 590.161H1312.48L1327.08 618.382L1341.68 590.161Z" fill="#0098FF" fill-opacity="0.1"/>
<path d="M1341.68 576.851L1327.08 548.63L1312.48 576.851H1341.68Z" fill="#0098FF" fill-opacity="0.1"/>
<path d="M1339.51 497.473H1314.65L1327.08 521.495L1339.51 497.473Z" fill="#0098FF" fill-opacity="0.1"/>
<path d="M1337.34 404.784H1316.82L1327.08 424.613L1337.34 404.784Z" fill="#0098FF" fill-opacity="0.1"/>
<path d="M1335.17 290.711L1327.08 275.082L1318.99 290.711H1335.17Z" fill="#0098FF" fill-opacity="0.1"/>
<path d="M1332.99 195.329L1327.08 183.899L1321.17 195.329H1332.99Z" fill="#0098FF" fill-opacity="0.1"/>
<path d="M1398.09 868.226H1355.86L1376.97 909.033L1398.09 868.226Z" fill="#0098FF" fill-opacity="0.1"/>
<path d="M1398.09 862.991L1376.97 822.177L1355.86 862.991H1398.09Z" fill="#0098FF" fill-opacity="0.1"/>
<path d="M1395.92 775.538H1358.03L1376.97 812.152L1395.92 775.538Z" fill="#0098FF" fill-opacity="0.1"/>
<path d="M1393.75 682.85H1360.2L1376.97 715.264L1393.75 682.85Z" fill="#0098FF" fill-opacity="0.1"/>
<path d="M1393.75 672.233L1376.97 639.812L1360.2 672.233H1393.75Z" fill="#0098FF" fill-opacity="0.1"/>
<path d="M1391.57 576.851L1376.97 548.63L1362.37 576.851H1391.57Z" fill="#0098FF" fill-opacity="0.1"/>
<path d="M1389.41 497.473H1364.55L1376.97 521.495L1389.41 497.473Z" fill="#0098FF" fill-opacity="0.1"/>
<path d="M1387.23 404.784H1366.71L1376.97 424.613L1387.23 404.784Z" fill="#0098FF" fill-opacity="0.1"/>
<path d="M1447.98 868.226H1405.74L1426.86 909.033L1447.98 868.226Z" fill="#0098FF" fill-opacity="0.1"/>
<path d="M1447.98 862.991L1426.86 822.177L1405.74 862.991H1447.98Z" fill="#0098FF" fill-opacity="0.1"/>
<path d="M1445.81 775.538H1407.91L1426.86 812.152L1445.81 775.538Z" fill="#0098FF" fill-opacity="0.1"/>
<path d="M1445.81 767.609L1426.86 730.995L1407.91 767.609H1445.81Z" fill="#0098FF" fill-opacity="0.1"/>
<path d="M1443.63 672.233L1426.86 639.812L1410.09 672.233H1443.63Z" fill="#0098FF" fill-opacity="0.1"/>
<path d="M1441.46 590.161H1412.26L1426.86 618.382L1441.46 590.161Z" fill="#0098FF" fill-opacity="0.1"/>
<path d="M1439.29 481.469L1426.86 457.447L1414.43 481.469H1439.29Z" fill="#0098FF" fill-opacity="0.1"/>
<path d="M1437.11 386.093L1426.86 366.264L1416.6 386.093H1437.11Z" fill="#0098FF" fill-opacity="0.1"/>
<path d="M1434.94 312.102H1418.77L1426.86 327.725L1434.94 312.102Z" fill="#0098FF" fill-opacity="0.1"/>
<path d="M1432.77 219.414H1420.95L1426.86 230.844L1432.77 219.414Z" fill="#0098FF" fill-opacity="0.1"/>
<path d="M1432.77 195.329L1426.86 183.899L1420.95 195.329H1432.77Z" fill="#0098FF" fill-opacity="0.1"/>
<path d="M1430.6 126.726H1423.12L1426.86 133.956L1430.6 126.726Z" fill="#0098FF" fill-opacity="0.1"/>
<path d="M824.373 909.789L803.256 868.976L782.139 909.789H824.373Z" fill="#0098FF" fill-opacity="0.1"/>
<path d="M824.373 820.1H782.139L803.256 860.913L824.373 820.1Z" fill="#0098FF" fill-opacity="0.1"/>
<path d="M822.204 814.503L803.255 777.882L784.307 814.503H822.204Z" fill="#0098FF" fill-opacity="0.1"/>
<path d="M822.2 727.323H784.309L803.257 763.937L822.2 727.323Z" fill="#0098FF" fill-opacity="0.1"/>
<path d="M820.032 719.216L803.257 686.795L786.482 719.216H820.032Z" fill="#0098FF" fill-opacity="0.1"/>
<path d="M817.863 623.923L803.257 595.701L788.65 623.923H817.863Z" fill="#0098FF" fill-opacity="0.1"/>
<path d="M817.857 541.755H788.656L803.257 569.977L817.857 541.755Z" fill="#0098FF" fill-opacity="0.1"/>
<path d="M815.683 448.978H790.824L803.256 473L815.683 448.978Z" fill="#0098FF" fill-opacity="0.1"/>
<path d="M813.514 356.194H792.998L803.256 376.017L813.514 356.194Z" fill="#0098FF" fill-opacity="0.1"/>
<path d="M809.178 242.775L803.257 231.333L797.336 242.775H809.178Z" fill="#0098FF" fill-opacity="0.1"/>
<path d="M809.171 170.633H797.34L803.255 182.063L809.171 170.633Z" fill="#0098FF" fill-opacity="0.1"/>
<path d="M874.26 909.79L853.143 868.976L832.025 909.79H874.26Z" fill="#0098FF" fill-opacity="0.1"/>
<path d="M872.091 814.503L853.142 777.882L834.199 814.503H872.091Z" fill="#0098FF" fill-opacity="0.1"/>
<path d="M872.091 727.323H834.199L853.142 763.937L872.091 727.323Z" fill="#0098FF" fill-opacity="0.1"/>
<path d="M869.917 634.539H836.373L853.142 666.953L869.917 634.539Z" fill="#0098FF" fill-opacity="0.1"/>
<path d="M867.75 541.755H838.543L853.144 569.977L867.75 541.755Z" fill="#0098FF" fill-opacity="0.1"/>
<path d="M865.575 528.636L853.143 504.607L840.711 528.636H865.575Z" fill="#0098FF" fill-opacity="0.1"/>
<path d="M863.406 433.349L853.143 413.52L842.885 433.349H863.406Z" fill="#0098FF" fill-opacity="0.1"/>
<path d="M863.401 356.194H842.885L853.143 376.017L863.401 356.194Z" fill="#0098FF" fill-opacity="0.1"/>
<path d="M861.234 338.062L853.144 322.427L845.055 338.062H861.234Z" fill="#0098FF" fill-opacity="0.1"/>
<path d="M861.232 263.417H845.059L853.143 279.04L861.232 263.417Z" fill="#0098FF" fill-opacity="0.1"/>
<path d="M859.065 242.775L853.144 231.333L847.229 242.775H859.065Z" fill="#0098FF" fill-opacity="0.1"/>
<path d="M856.891 147.488L853.144 140.245L849.396 147.488H856.891Z" fill="#0098FF" fill-opacity="0.1"/>
<path d="M924.15 909.789L903.033 868.976L881.916 909.789H924.15Z" fill="#0098FF" fill-opacity="0.1"/>
<path d="M924.15 820.1H881.916L903.033 860.914L924.15 820.1Z" fill="#0098FF" fill-opacity="0.1"/>
<path d="M921.976 814.503L903.033 777.882L884.084 814.503H921.976Z" fill="#0098FF" fill-opacity="0.1"/>
<path d="M919.809 719.216L903.034 686.795L886.26 719.216H919.809Z" fill="#0098FF" fill-opacity="0.1"/>
<path d="M917.634 623.923L903.034 595.701L888.428 623.923H917.634Z" fill="#0098FF" fill-opacity="0.1"/>
<path d="M915.466 528.636L903.034 504.608L890.602 528.636H915.466Z" fill="#0098FF" fill-opacity="0.1"/>
<path d="M915.46 448.978H890.602L903.034 473L915.46 448.978Z" fill="#0098FF" fill-opacity="0.1"/>
<path d="M911.124 338.062L903.035 322.427L894.945 338.062H911.124Z" fill="#0098FF" fill-opacity="0.1"/>
<path d="M911.117 263.417H894.949L903.033 279.04L911.117 263.417Z" fill="#0098FF" fill-opacity="0.1"/>
<path d="M974.035 909.789L952.918 868.976L931.801 909.789H974.035Z" fill="#0098FF" fill-opacity="0.1"/>
<path d="M974.035 820.1H931.801L952.918 860.914L974.035 820.1Z" fill="#0098FF" fill-opacity="0.1"/>
<path d="M971.866 727.323H933.975L952.918 763.937L971.866 727.323Z" fill="#0098FF" fill-opacity="0.1"/>
<path d="M969.694 634.539H936.145L952.919 666.954L969.694 634.539Z" fill="#0098FF" fill-opacity="0.1"/>
<path d="M967.525 623.923L952.919 595.701L938.318 623.923H967.525Z" fill="#0098FF" fill-opacity="0.1"/>
<path d="M967.519 541.755H938.318L952.919 569.977L967.519 541.755Z" fill="#0098FF" fill-opacity="0.1"/>
<path d="M963.176 356.194H942.66L952.918 376.017L963.176 356.194Z" fill="#0098FF" fill-opacity="0.1"/>
<path d="M958.841 242.775L952.919 231.333L947.004 242.775H958.841Z" fill="#0098FF" fill-opacity="0.1"/>
<path d="M958.833 170.633H947.008L952.918 182.063L958.833 170.633Z" fill="#0098FF" fill-opacity="0.1"/>
<path d="M1023.93 909.79L1002.81 868.976L981.693 909.79H1023.93Z" fill="#0098FF" fill-opacity="0.1"/>
<path d="M1023.93 820.1H981.693L1002.81 860.913L1023.93 820.1Z" fill="#0098FF" fill-opacity="0.1"/>
<path d="M1021.75 814.503L1002.81 777.882L983.861 814.503H1021.75Z" fill="#0098FF" fill-opacity="0.1"/>
<path d="M1021.76 727.323H983.863L1002.81 763.937L1021.76 727.323Z" fill="#0098FF" fill-opacity="0.1"/>
<path d="M1019.59 719.216L1002.81 686.795L986.037 719.216H1019.59Z" fill="#0098FF" fill-opacity="0.1"/>
<path d="M1019.58 634.539H986.035L1002.81 666.954L1019.58 634.539Z" fill="#0098FF" fill-opacity="0.1"/>
<path d="M1017.41 623.923L1002.81 595.701L988.203 623.923H1017.41Z" fill="#0098FF" fill-opacity="0.1"/>
<path d="M1017.41 541.755H988.209L1002.81 569.977L1017.41 541.755Z" fill="#0098FF" fill-opacity="0.1"/>
<path d="M1015.24 528.636L1002.81 504.608L990.377 528.636H1015.24Z" fill="#0098FF" fill-opacity="0.1"/>
<path d="M1015.24 448.978H990.379L1002.81 473L1015.24 448.978Z" fill="#0098FF" fill-opacity="0.1"/>
<path d="M1010.9 338.062L1002.81 322.427L994.721 338.062H1010.9Z" fill="#0098FF" fill-opacity="0.1"/>
<path d="M1010.89 263.417H994.721L1002.81 279.04L1010.89 263.417Z" fill="#0098FF" fill-opacity="0.1"/>
<path d="M1008.73 242.775L1002.81 231.333L996.889 242.775H1008.73Z" fill="#0098FF" fill-opacity="0.1"/>
<path d="M1006.56 147.488L1002.81 140.245L999.062 147.488H1006.56Z" fill="#0098FF" fill-opacity="0.1"/>
<path d="M1073.81 909.789L1052.7 868.976L1031.58 909.789H1073.81Z" fill="#0098FF" fill-opacity="0.1"/>
<path d="M1073.81 820.1H1031.58L1052.7 860.913L1073.81 820.1Z" fill="#0098FF" fill-opacity="0.1"/>
<path d="M1071.64 814.503L1052.7 777.882L1033.75 814.503H1071.64Z" fill="#0098FF" fill-opacity="0.1"/>
<path d="M1071.64 727.323H1033.75L1052.7 763.937L1071.64 727.323Z" fill="#0098FF" fill-opacity="0.1"/>
<path d="M1069.47 719.216L1052.69 686.795L1035.92 719.216H1069.47Z" fill="#0098FF" fill-opacity="0.1"/>
<path d="M1069.47 634.539H1035.92L1052.69 666.953L1069.47 634.539Z" fill="#0098FF" fill-opacity="0.1"/>
<path d="M1067.3 623.923L1052.69 595.701L1038.09 623.923H1067.3Z" fill="#0098FF" fill-opacity="0.1"/>
<path d="M1065.13 528.636L1052.7 504.607L1040.26 528.636H1065.13Z" fill="#0098FF" fill-opacity="0.1"/>
<path d="M1062.96 433.349L1052.7 413.52L1042.44 433.349H1062.96Z" fill="#0098FF" fill-opacity="0.1"/>
<path d="M1062.95 356.194H1042.44L1052.7 376.017L1062.95 356.194Z" fill="#0098FF" fill-opacity="0.1"/>
<path d="M1060.78 263.417H1044.61L1052.7 279.04L1060.78 263.417Z" fill="#0098FF" fill-opacity="0.1"/>
<path d="M1058.62 242.775L1052.69 231.333L1046.78 242.775H1058.62Z" fill="#0098FF" fill-opacity="0.1"/>
<path d="M1123.7 909.79L1102.59 868.976L1081.46 909.79H1123.7Z" fill="#0098FF" fill-opacity="0.1"/>
<path d="M1123.71 820.1H1081.47L1102.59 860.914L1123.71 820.1Z" fill="#0098FF" fill-opacity="0.1"/>
<path d="M1121.53 814.503L1102.59 777.882L1083.64 814.503H1121.53Z" fill="#0098FF" fill-opacity="0.1"/>
<path d="M1121.53 727.323H1083.64L1102.59 763.937L1121.53 727.323Z" fill="#0098FF" fill-opacity="0.1"/>
<path d="M1119.36 719.216L1102.59 686.795L1085.81 719.216H1119.36Z" fill="#0098FF" fill-opacity="0.1"/>
<path d="M1119.36 634.539H1085.81L1102.59 666.954L1119.36 634.539Z" fill="#0098FF" fill-opacity="0.1"/>
<path d="M1117.19 541.755H1087.98L1102.59 569.977L1117.19 541.755Z" fill="#0098FF" fill-opacity="0.1"/>
<path d="M1115.01 448.978H1090.15L1102.59 473L1115.01 448.978Z" fill="#0098FF" fill-opacity="0.1"/>
<path d="M1173.59 909.789L1152.47 868.976L1131.36 909.789H1173.59Z" fill="#0098FF" fill-opacity="0.1"/>
<path d="M1173.59 820.1H1131.36L1152.47 860.913L1173.59 820.1Z" fill="#0098FF" fill-opacity="0.1"/>
<path d="M1171.42 814.503L1152.47 777.882L1133.53 814.503H1171.42Z" fill="#0098FF" fill-opacity="0.1"/>
<path d="M1169.25 719.216L1152.47 686.795L1135.7 719.216H1169.25Z" fill="#0098FF" fill-opacity="0.1"/>
<path d="M1167.08 623.923L1152.47 595.701L1137.87 623.923H1167.08Z" fill="#0098FF" fill-opacity="0.1"/>
<path d="M1164.91 528.636L1152.47 504.608L1140.04 528.636H1164.91Z" fill="#0098FF" fill-opacity="0.1"/>
<path d="M1162.74 433.349L1152.47 413.52L1142.21 433.349H1162.74Z" fill="#0098FF" fill-opacity="0.1"/>
<path d="M1162.73 356.194H1142.21L1152.47 376.017L1162.73 356.194Z" fill="#0098FF" fill-opacity="0.1"/>
<path d="M1160.56 263.417H1144.39L1152.47 279.04L1160.56 263.417Z" fill="#0098FF" fill-opacity="0.1"/>
<path d="M1158.39 242.775L1152.47 231.333L1146.55 242.775H1158.39Z" fill="#0098FF" fill-opacity="0.1"/>
<path d="M1158.39 170.633H1146.56L1152.47 182.063L1158.39 170.633Z" fill="#0098FF" fill-opacity="0.1"/>
<path d="M1223.48 909.79L1202.36 868.976L1181.24 909.79H1223.48Z" fill="#0098FF" fill-opacity="0.1"/>
<path d="M1223.48 820.1H1181.24L1202.36 860.913L1223.48 820.1Z" fill="#0098FF" fill-opacity="0.1"/>
<path d="M1221.31 814.503L1202.36 777.882L1183.42 814.503H1221.31Z" fill="#0098FF" fill-opacity="0.1"/>
<path d="M1221.31 727.323H1183.42L1202.36 763.937L1221.31 727.323Z" fill="#0098FF" fill-opacity="0.1"/>
<path d="M1219.14 634.539H1185.59L1202.36 666.954L1219.14 634.539Z" fill="#0098FF" fill-opacity="0.1"/>
<path d="M1216.97 623.923L1202.36 595.701L1187.76 623.923H1216.97Z" fill="#0098FF" fill-opacity="0.1"/>
<path d="M1216.97 541.755H1187.76L1202.36 569.977L1216.97 541.755Z" fill="#0098FF" fill-opacity="0.1"/>
<path d="M1214.8 528.636L1202.36 504.607L1189.93 528.636H1214.8Z" fill="#0098FF" fill-opacity="0.1"/>
<path d="M1210.46 338.062L1202.36 322.427L1194.27 338.062H1210.46Z" fill="#0098FF" fill-opacity="0.1"/>
<path d="M1210.45 263.417H1194.28L1202.36 279.04L1210.45 263.417Z" fill="#0098FF" fill-opacity="0.1"/>
<path d="M1208.28 242.775L1202.36 231.333L1196.45 242.775H1208.28Z" fill="#0098FF" fill-opacity="0.1"/>
<path d="M1206.11 147.488L1202.36 140.245L1198.61 147.488H1206.11Z" fill="#0098FF" fill-opacity="0.1"/>
<path d="M1273.37 909.789L1252.25 868.976L1231.13 909.789H1273.37Z" fill="#0098FF" fill-opacity="0.1"/>
<path d="M1273.37 820.1H1231.13L1252.25 860.914L1273.37 820.1Z" fill="#0098FF" fill-opacity="0.1"/>
<path d="M1271.2 814.503L1252.25 777.882L1233.3 814.503H1271.2Z" fill="#0098FF" fill-opacity="0.1"/>
<path d="M1269.02 719.216L1252.25 686.795L1235.47 719.216H1269.02Z" fill="#0098FF" fill-opacity="0.1"/>
<path d="M1269.02 634.539H1235.47L1252.25 666.954L1269.02 634.539Z" fill="#0098FF" fill-opacity="0.1"/>
<path d="M1266.85 623.923L1252.25 595.701L1237.64 623.923H1266.85Z" fill="#0098FF" fill-opacity="0.1"/>
<path d="M1266.85 541.755H1237.65L1252.25 569.977L1266.85 541.755Z" fill="#0098FF" fill-opacity="0.1"/>
<path d="M1264.68 448.978H1239.82L1252.25 473L1264.68 448.978Z" fill="#0098FF" fill-opacity="0.1"/>
<path d="M1262.51 356.194H1241.99L1252.25 376.017L1262.51 356.194Z" fill="#0098FF" fill-opacity="0.1"/>
<path d="M1260.33 263.417H1244.17L1252.25 279.04L1260.33 263.417Z" fill="#0098FF" fill-opacity="0.1"/>
<path d="M1258.17 170.633H1246.33L1252.25 182.063L1258.17 170.633Z" fill="#0098FF" fill-opacity="0.1"/>
<path d="M1323.26 909.79L1302.14 868.976L1281.02 909.79H1323.26Z" fill="#0098FF" fill-opacity="0.1"/>
<path d="M1323.26 820.1H1281.02L1302.14 860.914L1323.26 820.1Z" fill="#0098FF" fill-opacity="0.1"/>
<path d="M1321.09 727.323H1283.2L1302.14 763.937L1321.09 727.323Z" fill="#0098FF" fill-opacity="0.1"/>
<path d="M1318.92 719.216L1302.14 686.795L1285.36 719.216H1318.92Z" fill="#0098FF" fill-opacity="0.1"/>
<path d="M1318.91 634.539H1285.37L1302.14 666.953L1318.91 634.539Z" fill="#0098FF" fill-opacity="0.1"/>
<path d="M1314.57 528.636L1302.14 504.607L1289.71 528.636H1314.57Z" fill="#0098FF" fill-opacity="0.1"/>
<path d="M1312.4 433.349L1302.14 413.52L1291.88 433.349H1312.4Z" fill="#0098FF" fill-opacity="0.1"/>
<path d="M1310.23 338.062L1302.14 322.427L1294.05 338.062H1310.23Z" fill="#0098FF" fill-opacity="0.1"/>
<path d="M1308.06 242.775L1302.14 231.333L1296.22 242.775H1308.06Z" fill="#0098FF" fill-opacity="0.1"/>
<path d="M1305.89 147.488L1302.14 140.245L1298.39 147.488H1305.89Z" fill="#0098FF" fill-opacity="0.1"/>
<path d="M1373.14 908.944L1352.03 868.131L1330.91 908.944H1373.14Z" fill="#0098FF" fill-opacity="0.1"/>
<path d="M1370.97 813.747L1352.03 777.132L1333.08 813.747H1370.97Z" fill="#0098FF" fill-opacity="0.1"/>
<path d="M1370.97 726.662H1333.08L1352.03 763.276L1370.97 726.662Z" fill="#0098FF" fill-opacity="0.1"/>
<path d="M1366.63 623.363L1352.03 595.136L1337.42 623.363H1366.63Z" fill="#0098FF" fill-opacity="0.1"/>
<path d="M1366.63 541.285H1337.43L1352.03 569.507L1366.63 541.285Z" fill="#0098FF" fill-opacity="0.1"/>
<path d="M1364.45 448.603H1339.6L1352.03 472.619L1364.45 448.603Z" fill="#0098FF" fill-opacity="0.1"/>
<path d="M1362.29 355.915H1341.77L1352.03 375.737L1362.29 355.915Z" fill="#0098FF" fill-opacity="0.1"/>
<path d="M1360.12 337.782L1352.03 322.147L1343.94 337.782H1360.12Z" fill="#0098FF" fill-opacity="0.1"/>
<path d="M1360.11 263.226H1343.94L1352.03 278.849L1360.11 263.226Z" fill="#0098FF" fill-opacity="0.1"/>
<path d="M1357.94 242.585L1352.03 231.149L1346.11 242.585H1357.94Z" fill="#0098FF" fill-opacity="0.1"/>
<path d="M1423.03 908.945L1401.91 868.131L1380.8 908.945H1423.03Z" fill="#0098FF" fill-opacity="0.1"/>
<path d="M1423.03 819.35H1380.8L1401.91 860.158L1423.03 819.35Z" fill="#0098FF" fill-opacity="0.1"/>
<path d="M1420.86 813.747L1401.91 777.132L1382.97 813.747H1420.86Z" fill="#0098FF" fill-opacity="0.1"/>
<path d="M1420.86 726.662H1382.97L1401.91 763.276L1420.86 726.662Z" fill="#0098FF" fill-opacity="0.1"/>
<path d="M1418.69 718.555L1401.91 686.134L1385.14 718.555H1418.69Z" fill="#0098FF" fill-opacity="0.1"/>
<path d="M1416.52 623.363L1401.91 595.136L1387.31 623.363H1416.52Z" fill="#0098FF" fill-opacity="0.1"/>
<path d="M1414.34 528.166L1401.91 504.137L1389.48 528.166H1414.34Z" fill="#0098FF" fill-opacity="0.1"/>
<path d="M1412.18 432.974L1401.91 413.145L1391.66 432.974H1412.18Z" fill="#0098FF" fill-opacity="0.1"/>
<path d="M1412.17 355.915H1391.66L1401.91 375.737L1412.17 355.915Z" fill="#0098FF" fill-opacity="0.1"/>
<path d="M1410 263.226H1393.83L1401.91 278.849L1410 263.226Z" fill="#0098FF" fill-opacity="0.1"/>
<path d="M1407.83 170.538H1396L1401.91 181.968L1407.83 170.538Z" fill="#0098FF" fill-opacity="0.1"/>
<path d="M1472.92 908.944L1451.8 868.131L1430.69 908.944H1472.92Z" fill="#0098FF" fill-opacity="0.1"/>
<path d="M1472.92 819.35H1430.69L1451.8 860.157L1472.92 819.35Z" fill="#0098FF" fill-opacity="0.1"/>
<path d="M1470.75 813.746L1451.8 777.132L1432.86 813.746H1470.75Z" fill="#0098FF" fill-opacity="0.1"/>
<path d="M1470.75 726.662H1432.86L1451.8 763.276L1470.75 726.662Z" fill="#0098FF" fill-opacity="0.1"/>
<path d="M1468.58 718.555L1451.8 686.134L1435.03 718.555H1468.58Z" fill="#0098FF" fill-opacity="0.1"/>
<path d="M1468.58 633.973H1435.03L1451.8 666.388L1468.58 633.973Z" fill="#0098FF" fill-opacity="0.1"/>
<path d="M1466.4 541.285H1437.2L1451.8 569.506L1466.4 541.285Z" fill="#0098FF" fill-opacity="0.1"/>
<path d="M1464.23 448.603H1439.37L1451.81 472.618L1464.23 448.603Z" fill="#0098FF" fill-opacity="0.1"/>
</g>
<defs>
<clipPath id="clip0_146_1639">
<rect width="1708.87" height="958.373" fill="white" transform="translate(-134)"/>
</clipPath>
</defs>
</svg>
