<svg width="56" height="56" viewBox="0 0 56 56" fill="none" xmlns="http://www.w3.org/2000/svg">
<g clip-path="url(#clip0_44_1209)">
<g clip-path="url(#clip1_44_1209)">
<path d="M42.0448 5.43047C45.3298 5.43408 48.4792 6.74064 50.8021 9.0635C53.125 11.3864 54.4315 14.5358 54.4351 17.8209C54.4351 17.8413 54.4351 17.8625 54.4351 17.8829C54.4351 17.9238 54.4404 17.9851 54.445 18.0661C54.6992 22.5657 53.9637 34.7147 41.6717 50.282C41.561 50.4218 41.4045 50.518 41.2297 50.5537C41.055 50.5893 40.8733 50.5621 40.7167 50.4769C40.56 50.3917 40.4385 50.2538 40.3736 50.0877C40.3086 49.9217 40.3044 49.738 40.3617 49.5691C40.3965 49.4662 43.7558 39.4036 41.4605 30.1961C38.2277 30.0444 35.1826 28.6338 32.9763 26.266C30.77 23.8982 29.5777 20.7611 29.6544 17.5257C29.7312 14.2902 31.0708 11.2131 33.3868 8.95253C35.7028 6.69195 38.8114 5.42727 42.0478 5.42896L42.0448 5.43047ZM52.9216 17.7777C52.9133 15.6283 52.2682 13.5296 51.068 11.7465C49.8677 9.96333 48.1661 8.57581 46.1779 7.75907C44.1897 6.94232 42.004 6.73295 39.8969 7.15741C37.7898 7.58187 35.8557 8.62112 34.3388 10.144C32.8219 11.6668 31.7902 13.6049 31.3739 15.7137C30.9576 17.8224 31.1755 20.0072 32 21.9922C32.8244 23.9773 34.2186 25.6735 36.0063 26.8668C37.7941 28.0601 39.8953 28.697 42.0448 28.697C42.2105 28.697 42.3716 28.7515 42.5034 28.8519C42.6352 28.9524 42.7304 29.0934 42.7743 29.2532C44.5148 35.5872 43.6612 42.2316 42.7962 46.2636C52.5463 32.6056 53.1585 22.1805 52.9307 18.1508C52.9204 18.0267 52.9174 17.9022 52.9216 17.7777Z" fill="#0098FF"/>
<path d="M13.904 5.43047C17.189 5.43408 20.3385 6.74064 22.6614 9.0635C24.9842 11.3864 26.2908 14.5358 26.2944 17.8209C26.2944 17.8413 26.2944 17.8625 26.2944 17.8829C26.2944 17.9238 26.2997 17.9851 26.3042 18.0661C26.5585 22.5657 25.8229 34.7147 13.5309 50.282C13.4202 50.4218 13.2637 50.518 13.089 50.5537C12.9143 50.5893 12.7325 50.5621 12.5759 50.4769C12.4193 50.3917 12.2978 50.2538 12.2328 50.0877C12.1679 49.9217 12.1637 49.738 12.221 49.5691C12.2558 49.4662 15.615 39.4036 13.3198 30.1961C10.087 30.0444 7.04185 28.6338 4.83557 26.266C2.62929 23.8982 1.43703 20.7611 1.51374 17.5257C1.59045 14.2902 2.93006 11.2131 5.24609 8.95253C7.56211 6.69195 10.6707 5.42727 13.907 5.42896L13.904 5.43047ZM24.7809 17.7777C24.7725 15.6283 24.1275 13.5296 22.9272 11.7465C21.727 9.96333 20.0253 8.57581 18.0371 7.75907C16.0489 6.94232 13.8633 6.73295 11.7562 7.15741C9.64912 7.58187 7.71501 8.62112 6.19809 10.144C4.68117 11.6668 3.64945 13.6049 3.23319 15.7137C2.81693 17.8224 3.03478 20.0072 3.85926 21.9922C4.68373 23.9773 6.07786 25.6735 7.86562 26.8668C9.65338 28.0601 11.7546 28.697 13.904 28.697C14.0697 28.697 14.2309 28.7515 14.3627 28.8519C14.4945 28.9524 14.5896 29.0934 14.6335 29.2532C16.3741 35.5872 15.5204 42.2316 14.6555 46.2636C24.4055 32.6056 25.0185 22.1805 24.7907 18.1508C24.7802 18.0268 24.7769 17.9022 24.7809 17.7777Z" fill="#0098FF"/>
</g>
</g>
<defs>
<clipPath id="clip0_44_1209">
<rect width="56" height="56" fill="white"/>
</clipPath>
<clipPath id="clip1_44_1209">
<rect width="56" height="56" fill="white"/>
</clipPath>
</defs>
</svg>
