<svg width="66" height="66" viewBox="0 0 66 66" fill="none" xmlns="http://www.w3.org/2000/svg">
<path d="M46.542 25.2852C52.4326 25.3177 55.623 25.5804 57.703 27.6604C60.0837 30.041 60.0837 33.8706 60.0837 41.5297V44.2381C60.0837 51.8999 60.0837 55.7295 57.703 58.1102C55.3251 60.4881 51.4928 60.4881 43.8337 60.4881H22.167C14.5078 60.4881 10.6755 60.4881 8.29762 58.1102C5.91699 55.7268 5.91699 51.8999 5.91699 44.2381V41.5297C5.91699 33.8706 5.91699 30.041 8.29762 27.6604C10.3776 25.5804 13.568 25.3177 19.4587 25.2852" stroke="white" stroke-width="1.5" stroke-linecap="round"/>
<path d="M33 41.5296V6.32129M33 6.32129L41.125 15.8005M33 6.32129L24.875 15.8005" stroke="white" stroke-width="1.5" stroke-linecap="round" stroke-linejoin="round"/>
</svg>
