<svg width="10" height="16" viewBox="0 0 10 16" fill="none" xmlns="http://www.w3.org/2000/svg">
<path fill-rule="evenodd" clip-rule="evenodd" d="M8.67292 7.56879C8.89345 7.78221 9.01775 8.07206 9.01849 8.37459C9.01923 8.67713 8.89635 8.96758 8.67686 9.18208L2.05391 15.6526C1.94592 15.7618 1.81664 15.8491 1.67361 15.9092C1.53058 15.9694 1.37667 16.0012 1.22085 16.0029C1.06503 16.0046 0.910428 15.9761 0.766063 15.9191C0.621699 15.8621 0.490463 15.7777 0.380015 15.6708C0.269566 15.564 0.182116 15.4368 0.122766 15.2967C0.0634171 15.1567 0.0333577 15.0065 0.0343416 14.855C0.0353254 14.7035 0.0673333 14.5537 0.128497 14.4144C0.189661 14.275 0.278756 14.1489 0.390584 14.0434L6.18581 8.38151L0.362984 2.74804C0.148688 2.53338 0.0296977 2.24547 0.0316405 1.94631C0.0335833 1.64715 0.156304 1.36069 0.373371 1.14861C0.590438 0.936542 0.884484 0.81583 1.19218 0.812478C1.49987 0.809127 1.79659 0.923403 2.01843 1.13069L8.67292 7.56879Z" fill="white"/>
</svg>
