<svg width="17" height="15" viewBox="0 0 17 15" fill="none" xmlns="http://www.w3.org/2000/svg">
<path fill-rule="evenodd" clip-rule="evenodd" d="M0.105469 1.4998C0.105469 1.18154 0.231897 0.87632 0.456941 0.651277C0.681984 0.426233 0.987209 0.299805 1.30547 0.299805H15.7055C16.0237 0.299805 16.329 0.426233 16.554 0.651277C16.779 0.87632 16.9055 1.18154 16.9055 1.4998C16.9055 1.81806 16.779 2.12329 16.554 2.34833C16.329 2.57338 16.0237 2.6998 15.7055 2.6998H1.30547C0.987209 2.6998 0.681984 2.57338 0.456941 2.34833C0.231897 2.12329 0.105469 1.81806 0.105469 1.4998ZM0.105469 7.4998C0.105469 7.18154 0.231897 6.87632 0.456941 6.65128C0.681984 6.42623 0.987209 6.2998 1.30547 6.2998H15.7055C16.0237 6.2998 16.329 6.42623 16.554 6.65128C16.779 6.87632 16.9055 7.18154 16.9055 7.4998C16.9055 7.81806 16.779 8.12329 16.554 8.34833C16.329 8.57338 16.0237 8.6998 15.7055 8.6998H1.30547C0.987209 8.6998 0.681984 8.57338 0.456941 8.34833C0.231897 8.12329 0.105469 7.81806 0.105469 7.4998ZM7.30547 13.4998C7.30547 13.1815 7.4319 12.8763 7.65694 12.6513C7.88198 12.4262 8.18721 12.2998 8.50547 12.2998H15.7055C16.0237 12.2998 16.329 12.4262 16.554 12.6513C16.779 12.8763 16.9055 13.1815 16.9055 13.4998C16.9055 13.8181 16.779 14.1233 16.554 14.3483C16.329 14.5734 16.0237 14.6998 15.7055 14.6998H8.50547C8.18721 14.6998 7.88198 14.5734 7.65694 14.3483C7.4319 14.1233 7.30547 13.8181 7.30547 13.4998Z" fill="white"/>
</svg>
