<svg width="28" height="20" viewBox="0 0 28 20" fill="none" xmlns="http://www.w3.org/2000/svg">
<path d="M27.287 2.36764C26.3176 2.76923 25.2738 3.04081 24.179 3.16215C25.2971 2.5381 26.155 1.54857 26.5592 0.369808C25.5123 0.947635 24.3555 1.368 23.1197 1.59335C22.1348 0.612495 20.7271 0 19.1692 0C16.1819 0 13.7583 2.26074 13.7583 5.04875C13.7583 5.44457 13.8048 5.82882 13.8977 6.19863C9.399 5.98772 5.41133 3.97978 2.73997 0.921633C2.27384 1.66992 2.00748 2.5381 2.00748 3.46262C2.00748 5.21343 2.96297 6.75912 4.41557 7.66486C3.52977 7.6403 2.69352 7.41062 1.96257 7.03503V7.09715C1.96257 9.54424 3.82865 11.5854 6.30643 12.0477C5.85268 12.1661 5.37416 12.2254 4.88016 12.2254C4.53172 12.2254 4.19102 12.195 3.86117 12.1358C4.5503 14.1408 6.54801 15.6013 8.91739 15.6403C7.06525 16.9953 4.72994 17.8028 2.19486 17.8028C1.75815 17.8028 1.32609 17.7797 0.90332 17.7335C3.29902 19.1636 6.14537 20 9.20078 20C19.1584 20 24.6017 12.3077 24.6017 5.63525C24.6017 5.41567 24.5971 5.1961 24.5878 4.98086C25.6455 4.26869 26.5638 3.38028 27.287 2.36764Z" fill="white"/>
</svg>
