<svg width="27" height="21" viewBox="0 0 27 21" fill="none" xmlns="http://www.w3.org/2000/svg">
<path d="M26.6292 4.85527C26.5144 7.22196 24.718 10.4572 21.2524 14.5624C17.6658 18.8551 14.6269 21 12.1432 21C10.6075 21 9.30593 19.695 8.24329 17.0765C7.53125 14.674 6.82386 12.2716 6.11337 9.87626C5.32221 7.2563 4.4752 5.94703 3.56925 5.94703C3.37223 5.94703 2.68501 6.32908 1.49982 7.09461L0.258789 5.61936C1.55877 4.56766 2.84014 3.51166 4.10444 2.45852C5.83569 1.07628 7.13722 0.350823 8.00595 0.274986C10.0537 0.0918324 11.3164 1.38393 11.7927 4.14698C12.2999 7.13038 12.6567 8.98482 12.8537 9.71171C13.4463 12.1843 14.0948 13.4177 14.8053 13.4177C15.356 13.4177 16.1844 12.6193 17.2889 11.021C18.3934 9.41981 18.9813 8.20355 19.062 7.36505C19.2202 5.98281 18.6292 5.29598 17.2889 5.29598C16.6575 5.29598 16.006 5.41904 15.3374 5.6766C16.6404 1.78601 19.1225 -0.105631 22.7898 0.00454819C25.5061 0.0746616 26.789 1.69443 26.6292 4.85527Z" fill="white"/>
</svg>
