<svg width="27" height="17" viewBox="0 0 27 17" fill="none" xmlns="http://www.w3.org/2000/svg">
<path fill-rule="evenodd" clip-rule="evenodd" d="M25.6873 1.26818C26.478 2.0016 26.7361 3.66708 26.7361 3.66708C26.7361 3.66708 26.9999 5.62336 26.9999 7.57889V9.4128C26.9999 11.3691 26.7361 13.3246 26.7361 13.3246C26.7361 13.3246 26.478 14.9901 25.6873 15.7235C24.7833 16.5911 23.781 16.6808 23.2144 16.7314C23.1521 16.737 23.0951 16.7421 23.044 16.7477C19.3519 16.9924 13.8081 17 13.8081 17C13.8081 17 6.9483 16.9426 4.8376 16.7568C4.7376 16.7397 4.61637 16.7264 4.47909 16.7113C3.81051 16.6378 2.76113 16.5225 1.92798 15.7235C1.13729 14.9901 0.880048 13.3246 0.880048 13.3246C0.880048 13.3246 0.616211 11.3691 0.616211 9.4128V7.57889C0.616211 5.62336 0.880048 3.66708 0.880048 3.66708C0.880048 3.66708 1.13729 2.0016 1.92798 1.26818C2.83398 0.399349 3.83728 0.310675 4.4039 0.260597C4.46533 0.255167 4.52163 0.250191 4.57212 0.244724C8.26419 0 13.8023 0 13.8023 0H13.8138C13.8138 0 19.3519 0 23.044 0.244724C23.0945 0.250199 23.1508 0.255182 23.2123 0.260621C23.7785 0.310704 24.7822 0.39949 25.6873 1.26818ZM11.0837 4.84375L11.0845 11.6348L18.2122 8.251L11.0837 4.84375Z" fill="white"/>
</svg>
